<svg width="1519" height="669" viewBox="0 0 1519 669" fill="none" xmlns="http://www.w3.org/2000/svg">
<path d="M48 60.5C41.2 64.9 13.1667 92 0 105V668.5H1519V0.5C1516.33 4.16667 1506 15.9 1486 33.5C1461 55.5 1449 64 1439 72C1429 80 1396.5 98 1378.5 101.5C1360.5 105 1347.5 106.5 1320 105.5C1292.5 104.5 1260 94.5 1240.5 88.5C1239 88 1208.5 76 1178.5 55.5C1150 33.5 1134.5 32.5 1122 33C1109.5 33.5 1091 35.5 1050.5 58.5C1010 81.5 994 85.5 968 95.5C942 105.5 890.5 115 879 115C873.5 118 807 118.5 796.5 118C788.1 117.6 774 116.5 768 116C756.667 114.667 730.7 111.4 717.5 109C701 106 694.5 103.5 682 100C669.5 96.5 650.5 88 621 73.5C594.5 65.5 590.5 65.5 570.5 65.5C550.475 65.5 525.5 70.5 514.5 73.5C505.932 75.8369 472.167 83.6667 456.5 88C434.167 95 387 110.2 377 115C367 119.8 326.5 128 307.5 131.5C292.667 133.167 257.5 135.8 235.5 133C208 129.5 198.5 124 189.5 117.5C180.5 111 174.5 99.5 169.5 92C165.5 86 157.5 74.5 148 66.5C135 57.1667 114.3 44.9 95.5 44.5C72 44 56.5 55 48 60.5Z" fill="#9030CC"/>
</svg>
