<svg width="1518" height="460" viewBox="0 0 1518 460" fill="none" xmlns="http://www.w3.org/2000/svg">
<path d="M54 75.5C44.4 70.7 14 52.8333 0 44.5V459.5H1517.5V20.5C1493.5 47 1491 46 1464.5 67.5C1443.62 84.4377 1403 105.5 1384.5 113C1375 116.833 1348.1 123.9 1316.5 121.5C1284.9 119.1 1258.33 97.1667 1249 86.5C1239.67 75.3333 1212.1 49.1 1176.5 33.5C1132 14 1104.5 12.5 1077.5 9.5C1055.9 7.1 1020.17 12.5 1005 15.5C973.5 26.5 970 30.5 932 54.5C902.352 73.2248 867.5 79.1667 855 82C833 85.8333 781.3 91.9 750.5 85.5C712 77.5 710 74.25 687.5 63C675.5 57 656.833 42.1667 649 35.5C638.833 28.8333 611.2 13.6 582 5.99997C552.8 -1.60003 520.167 0.833298 507.5 2.99997C500.5 3.49997 477 8.09997 439 22.5C391.5 40.5 386.5 45.5 356.5 58C332.5 68 296.167 83.5 281 90C264.6 98 214 105.5 190 105.5C185.5 105.5 167.4 104.3 131 99.5C86 90 71.5 82.5 54 75.5Z" fill="#9030CC"/>
</svg>
