<?xml version="1.0" standalone="no"?>
<!DOCTYPE svg PUBLIC "-//W3C//DTD SVG 20010904//EN"
 "http://www.w3.org/TR/2001/REC-SVG-20010904/DTD/svg10.dtd">
<svg version="1.0" xmlns="http://www.w3.org/2000/svg"
 width="1080.000000pt" height="1080.000000pt" viewBox="0 0 1080.000000 1080.000000"
 preserveAspectRatio="xMidYMid meet">

<g transform="translate(0.000000,1080.000000) scale(0.100000,-0.100000)"
fill="#000000" stroke="none">
<path d="M4780 9909 c-19 -41 -41 -82 -49 -91 -8 -10 -26 -44 -40 -75 l-26
-58 -5 -907 c-4 -715 -8 -910 -18 -920 -10 -10 -224 -13 -1034 -16 l-1021 -3
-26 -22 c-14 -12 -50 -48 -80 -80 l-54 -57 36 0 c55 0 67 -8 67 -46 l0 -34
1090 0 1090 0 0 34 c0 38 12 46 71 46 l39 0 0 418 c0 231 3 473 6 540 8 139 4
135 111 122 63 -8 180 -65 1548 -753 l1480 -744 85 58 c47 32 102 79 123 104
46 55 179 164 431 355 104 79 191 151 193 161 3 9 54 56 114 104 60 47 111 90
114 95 3 5 -39 6 -92 4 -183 -9 -196 -12 -270 -59 -37 -25 -76 -45 -85 -45
-10 0 -23 -10 -29 -22 -16 -30 -54 -62 -98 -85 -20 -10 -39 -22 -42 -27 -4 -5
-11 -6 -17 -2 -6 3 -12 1 -14 -4 -2 -6 -10 -12 -18 -13 -8 -2 -21 -7 -29 -11
-9 -6 -12 -5 -8 1 3 5 0 10 -8 10 -8 0 -13 -5 -12 -11 1 -6 -7 -10 -17 -8 -10
2 -23 -2 -27 -10 -7 -10 -10 -10 -21 1 -11 11 -11 13 1 6 9 -5 12 -4 7 3 -9
15 -39 3 -33 -13 3 -6 -1 -12 -9 -12 -8 0 -13 6 -10 14 8 20 -14 16 -22 -4 -4
-10 -13 -19 -21 -21 -12 -3 -12 -1 0 14 13 16 12 16 -7 6 -16 -8 -24 -8 -32 0
-9 9 -12 8 -12 -4 0 -9 -5 -20 -12 -24 -7 -4 -8 -3 -4 4 9 15 -6 16 -21 1 -7
-7 -13 -7 -17 0 -4 5 -13 8 -21 5 -8 -4 -12 -10 -9 -15 3 -5 0 -9 -5 -9 -6 0
-11 10 -11 23 -1 20 -2 20 -13 5 -9 -11 -25 -15 -49 -14 -20 2 -36 -1 -35 -7
1 -5 -8 -13 -21 -18 -16 -6 -21 -5 -16 3 5 7 -2 9 -20 6 -16 -3 -33 0 -42 9
-8 8 -14 11 -14 6 0 -5 5 -14 12 -21 9 -9 9 -12 1 -12 -7 0 -15 5 -19 12 -5 8
-10 7 -18 -3 -6 -8 -22 -15 -36 -16 l-25 -3 25 15 25 14 -33 -3 c-19 -1 -38
-9 -43 -17 -7 -11 -9 -10 -9 6 0 17 -2 17 -10 5 -7 -11 -10 -11 -10 -2 0 10
-5 10 -20 2 -11 -6 -18 -16 -15 -23 4 -7 0 -4 -8 6 -10 12 -16 14 -19 6 -5
-16 -76 -18 -116 -3 -18 7 -33 13 -35 13 -17 -2 -103 40 -117 56 -7 8 -16 12
-21 9 -5 -3 -9 3 -9 12 0 10 -3 14 -7 11 -3 -4 -11 0 -17 7 -6 8 -24 17 -41
19 -48 8 -133 43 -214 90 -42 24 -152 77 -246 117 -93 41 -511 244 -928 452
-416 208 -767 378 -780 378 -12 0 -56 -21 -97 -45 l-75 -46 -3 426 -2 426 -21
-12 c-11 -6 -23 -8 -26 -6 -2 3 -7 69 -11 147 l-7 143 -35 -74z"/>
<path d="M9119 7929 c-19 -36 -42 -65 -56 -70 -12 -4 -35 -32 -50 -60 -42 -79
-74 -107 -258 -230 -93 -63 -175 -118 -181 -124 -6 -5 -22 -17 -34 -25 -13 -8
-32 -23 -42 -32 -10 -10 -18 -16 -18 -13 0 3 -9 -3 -19 -12 -11 -9 -17 -21
-14 -26 4 -6 0 -8 -9 -4 -21 8 -55 -28 -37 -39 7 -4 10 -3 5 4 -3 6 -2 13 4
17 5 3 10 1 10 -6 0 -6 8 -9 20 -6 11 3 20 1 20 -5 0 -6 8 -2 18 9 9 10 14 14
9 7 -13 -21 22 -24 36 -4 16 22 28 17 20 -8 -4 -14 -3 -15 5 -2 6 8 8 19 6 25
-3 5 2 1 10 -9 14 -18 16 -18 16 -3 0 10 -10 22 -22 27 -14 5 -17 9 -7 9 8 1
21 -5 28 -11 11 -11 14 -10 18 0 3 6 9 9 14 6 6 -3 16 -1 24 6 11 9 12 7 8
-12 -5 -23 -5 -23 12 -3 11 14 15 15 12 4 -4 -11 2 -15 23 -15 16 0 29 2 28 5
-2 20 4 44 9 34 2 -7 9 -13 14 -13 6 0 8 4 5 9 -3 5 3 11 14 14 11 3 20 1 20
-4 0 -5 -4 -9 -10 -9 -5 0 -10 -4 -10 -8 0 -4 9 -8 19 -8 11 0 17 4 14 8 -2 5
7 7 21 4 19 -3 23 -1 19 11 -5 13 -3 13 15 4 18 -10 21 -9 15 5 -5 14 -3 15
15 5 26 -14 35 -14 27 -1 -3 6 -2 10 4 10 5 0 12 -6 15 -12 4 -7 4 -3 2 10 -6
33 20 28 38 -8 9 -19 10 -28 3 -23 -7 4 -5 -1 3 -12 13 -16 15 -123 11 -864
-1 -465 -5 -880 -7 -921 -2 -41 -4 -84 -4 -94 -1 -11 -5 -27 -10 -36 -6 -10
-5 -21 1 -27 6 -6 5 -14 -6 -23 -8 -7 -15 -20 -15 -29 -1 -13 -3 -13 -15 3 -8
11 -18 17 -21 13 -4 -3 -27 8 -51 24 -32 22 -43 36 -38 47 5 14 4 15 -6 5 -18
-18 -29 -16 -29 3 0 13 -3 14 -14 5 -10 -9 -15 -8 -20 4 -3 8 -15 15 -26 15
-14 0 -20 7 -20 23 0 14 -3 18 -8 10 -7 -10 -14 -10 -35 0 -28 13 -38 33 -11
23 8 -3 12 -2 9 4 -3 6 -17 7 -31 4 -13 -4 -24 -2 -24 4 0 5 -13 15 -30 21
-16 5 -30 15 -30 20 0 6 -3 10 -7 10 -21 -3 -26 2 -13 12 12 8 10 9 -9 4 -17
-5 -22 -4 -16 5 5 9 4 11 -4 6 -12 -8 -81 32 -81 46 0 4 -7 5 -15 2 -8 -4 -15
-1 -15 5 0 6 -7 11 -15 11 -8 0 -14 6 -13 13 2 6 -3 11 -9 9 -7 -1 -13 3 -13
9 0 5 -4 7 -10 4 -5 -3 -10 -1 -10 4 0 6 -9 11 -20 11 -11 0 -23 7 -26 15 -4
8 -10 13 -14 10 -4 -3 -13 2 -20 10 -7 8 -17 12 -23 8 -6 -4 -8 0 -4 9 4 12 1
14 -15 10 -14 -3 -19 -1 -15 6 4 6 0 9 -10 7 -10 -1 -24 2 -30 8 -9 6 -13 6
-13 -2 0 -6 -3 -10 -7 -10 -25 4 -41 -5 -57 -32 -10 -16 -33 -38 -52 -46 -19
-9 -34 -19 -34 -22 0 -3 22 -20 49 -38 30 -19 51 -41 53 -54 5 -33 972 -624
976 -597 3 17 8 16 58 -12 l54 -31 0 1510 c0 831 -2 1511 -4 1511 -3 0 -19
-27 -37 -61z m-409 -585 c0 -8 -19 -13 -24 -6 -3 5 1 9 9 9 8 0 15 -2 15 -3z"/>
<path d="M5776 7569 c3 -6 -6 -7 -23 -4 -19 5 -24 4 -14 -3 10 -7 10 -11 1
-14 -8 -2 -7 -8 6 -18 10 -8 15 -10 11 -4 -4 7 7 18 26 28 17 8 30 16 27 17
-33 6 -39 6 -34 -2z"/>
<path d="M4787 7535 c-15 -19 -43 -41 -61 -49 -18 -8 -45 -29 -59 -48 -23 -30
-26 -44 -29 -131 -1 -53 -7 -97 -11 -97 -5 0 -7 -9 -4 -20 3 -11 1 -18 -4 -14
-5 3 -9 -2 -9 -12 0 -11 -6 -15 -20 -11 -28 7 -47 -19 -32 -44 10 -16 9 -19
-4 -19 -8 0 -13 4 -10 8 2 4 1 14 -3 21 -6 9 -11 1 -15 -23 -4 -21 -11 -34
-17 -30 -6 4 -6 10 1 19 9 11 5 13 -22 9 -49 -7 -60 -13 -52 -25 4 -7 3 -9 -4
-5 -6 3 -13 2 -17 -4 -7 -11 -25 -4 -25 10 0 5 7 7 15 4 10 -4 15 0 15 15 0
12 -4 21 -10 21 -5 0 -7 -6 -4 -13 3 -10 -5 -13 -35 -10 -22 1 -43 -2 -47 -8
-3 -6 1 -10 12 -9 29 3 44 1 43 -7 -4 -22 2 -33 14 -27 9 5 9 4 0 -6 -12 -13
-37 -5 -28 10 12 19 -46 23 -74 6 -10 -6 -12 -5 -7 2 4 7 2 12 -3 12 -6 0 -11
-4 -11 -10 0 -5 -4 -10 -10 -10 -5 0 -7 7 -4 15 4 8 1 15 -5 15 -6 0 -10 -6
-9 -12 2 -7 -3 -12 -10 -10 -6 1 -11 -1 -11 -5 4 -22 -3 -24 -21 -8 -18 16
-20 17 -26 1 -4 -10 -13 -15 -23 -12 -13 5 -13 4 2 -8 19 -14 23 -46 6 -46 -5
0 -8 4 -5 9 4 5 -5 4 -19 -2 -14 -7 -23 -18 -20 -24 2 -7 -2 -13 -10 -13 -8 0
-15 7 -15 15 0 12 -3 13 -19 3 -11 -7 -17 -16 -14 -22 3 -5 1 -6 -6 -2 -6 4
-20 2 -29 -6 -15 -12 -16 -11 -4 4 12 15 11 17 -10 15 -23 -2 -70 -37 -50 -37
12 0 10 -25 -2 -37 -4 -4 -6 -1 -4 7 2 8 -2 14 -8 13 -7 -1 -10 6 -7 17 3 11
0 20 -6 20 -5 0 -8 7 -5 15 4 8 2 15 -4 15 -15 0 -33 -26 -24 -35 4 -5 -1 -5
-10 -2 -10 3 -17 3 -16 -1 2 -13 -14 -42 -24 -42 -5 0 -6 6 -1 13 20 32 9 37
-17 7 -16 -19 -27 -37 -25 -40 2 -3 -6 -6 -18 -7 -12 0 -16 1 -9 4 6 3 10 9 6
14 -6 11 -35 12 -33 2 3 -20 -2 -33 -12 -33 -8 0 -8 4 0 14 8 10 9 16 1 21 -6
3 -7 11 -4 17 4 6 -1 6 -14 -1 -14 -7 -23 -8 -27 -1 -7 12 -25 4 -25 -11 0 -6
4 -8 9 -4 5 3 12 1 16 -4 3 -6 -8 -17 -25 -26 -20 -10 -30 -12 -30 -4 0 8 -6
7 -17 -2 -16 -13 -17 -12 -5 3 7 9 21 15 31 13 14 -2 16 2 13 26 -2 16 -5 29
-7 29 -1 0 -12 -9 -25 -20 -13 -11 -19 -20 -14 -20 5 0 3 -4 -5 -9 -19 -12
-44 -2 -33 13 13 16 11 47 -2 43 -6 -2 -10 -11 -10 -20 1 -9 -2 -14 -7 -11 -5
3 -9 13 -9 23 0 45 -54 41 -62 -4 -2 -15 2 -20 17 -18 19 1 19 1 3 -11 -10 -7
-15 -16 -11 -19 3 -4 1 -7 -5 -7 -7 0 -12 9 -12 20 0 24 -13 26 -30 5 -12 -14
-15 -14 -30 0 -9 8 -20 12 -25 8 -4 -5 -5 -2 -1 5 7 11 11 11 24 -1 15 -13 19
-13 30 -1 10 11 10 14 -1 14 -23 0 -60 37 -51 52 5 10 4 10 -6 1 -10 -10 -11
-15 -1 -27 7 -9 8 -16 2 -20 -5 -4 -12 3 -16 14 -6 18 -17 24 -37 21 -5 0 -8
3 -8 7 0 5 -7 9 -16 9 -15 0 -15 -1 0 -12 22 -16 20 -25 -5 -25 -13 0 -18 4
-13 12 4 6 3 8 -4 4 -5 -3 -12 0 -15 6 -3 7 -10 0 -16 -16 -7 -16 -9 -36 -7
-43 3 -8 1 -11 -4 -8 -6 3 -10 -3 -10 -14 0 -11 -5 -23 -11 -27 -13 -8 -30 16
-22 30 3 5 1 6 -5 2 -5 -3 -13 0 -15 6 -3 8 -6 6 -6 -4 -1 -10 4 -18 9 -18 6
0 10 -5 10 -11 0 -5 -4 -7 -10 -4 -5 3 -10 -1 -10 -9 0 -9 -5 -16 -11 -16 -6
0 -9 17 -7 43 2 32 0 41 -11 39 -11 -2 -10 2 3 22 12 20 13 24 2 20 -8 -3 -16
2 -19 13 -4 16 -6 16 -12 -4 -10 -30 -35 -18 -29 13 4 22 2 23 -9 12 -16 -15
-16 -40 1 -46 6 -2 8 -10 5 -18 -6 -17 -25 -19 -21 -1 2 13 -23 57 -33 57 -4
0 -5 -10 -1 -22 3 -14 2 -19 -6 -14 -7 4 -12 14 -12 22 0 9 -5 12 -12 8 -7 -4
-8 -3 -4 4 4 7 16 12 26 12 10 0 21 4 25 9 3 6 -4 8 -17 5 -32 -8 -40 -7 -60
1 -13 5 -18 3 -18 -8 0 -8 -6 -18 -12 -20 -10 -4 -10 -6 0 -6 7 -1 10 -5 7
-11 -10 -16 -26 -11 -24 8 3 34 -1 42 -22 42 -11 0 -18 -4 -14 -9 3 -5 1 -12
-5 -16 -5 -3 -10 -2 -10 4 0 5 -3 17 -7 27 -4 12 -3 15 5 10 7 -4 12 -5 12 -2
0 3 -9 10 -20 16 -18 10 -19 9 -10 -15 13 -33 13 -36 -2 -33 -7 2 -12 -2 -11
-8 1 -6 -5 -11 -12 -11 -11 0 -12 4 -4 14 9 10 4 16 -21 26 -28 12 -30 16 -17
29 13 13 13 16 -2 25 -24 15 -51 -1 -33 -19 6 -6 12 -17 12 -23 0 -5 -5 -3
-10 5 -9 13 -10 13 -11 0 -1 -8 -1 -19 0 -23 1 -5 -4 -5 -10 -1 -7 4 -18 -1
-26 -11 -16 -23 -16 -20 2 30 8 22 14 34 15 28 0 -7 5 -13 11 -13 8 0 8 4 -1
15 -9 11 -16 12 -30 3 -10 -7 -17 -16 -14 -20 3 -4 -2 -5 -10 -2 -9 3 -16 10
-16 16 0 5 5 6 10 3 6 -3 10 -1 10 4 0 6 -11 11 -24 11 -18 0 -23 4 -19 18 3
14 -2 18 -21 18 -14 0 -26 -4 -26 -8 0 -15 -19 -8 -23 10 -4 14 -5 14 -6 -3
-1 -16 -3 -17 -10 -6 -8 12 -12 12 -25 2 -21 -18 -18 -140 4 -159 8 -8 9 -11
3 -7 -16 8 -16 0 -2 -26 6 -12 15 -17 22 -12 7 4 18 8 26 10 10 1 11 -1 2 -10
-17 -17 -13 -26 9 -20 22 6 53 -14 44 -28 -3 -5 -13 -5 -24 1 -10 5 -25 10
-32 9 -7 0 -3 -4 10 -10 13 -5 20 -13 17 -19 -4 -6 -3 -9 2 -8 7 3 13 -5 13
-17 0 -3 -9 -1 -19 5 -14 7 -22 7 -26 0 -4 -6 -3 -10 2 -9 29 5 35 -2 30 -33
-6 -32 -5 -32 6 -8 6 14 14 27 18 30 8 7 24 53 21 63 -1 5 2 6 8 2 6 -3 8 -11
5 -16 -4 -5 -1 -9 5 -9 7 0 9 -8 5 -19 -6 -20 20 -38 30 -20 4 5 3 8 -2 7 -12
-4 -13 13 -4 47 7 22 10 25 11 10 1 -11 3 -24 5 -30 1 -5 3 -15 3 -22 1 -6 11
-9 22 -6 16 4 20 0 21 -18 0 -14 3 -18 6 -9 2 8 7 22 10 30 4 8 5 18 5 23 -1
4 3 7 9 7 6 0 9 -8 6 -19 -3 -14 0 -17 15 -13 15 4 17 7 6 14 -10 8 -10 9 2 5
14 -3 21 -23 12 -40 -2 -4 -9 -4 -15 0 -20 12 -38 12 -34 0 2 -7 16 -12 31
-11 17 0 25 -4 22 -12 -3 -8 1 -11 10 -7 9 3 14 -1 14 -12 0 -9 -4 -14 -9 -10
-5 3 -12 2 -15 -3 -2 -4 4 -9 15 -9 18 -2 44 29 33 39 -2 3 5 5 16 4 11 0 20
-4 20 -8 0 -5 0 -13 0 -19 0 -8 -5 -8 -15 1 -10 9 -15 9 -15 1 0 -6 4 -11 9
-11 6 0 8 -9 6 -19 -3 -14 1 -18 12 -14 12 5 12 7 1 14 -12 8 -4 13 15 10 4 0
7 6 7 14 0 8 7 15 16 15 10 0 14 -6 11 -14 -3 -8 0 -22 7 -32 10 -13 15 -14
21 -4 6 9 4 11 -5 5 -10 -6 -12 -1 -7 24 5 23 3 33 -8 38 -13 5 -13 7 2 18 12
9 22 10 34 2 16 -10 16 -12 1 -23 -9 -7 -14 -16 -10 -20 5 -4 16 1 27 10 18
16 19 16 17 -1 0 -10 6 -18 14 -18 8 0 14 6 12 13 -1 8 2 11 9 6 6 -3 16 0 21
7 8 11 9 11 5 -2 -3 -9 0 -22 6 -28 8 -8 7 -11 -4 -11 -12 0 -12 -2 0 -9 13
-8 17 -47 9 -80 -2 -7 3 -16 11 -19 11 -3 12 2 8 24 -3 16 -4 23 -1 16 3 -6
11 -9 17 -5 7 4 8 0 3 -12 -5 -15 -4 -16 9 -5 20 16 19 6 -1 -14 -14 -15 -14
-16 0 -16 9 0 16 5 16 11 0 5 5 7 12 3 7 -4 8 -3 4 4 -4 7 -2 12 4 12 7 0 10
6 8 12 -3 7 1 18 8 25 6 7 11 30 10 52 -1 22 2 38 6 35 4 -3 8 -15 9 -27 0
-12 3 -16 6 -9 2 6 9 12 15 12 6 0 7 -7 4 -16 -5 -13 -2 -15 14 -11 15 4 19 2
13 -7 -4 -6 0 -3 10 7 9 11 17 15 17 11 0 -5 8 4 19 19 15 23 20 25 24 13 4
-10 1 -16 -7 -16 -8 0 -16 -9 -19 -21 -4 -15 -2 -19 10 -15 8 3 17 6 19 6 3 0
2 5 -1 10 -3 6 -2 10 4 10 5 0 12 -6 14 -12 4 -10 6 -10 6 0 1 17 21 15 45 -5
12 -10 9 -4 -6 13 -25 26 -26 30 -9 30 11 0 18 -3 15 -7 -2 -4 3 -12 11 -19
13 -11 14 -10 10 3 -4 8 -2 18 3 21 5 3 10 0 9 -7 0 -6 1 -23 2 -37 2 -25 2
-25 15 5 9 21 10 32 2 37 -7 5 -4 8 7 8 10 0 16 4 13 9 -3 5 2 15 12 22 15 12
15 12 6 -1 -17 -21 5 -40 33 -29 23 9 40 29 24 29 -6 0 -11 7 -11 16 0 13 2
13 13 2 8 -7 19 -23 26 -35 7 -14 17 -20 27 -16 8 3 13 8 10 11 -5 4 31 42 40
42 1 0 0 -10 -3 -22 -5 -23 -5 -23 10 -3 16 19 16 19 11 -7 -2 -16 0 -28 6
-28 9 0 14 14 11 33 -1 5 9 5 21 1 22 -6 22 -6 5 13 -14 16 -15 20 -2 20 8 0
13 -3 10 -5 -3 -3 0 -11 7 -19 9 -11 7 -15 -10 -20 -31 -8 -27 -21 4 -15 20 4
25 9 22 31 -2 18 2 26 12 26 22 1 41 15 35 26 -4 5 2 9 11 9 13 0 15 -3 7 -11
-6 -6 -9 -18 -6 -27 4 -9 2 -13 -4 -9 -5 3 -10 0 -10 -8 0 -11 5 -12 19 -4 12
7 17 17 14 26 -5 13 -4 14 8 4 12 -10 15 -8 19 11 4 17 5 16 4 -6 -3 -39 26
-58 50 -33 13 13 15 20 5 29 -7 7 -12 8 -12 2 0 -6 -7 -11 -16 -11 -15 0 -15
2 -1 12 14 10 14 12 -1 21 -13 9 -14 12 -1 19 8 4 11 5 7 0 -10 -11 29 -38 42
-30 6 4 7 -1 3 -12 -6 -16 -5 -16 10 -4 18 14 22 36 10 44 -5 2 -2 2 5 1 6 -2
12 2 12 8 0 6 3 9 6 5 3 -3 18 -1 32 4 22 8 23 8 12 -6 -7 -8 -15 -13 -19 -11
-4 3 -13 1 -21 -5 -12 -7 -12 -9 3 -9 10 0 16 -4 13 -9 -4 -5 5 -4 19 2 14 7
25 18 25 25 0 7 8 12 18 10 9 -2 16 2 15 7 -2 15 40 17 49 3 11 -19 -2 -29
-23 -18 -14 8 -19 7 -19 -1 0 -6 -6 -9 -14 -6 -17 7 -15 -10 3 -38 9 -15 11
-15 7 -3 -3 10 -1 20 4 23 6 4 10 1 10 -5 0 -7 7 -5 16 4 8 9 20 14 24 11 5
-3 19 8 31 25 22 29 48 43 33 18 -6 -9 -3 -9 9 1 12 10 14 18 7 31 -7 13 -6
19 5 23 9 4 12 1 9 -7 -3 -9 3 -13 18 -12 13 1 26 -2 29 -7 4 -5 15 -4 25 1
11 6 27 13 37 16 10 3 15 11 11 17 -5 8 -9 8 -14 -1 -4 -7 -15 -10 -24 -7 -11
4 -16 1 -16 -10 0 -13 -3 -13 -15 -3 -8 7 -15 20 -15 29 0 13 -2 13 -9 2 -5
-8 -11 -9 -15 -3 -3 5 1 13 10 16 26 10 36 7 31 -8 -4 -10 1 -14 16 -14 27 2
49 17 41 29 -3 5 0 17 6 26 11 17 11 17 6 1 -3 -10 0 -18 6 -18 6 0 17 -8 24
-17 12 -15 13 -16 8 -2 -3 10 0 20 7 25 8 4 10 3 5 -4 -5 -8 2 -11 19 -10 24
2 25 3 8 16 -13 10 -14 16 -5 19 6 3 10 9 6 14 -3 5 -1 9 5 9 5 0 13 -5 16
-10 4 -7 12 -7 25 0 25 13 33 13 24 -2 -5 -9 -2 -8 10 1 13 11 14 16 4 22 -6
4 -17 5 -23 1 -16 -10 -36 -11 -29 -1 3 5 -3 9 -13 9 -15 0 -16 2 -3 10 8 5
17 6 20 2 9 -13 30 -12 30 0 0 8 3 9 8 3 4 -5 15 -16 24 -23 15 -12 17 -11 13
7 -2 12 0 21 6 21 5 0 9 -6 10 -12 0 -7 3 -5 7 4 5 11 12 14 20 9 16 -10 25
-117 26 -321 0 -106 -3 -142 -16 -167 -9 -19 -12 -35 -7 -39 12 -7 11 -34 -2
-34 -5 0 -8 4 -4 9 3 5 0 13 -6 17 -8 4 -9 3 -5 -4 4 -7 1 -12 -6 -12 -7 -1
-2 -7 11 -14 l24 -13 -24 -14 c-13 -7 -29 -12 -36 -11 -6 1 -15 -3 -19 -9 -5
-8 2 -10 24 -7 21 3 29 1 24 -6 -5 -6 -8 -18 -7 -26 0 -8 -9 -18 -20 -22 -18
-5 -18 -6 3 -7 21 -1 22 -3 8 -16 -15 -16 -41 -21 -32 -7 2 4 1 14 -5 22 -7
12 -9 11 -9 -5 0 -17 -2 -17 -10 -5 -5 8 -10 10 -10 5 0 -6 6 -17 13 -24 8 -9
8 -12 0 -7 -6 3 -14 0 -16 -6 -4 -10 -6 -10 -6 0 -1 6 -9 12 -18 12 -15 0 -16
2 -3 10 13 8 12 10 -4 10 -12 0 -16 -5 -13 -15 4 -8 2 -17 -4 -21 -7 -4 -7
-10 0 -18 8 -9 7 -13 -4 -13 -7 0 -14 3 -13 6 3 28 -4 42 -17 37 -17 -6 -20
11 -6 33 12 18 56 27 45 9 -6 -10 -4 -10 8 0 8 7 23 10 32 6 9 -3 16 -1 16 5
0 6 5 10 11 8 6 -1 14 5 16 13 3 9 1 11 -4 5 -11 -14 -33 -17 -33 -5 0 6 6 10
14 10 8 0 13 8 11 18 -4 26 4 33 26 22 13 -8 19 -7 19 0 0 6 -13 13 -30 16
-18 4 -27 11 -23 18 4 6 -1 5 -10 -3 -21 -16 -22 -32 -3 -25 11 4 13 0 9 -15
-4 -17 -9 -19 -25 -10 -11 6 -22 8 -26 5 -3 -3 0 -6 6 -6 7 0 4 -8 -6 -18 -11
-11 -30 -18 -43 -16 -13 1 -24 3 -24 4 0 1 -10 3 -22 6 -13 2 -23 0 -23 -5 0
-5 10 -8 22 -7 15 1 24 -5 26 -19 2 -15 1 -16 -6 -7 -12 18 -23 17 -34 -2 -5
-9 -14 -13 -20 -10 -6 4 -3 -7 8 -24 15 -26 16 -34 5 -44 -7 -7 -12 -8 -11 -3
5 23 -1 34 -16 28 -8 -3 -13 -12 -10 -19 3 -8 0 -11 -10 -7 -16 6 -18 19 -4
28 6 4 8 15 5 25 -3 10 1 25 10 34 15 14 15 16 1 16 -9 0 -16 -7 -16 -15 0 -8
-5 -15 -11 -15 -8 0 -7 -5 2 -16 11 -14 11 -18 -4 -29 -9 -6 -14 -15 -11 -18
3 -3 -2 -4 -12 -3 -10 2 -20 9 -22 16 -3 7 0 10 5 7 5 -3 15 -2 23 4 12 7 10
9 -8 9 -13 0 -21 4 -17 9 3 6 -5 15 -17 22 -22 12 -22 12 -5 -15 13 -19 14
-26 5 -26 -7 0 -1 -11 13 -24 l27 -23 -53 1 c-46 1 -52 3 -42 16 10 12 9 13
-3 4 -8 -5 -21 -10 -27 -10 -15 1 -18 21 -4 21 5 0 13 3 16 7 4 4 -4 5 -18 2
-18 -3 -27 1 -30 13 -4 14 -5 13 -6 -4 -1 -24 -25 -31 -37 -11 -5 8 -2 9 9 5
10 -3 17 -2 17 3 0 12 -20 13 -38 1 -11 -7 -11 -9 2 -14 21 -8 18 -74 -4 -73
-9 1 -14 -7 -13 -18 1 -13 -2 -15 -10 -7 -7 7 -5 16 8 31 25 27 26 41 3 63
-10 9 -18 13 -18 7 0 -5 -7 -10 -15 -10 -8 0 -15 5 -15 11 0 19 -26 -15 -34
-44 -4 -19 -3 -27 7 -27 7 0 21 -6 31 -13 17 -13 18 -14 2 -20 -10 -4 -15 -3
-11 3 7 12 -35 31 -49 22 -5 -3 -6 0 -3 5 4 6 -1 14 -10 17 -15 6 -15 8 -3 16
9 6 17 5 21 -1 3 -6 6 3 5 20 l-1 30 -23 -22 c-13 -12 -27 -21 -30 -20 -4 1
-9 -1 -11 -3 -2 -2 1 -4 6 -4 17 0 9 -31 -10 -42 -11 -6 -17 -5 -17 1 0 5 8
12 18 14 16 4 16 5 0 6 -22 1 -23 20 -2 49 8 12 11 22 6 22 -6 0 -12 -7 -16
-15 -3 -8 -11 -14 -18 -13 -6 2 -13 -6 -15 -17 l-3 -20 9 20 c7 13 10 15 10 5
0 -8 -6 -24 -14 -34 -14 -18 -13 -21 12 -32 l28 -11 -27 1 c-31 1 -44 22 -27
42 9 11 7 14 -9 14 -11 0 -22 -6 -25 -12 -3 -7 -3 4 -2 24 3 35 2 37 -18 25
-12 -7 -26 -18 -30 -25 -4 -7 -19 -10 -32 -8 -14 3 -38 1 -55 -4 -18 -5 -32
-5 -36 1 -4 6 -10 6 -18 0 -7 -6 -16 -8 -19 -4 -4 3 -7 1 -7 -7 0 -10 -3 -10
-14 -1 -10 9 -16 9 -21 1 -5 -8 -14 -6 -28 7 -19 16 -20 16 -8 1 10 -13 10
-18 2 -18 -7 0 -9 -5 -6 -10 4 -6 11 -7 17 -4 6 4 9 1 6 -6 -2 -8 -14 -14 -26
-15 -16 -1 -22 4 -22 20 0 14 -7 21 -22 22 -21 2 -22 1 -5 -11 27 -21 20 -26
-14 -9 -25 12 -33 13 -42 3 -7 -7 -7 -10 -2 -7 6 3 22 -3 35 -13 25 -19 25
-19 3 -17 -13 1 -23 7 -23 14 0 7 -7 10 -15 7 -18 -7 -43 16 -38 36 4 13 3 13
-6 0 -5 -8 -8 -17 -5 -21 5 -9 -18 -17 -34 -12 -6 3 -10 8 -7 12 2 5 -7 13
-20 19 -27 13 -45 -2 -26 -21 8 -8 11 -8 11 2 0 7 5 9 10 6 6 -3 10 -12 10
-20 0 -10 -7 -11 -27 -6 -16 4 -28 13 -28 19 0 6 -6 17 -14 24 -8 7 -11 8 -8
2 4 -7 -4 -19 -18 -28 -19 -12 -24 -23 -21 -42 3 -14 1 -22 -5 -19 -5 4 -9 -1
-9 -10 0 -9 -4 -13 -10 -10 -5 3 -10 1 -10 -4 0 -6 -5 -11 -11 -11 -5 0 -7 5
-4 10 3 6 1 10 -4 10 -6 0 -11 9 -11 20 0 17 -3 19 -19 10 -11 -5 -22 -20 -24
-32 -3 -13 -5 2 -4 33 0 30 -3 62 -8 69 -5 9 -4 11 3 6 12 -7 13 -5 16 56 0
20 4 40 8 43 4 4 3 16 -3 26 -5 11 -6 19 -1 19 5 0 8 10 7 23 -1 12 2 28 8 35
16 20 3 23 -23 5 -22 -16 -23 -17 -4 -25 15 -6 13 -7 -6 -3 -14 3 -31 7 -38 9
-8 1 -17 8 -22 15 -4 8 -10 9 -14 3 -3 -5 1 -13 10 -16 8 -3 12 -11 9 -16 -5
-8 -11 -7 -21 1 -17 14 -18 45 -1 53 8 4 7 5 -3 5 -38 -3 -51 1 -44 14 5 9 4
9 -6 0 -13 -12 -5 -37 10 -28 5 3 12 0 16 -6 5 -8 3 -9 -6 -4 -10 6 -12 4 -7
-8 3 -10 2 -17 -4 -17 -6 0 -7 -5 -3 -12 4 -6 3 -8 -4 -5 -5 4 -8 17 -4 29 3
13 1 19 -6 15 -6 -5 -9 2 -7 18 1 16 -3 25 -12 25 -8 0 -11 5 -8 10 4 6 11 8
16 5 5 -4 9 1 9 9 0 14 -3 14 -20 4 -12 -8 -18 -19 -15 -30 3 -9 1 -19 -5 -23
-6 -3 -7 -11 -4 -17 5 -7 2 -8 -5 -3 -7 4 -11 18 -8 31 5 27 -17 52 -29 33 -4
-8 -3 -9 4 -5 17 11 14 -3 -4 -22 -21 -21 -50 -27 -34 -7 17 21 2 39 -18 23
-12 -10 -14 -10 -8 0 4 7 1 12 -8 12 -9 0 -16 5 -16 11 0 5 -4 8 -9 4 -5 -3
-12 3 -16 14 -3 11 -13 22 -22 25 -12 5 -13 3 -5 -7 8 -10 6 -16 -11 -27 -20
-12 -21 -12 -9 2 10 13 10 17 -3 22 -10 3 -15 -1 -16 -12 0 -10 -3 -12 -6 -5
-3 8 -14 11 -29 7 -20 -5 -23 -3 -17 12 4 12 3 15 -5 10 -7 -4 -12 -15 -12
-24 0 -14 -2 -14 -9 -3 -9 14 -31 7 -31 -10 0 -6 5 -7 10 -4 6 3 10 1 10 -5 0
-6 4 -8 10 -5 6 3 7 -1 3 -10 -4 -12 -8 -13 -13 -4 -5 6 -15 9 -24 6 -8 -3
-18 -2 -21 3 -4 6 -2 10 2 10 13 0 13 39 1 46 -7 5 -9 1 -5 -9 3 -10 2 -17 -2
-17 -5 0 -8 -6 -7 -12 3 -25 17 -37 34 -31 13 4 11 0 -5 -16 -21 -20 -28 -35
-20 -44 1 -2 -3 -10 -9 -18 -12 -15 -15 -1046 -4 -1364 3 -93 2 -228 -3 -300
-9 -125 -10 -133 -49 -204 l-40 -74 48 27 c32 18 50 23 54 15 10 -16 2174
1461 2178 1487 1 10 27 36 57 57 l55 38 0 720 c0 395 -1 719 -2 719 -2 0 -16
-16 -31 -35z m-202 -413 c-8 -8 -25 10 -19 20 4 6 9 5 15 -3 4 -7 6 -15 4 -17z
m-120 -52 c3 -5 1 -10 -4 -10 -6 0 -11 5 -11 10 0 6 2 10 4 10 3 0 8 -4 11
-10z m105 0 c0 -5 -5 -10 -11 -10 -5 0 -7 5 -4 10 3 6 8 10 11 10 2 0 4 -4 4
-10z m-1785 -30 c3 -5 1 -10 -4 -10 -6 0 -11 5 -11 10 0 6 2 10 4 10 3 0 8 -4
11 -10z m1449 -17 c9 12 14 16 10 8 -5 -10 -1 -11 16 -6 16 5 21 4 18 -6 -3
-8 -15 -13 -29 -11 -23 3 -23 3 -5 -11 15 -11 16 -16 6 -22 -9 -5 -11 -4 -6 3
5 8 0 12 -13 12 -12 0 -23 -1 -24 -2 -10 -8 -35 26 -30 39 5 14 9 13 24 -5
l17 -22 16 23z m86 -3 c-18 -12 -30 -13 -30 -2 0 4 10 9 22 9 18 2 20 0 8 -7z
m125 -20 c-3 -5 -14 -10 -23 -9 -14 0 -13 2 3 9 27 11 27 11 20 0z m-25 -30
c0 -5 -2 -10 -4 -10 -3 0 -8 5 -11 10 -3 6 -1 10 4 10 6 0 11 -4 11 -10z
m-1430 -10 c0 -5 -2 -10 -4 -10 -3 0 -8 5 -11 10 -3 6 -1 10 4 10 6 0 11 -4
11 -10z m927 -17 c-4 -3 -2 -12 4 -19 7 -8 7 -14 -1 -19 -6 -3 -7 -12 -3 -18
4 -7 -2 -5 -12 3 -17 14 -18 13 -12 -2 3 -10 2 -18 -3 -18 -15 0 -12 26 5 40
8 6 14 15 13 18 -1 13 2 22 9 22 3 0 3 -3 0 -7z m-383 -33 c-6 -6 -10 -2 -11
12 -2 16 1 18 10 9 7 -7 8 -14 1 -21z m-229 -18 c-6 -7 -35 18 -35 31 0 5 9 2
20 -8 11 -10 18 -20 15 -23z m60 27 c11 -16 13 -59 4 -53 -5 3 -9 13 -9 23 0
9 -5 22 -12 29 -9 9 -9 12 -1 12 7 0 15 -5 18 -11z m630 1 c3 -5 -1 -10 -10
-10 -9 0 -13 5 -10 10 3 6 8 10 10 10 2 0 7 -4 10 -10z m248 -1 c-6 -6 -9 -18
-6 -25 3 -8 0 -14 -6 -14 -6 0 -11 4 -11 9 0 19 12 41 23 41 8 0 8 -3 0 -11z
m-908 -19 c3 -5 1 -10 -4 -10 -6 0 -11 5 -11 10 0 6 2 10 4 10 3 0 8 -4 11
-10z m850 -20 c3 -5 1 -10 -4 -10 -6 0 -11 5 -11 10 0 6 2 10 4 10 3 0 8 -4
11 -10z m-644 -27 c13 -16 12 -17 -3 -4 -10 7 -18 15 -18 17 0 8 8 3 21 -13z
m649 -13 c-12 -22 -21 -26 -17 -7 2 10 17 26 25 27 1 0 -2 -9 -8 -20z m-974
-43 c1 -9 -2 -15 -7 -11 -5 3 -7 9 -4 14 3 4 0 11 -5 13 -6 3 -5 4 1 3 7 -1
13 -10 15 -19z m-449 -3 c-3 -3 -12 -4 -19 -1 -8 3 -5 6 6 6 11 1 17 -2 13 -5z
m123 2 c0 -2 -7 -6 -15 -10 -8 -3 -15 -1 -15 4 0 6 7 10 15 10 8 0 15 -2 15
-4z m67 -22 c0 -7 -5 -10 -10 -7 -5 3 -13 0 -17 -7 -5 -8 -9 -7 -13 5 -4 9 -3
13 3 10 6 -3 10 -2 10 3 0 5 6 9 13 9 8 0 14 -6 14 -13z m-77 -19 c0 -8 -4
-15 -10 -15 -5 0 -7 7 -4 15 4 8 8 15 10 15 2 0 4 -7 4 -15z m-153 -217 c-3
-8 -6 -5 -6 6 -1 11 2 17 5 13 3 -3 4 -12 1 -19z m60 -44 c-3 -3 -12 -4 -19
-1 -8 3 -5 6 6 6 11 1 17 -2 13 -5z m281 -64 c4 0 8 -13 9 -30 2 -22 -1 -28
-13 -23 -8 3 -20 1 -27 -4 -6 -6 -21 -13 -31 -17 -16 -5 -17 -4 -6 9 7 9 15
13 18 11 2 -3 11 2 19 10 8 8 20 11 26 8 7 -4 3 2 -8 13 -11 11 -24 18 -29 15
-5 -3 -6 0 -2 7 5 7 15 10 23 7 8 -3 18 -6 21 -6z m-194 -33 c7 -6 6 -7 -4 -4
-8 2 -16 12 -17 23 -2 13 -1 15 4 4 3 -8 11 -19 17 -23z m99 18 c-3 -9 -8 -14
-10 -11 -3 3 -2 9 2 15 9 16 15 13 8 -4z m1537 1 c0 -2 -7 -6 -15 -10 -8 -3
-15 -1 -15 4 0 6 7 10 15 10 8 0 15 -2 15 -4z m-1480 -10 c0 -3 -4 -8 -10 -11
-5 -3 -10 -1 -10 4 0 6 5 11 10 11 6 0 10 -2 10 -4z m1373 -49 c3 -8 -3 -14
-14 -14 -10 -1 -19 3 -19 8 0 6 5 7 10 4 6 -3 10 -1 10 4 0 15 7 14 13 -2z
m-1363 -13 c0 -8 -19 -13 -24 -6 -3 5 1 9 9 9 8 0 15 -2 15 -3z m1398 -50 c0
-18 -3 -22 -9 -13 -6 11 -9 10 -15 -4 -3 -9 -10 -17 -16 -17 -5 0 -6 5 -2 12
5 8 2 9 -10 5 -11 -4 -15 -3 -11 4 4 6 13 8 20 5 8 -3 19 2 27 11 11 14 10 15
-10 9 -12 -4 -22 -4 -22 1 0 5 11 10 24 11 19 1 24 -3 24 -24z m-399 9 c12 9
13 9 7 0 -4 -8 -2 -13 6 -14 10 0 10 -2 0 -6 -6 -2 -10 -9 -7 -13 3 -5 1 -11
-5 -15 -5 -3 -10 2 -10 12 0 14 -2 15 -9 5 -6 -10 -10 -7 -13 13 -4 19 -2 23
5 16 7 -7 15 -7 26 2z m106 -19 c11 2 25 -1 32 -6 7 -5 18 -7 25 -3 7 4 4 -1
-7 -10 -11 -9 -19 -20 -18 -24 1 -4 -8 -8 -20 -8 -20 -2 -20 -1 -4 8 26 15 12
27 -25 23 -24 -3 -29 -1 -18 6 11 7 11 10 2 10 -7 0 -10 5 -6 11 4 8 9 8 13 1
4 -6 15 -9 26 -8z m461 -13 c1 -24 -2 -28 -20 -23 -11 3 -15 7 -8 10 6 2 12
12 12 23 0 31 15 22 16 -10z m-609 -3 c-3 -8 -6 -5 -6 6 -1 11 2 17 5 13 3 -3
4 -12 1 -19z m630 0 c-3 -8 -6 -5 -6 6 -1 11 2 17 5 13 3 -3 4 -12 1 -19z
m-385 -6 c-7 -2 -10 -8 -6 -13 3 -5 0 -8 -7 -7 -7 2 -13 -2 -14 -8 0 -15 -35
-48 -35 -34 0 18 54 78 65 72 5 -3 4 -7 -3 -10z m-452 -2 c0 -5 -5 -10 -11
-10 -5 0 -7 5 -4 10 3 6 8 10 11 10 2 0 4 -4 4 -10z m575 0 c3 -5 -1 -10 -10
-10 -9 0 -13 5 -10 10 3 6 8 10 10 10 2 0 7 -4 10 -10z m90 0 c-3 -5 -12 -10
-18 -10 -7 0 -6 4 3 10 19 12 23 12 15 0z m-701 -16 c8 -21 8 -24 -5 -24 -5 0
-7 5 -4 10 3 6 1 10 -4 10 -6 0 -11 5 -11 10 0 16 17 12 24 -6z m-517 -14 c1
-11 -2 -18 -7 -15 -4 3 -10 -1 -13 -7 -2 -7 -7 -10 -11 -6 -5 4 21 48 29 48 0
0 1 -9 2 -20z m869 -12 c-3 -35 -36 -55 -36 -23 0 14 3 15 14 6 11 -9 14 -9
13 1 -1 25 3 48 8 48 3 0 3 -15 1 -32z m158 16 c3 -8 2 -12 -4 -9 -6 3 -10 10
-10 16 0 14 7 11 14 -7z m-664 -19 c14 -19 14 -19 -2 -6 -10 7 -18 18 -18 24
0 6 1 8 3 6 1 -2 9 -13 17 -24z m940 8 c0 -15 -2 -16 -10 -3 -8 13 -10 12 -10
-2 0 -10 -4 -18 -10 -18 -14 0 -13 13 2 28 17 17 28 15 28 -5z m-900 -10 c0
-10 -4 -14 -8 -8 -4 6 -11 13 -16 18 -5 4 -2 7 7 7 10 0 17 -8 17 -17z m335
-22 c-4 -3 -10 1 -15 9 -6 8 -10 11 -10 7 0 -5 -5 -5 -10 -2 -6 4 -8 11 -4 16
4 6 14 3 25 -7 11 -9 17 -20 14 -23z m365 35 c0 -2 -7 -7 -16 -10 -8 -3 -12
-2 -9 4 6 10 25 14 25 6z m130 0 c0 -2 -7 -7 -16 -10 -8 -3 -12 -2 -9 4 6 10
25 14 25 6z m-733 -40 c0 -8 -6 -12 -15 -9 -11 5 -11 7 0 14 7 5 13 9 14 9 0
0 1 -6 1 -14z m163 10 c0 -2 -7 -7 -16 -10 -8 -3 -12 -2 -9 4 6 10 25 14 25 6z
m157 -2 c-3 -3 -12 -4 -19 -1 -8 3 -5 6 6 6 11 1 17 -2 13 -5z m113 3 c0 -2
-11 -14 -24 -26 -24 -22 -25 -22 -19 -3 3 12 12 23 22 25 9 3 17 5 19 6 1 0 2
0 2 -2z m330 -22 c-7 -9 -15 -13 -17 -11 -7 7 7 26 19 26 6 0 6 -6 -2 -15z
m-1390 -4 c0 -6 -4 -13 -10 -16 -5 -3 -10 1 -10 9 0 9 5 16 10 16 6 0 10 -4
10 -9z m190 5 c0 -3 -4 -8 -10 -11 -5 -3 -10 -1 -10 4 0 6 5 11 10 11 6 0 10
-2 10 -4z m520 0 c0 -2 -7 -9 -15 -16 -13 -11 -14 -10 -9 4 5 14 24 23 24 12z
m497 -10 c0 -8 -6 -12 -15 -9 -11 5 -11 7 0 14 7 5 13 9 14 9 0 0 1 -6 1 -14z
m105 -3 c-6 -2 -9 -10 -6 -15 4 -7 2 -8 -5 -4 -13 9 -5 26 12 25 9 0 8 -2 -1
-6z m-178 -19 c3 -8 2 -12 -4 -9 -6 3 -10 10 -10 16 0 14 7 11 14 -7z m-154 0
c0 -8 -19 -13 -24 -6 -3 5 1 9 9 9 8 0 15 -2 15 -3z m341 -17 c-10 -9 -11 -8
-5 6 3 10 9 15 12 12 3 -3 0 -11 -7 -18z m-921 -7 c0 -5 -4 -10 -10 -10 -5 0
-10 5 -10 10 0 6 5 10 10 10 6 0 10 -4 10 -10z m-433 -857 c-3 -10 -5 -2 -5
17 0 19 2 27 5 18 2 -10 2 -26 0 -35z m-60 -10 c-3 -10 -5 -4 -5 12 0 17 2 24
5 18 2 -7 2 -21 0 -30z m35 2 c-6 -34 -12 -32 -12 6 0 16 4 28 9 25 4 -3 6
-17 3 -31z m-65 -7 c-3 -8 -6 -5 -6 6 -1 11 2 17 5 13 3 -3 4 -12 1 -19z"/>
<path d="M5686 7555 c-3 -8 -3 -15 0 -15 3 0 12 7 20 15 13 13 13 15 1 15 -8
0 -17 -7 -21 -15z"/>
<path d="M5790 7546 c0 -2 7 -6 15 -10 8 -3 15 -1 15 4 0 6 -7 10 -15 10 -8 0
-15 -2 -15 -4z"/>
<path d="M5625 7524 c-9 -7 -24 -10 -33 -7 -12 3 -13 2 -4 -4 6 -5 19 -18 28
-29 8 -10 13 -13 9 -7 -8 17 13 55 26 47 6 -4 6 -11 -2 -20 -7 -9 -8 -14 -1
-14 6 0 13 6 15 13 4 9 8 9 15 -2 6 -8 12 -9 16 -3 3 6 -3 13 -14 17 -11 4
-18 10 -16 14 8 12 -20 9 -39 -5z"/>
<path d="M5530 7510 c-8 -5 -11 -12 -7 -17 5 -4 12 -1 16 6 6 10 11 6 18 -15
9 -27 10 -27 15 -6 4 12 2 20 -3 16 -5 -3 -9 2 -9 10 0 18 -8 20 -30 6z"/>
<path d="M6107 7437 c4 -6 -2 -8 -15 -5 -12 4 -22 2 -22 -3 0 -6 -9 -5 -21 1
-19 11 -20 10 -9 -10 8 -15 15 -18 23 -11 8 6 19 4 32 -6 20 -15 19 -15 -3 -8
-13 4 -29 2 -38 -6 -12 -10 -16 -9 -21 9 -3 12 -12 22 -19 22 -14 0 -15 -20
-3 -30 4 -3 0 -11 -7 -18 -12 -11 -15 -10 -20 3 -5 12 -9 13 -20 4 -11 -9 -14
-9 -14 0 0 7 -4 9 -10 6 -5 -3 -10 -15 -10 -26 0 -11 -4 -18 -10 -14 -5 3 -7
11 -4 18 3 8 -4 13 -16 13 -14 0 -20 -7 -20 -23 0 -12 -5 -25 -10 -28 -6 -4
-9 -1 -8 7 2 7 -6 13 -17 13 -14 0 -20 -6 -19 -21 0 -19 -2 -20 -25 -8 -23 12
-27 11 -51 -18 -19 -23 -27 -27 -27 -15 0 9 6 17 14 17 7 0 13 5 13 10 0 7 -6
7 -20 0 -11 -6 -20 -16 -20 -23 0 -9 -3 -9 -9 1 -6 10 -10 10 -20 -2 -7 -8 -9
-21 -5 -27 5 -9 2 -10 -9 -6 -23 9 -31 -10 -10 -22 10 -6 13 -11 7 -11 -13 0
-27 -40 -14 -40 5 0 10 3 13 8 2 4 2 1 0 -7 -2 -8 5 -23 14 -35 18 -21 18 -21
-2 -5 -11 9 -31 15 -44 14 -21 -2 -22 0 -7 10 12 9 13 14 4 17 -18 7 -39 -2
-33 -13 4 -5 -1 -6 -9 -3 -21 8 -20 13 7 24 17 8 14 9 -18 5 -37 -5 -61 -23
-48 -35 3 -3 8 1 10 8 3 6 9 12 14 12 5 0 3 -10 -6 -23 -8 -13 -12 -27 -8 -32
5 -4 2 -5 -5 -1 -7 4 -9 13 -5 19 5 8 2 8 -9 0 -8 -7 -18 -9 -23 -5 -4 4 -5 0
-3 -8 3 -8 11 -14 18 -12 10 2 10 -1 -1 -14 -9 -12 -9 -15 -1 -10 6 4 18 4 25
-1 20 -12 38 -12 31 0 -3 7 1 4 9 -5 8 -10 17 -15 20 -11 4 3 7 1 7 -6 0 -7
-6 -11 -14 -8 -7 3 -26 -3 -41 -13 -16 -11 -33 -16 -38 -13 -5 3 -7 -10 -6
-28 2 -19 -1 -35 -6 -36 -6 -2 -10 1 -10 7 0 5 -6 15 -14 22 -12 11 -12 10 -5
-2 5 -8 9 -19 10 -25 1 -5 3 -16 5 -24 2 -7 -2 -16 -9 -18 -8 -3 -10 1 -6 11
4 10 1 16 -9 16 -21 0 -31 -17 -15 -23 10 -4 10 -8 0 -15 -11 -8 -12 -13 -1
-30 10 -16 17 -19 33 -11 19 9 19 9 4 -4 -16 -13 -16 -15 0 -32 13 -15 13 -16
1 -7 -9 6 -20 8 -24 4 -5 -4 -6 -2 -3 3 3 6 -3 18 -13 27 -17 16 -18 -20 -19
-910 0 -510 -3 -962 -7 -1004 -5 -66 -12 -87 -44 -140 -20 -35 -36 -64 -34
-66 2 -2 17 4 34 12 39 21 48 20 54 -3 5 -21 -55 -51 1287 630 653 331 705
360 710 386 4 21 18 35 58 56 l52 28 0 525 c0 288 -2 524 -5 524 -3 0 -22 -11
-43 -24 l-38 -24 -55 20 c-30 11 -60 21 -67 22 -8 1 -17 7 -20 12 -11 15 -63
42 -505 264 -229 115 -424 210 -432 210 -8 0 -15 5 -15 10 0 6 -3 9 -7 8 -5
-1 -18 4 -31 11 -21 11 -24 10 -29 -8 -3 -12 -11 -17 -19 -14 -8 3 -11 10 -8
17 3 6 -2 2 -11 -9 -15 -20 -16 -19 -21 3 -4 12 -10 22 -15 22 -5 0 -6 -6 -3
-13 2 -7 -4 -13 -16 -14 -14 -1 -20 4 -21 20 l0 22 -9 -22 c-10 -26 -35 -30
-43 -9 -4 9 1 16 11 18 13 3 12 5 -6 10 -14 4 -20 2 -15 -5z m-257 -107 c0 -5
-5 -10 -11 -10 -5 0 -7 5 -4 10 3 6 8 10 11 10 2 0 4 -4 4 -10z m-139 -84 c-6
-7 -7 -17 -3 -21 4 -5 2 -5 -4 -2 -7 4 -14 18 -16 31 -4 22 -3 24 14 15 14 -8
16 -14 9 -23z m84 24 c3 -6 -1 -7 -9 -4 -18 7 -21 14 -7 14 6 0 13 -4 16 -10z
m-88 -87 c0 -9 -4 -10 -14 -2 -7 6 -13 12 -13 14 0 1 6 2 13 2 8 0 14 -6 14
-14z m-112 -43 c8 0 17 -5 21 -12 4 -7 3 -8 -4 -4 -8 4 -12 0 -13 -11 0 -14
-2 -13 -10 5 -5 13 -13 20 -19 17 -11 -7 -14 8 -3 19 4 4 9 2 11 -3 2 -6 10
-11 17 -11z m77 -51 c-33 -38 -63 -16 -36 26 16 24 18 25 35 9 16 -15 16 -17
1 -35z m-119 16 c-3 -9 -8 -14 -10 -11 -3 3 -2 9 2 15 9 16 15 13 8 -4z m-83
-209 c-7 -7 -13 -7 -20 0 -6 6 -3 10 10 10 13 0 16 -4 10 -10z m1843 -223 c-3
-7 0 -13 6 -13 6 0 10 -10 9 -23 -1 -15 -9 -24 -23 -24 -20 -2 -20 -2 -1 12
25 19 14 30 -14 15 -17 -9 -19 -14 -9 -26 6 -8 17 -14 24 -14 7 0 18 -7 25
-15 8 -9 8 -15 2 -15 -6 0 -13 6 -15 13 -4 9 -6 9 -6 -1 -1 -7 6 -15 14 -18
12 -5 13 -9 4 -21 -9 -10 -9 -19 0 -36 14 -27 22 -79 10 -72 -13 9 -21 -15
-10 -28 7 -9 6 -21 -5 -41 -17 -34 -15 -58 6 -68 12 -5 12 -7 -2 -7 -10 -1
-18 -8 -18 -17 0 -8 4 -12 10 -9 6 3 7 -1 4 -9 -6 -16 -25 -23 -23 -8 1 4 1
14 0 22 -1 13 -2 13 -11 0 -5 -8 -10 -10 -11 -5 0 6 -2 18 -4 28 -4 19 11 23
18 5 3 -7 4 -3 4 9 -1 16 -6 21 -17 18 -8 -2 -22 0 -30 6 -13 9 -12 10 3 5 11
-3 17 0 17 9 0 8 -7 15 -15 15 -8 0 -15 4 -15 10 0 5 -7 7 -15 4 -8 -4 -12
-11 -8 -17 3 -6 1 -7 -5 -3 -6 4 -8 14 -5 24 5 14 3 15 -8 5 -15 -15 -49 -17
-49 -4 0 6 9 8 20 6 11 -2 22 1 26 6 3 5 15 7 27 3 20 -6 20 -6 4 10 -9 10
-14 22 -11 28 4 6 3 9 -2 6 -5 -4 -9 4 -9 17 0 13 3 21 6 19 3 -1 6 12 6 31 0
19 -5 35 -10 35 -5 0 -7 -7 -3 -15 7 -18 -3 -45 -16 -45 -18 0 -36 26 -28 40
6 10 9 8 12 -6 3 -15 8 -11 22 18 19 39 15 75 -5 62 -8 -4 -9 -3 -5 5 6 9 11
9 21 1 9 -8 15 -8 20 0 3 5 10 10 16 10 11 0 7 -23 -6 -32 -12 -9 -13 -25 -3
-62 4 -17 3 -34 -2 -41 -6 -8 -4 -18 6 -31 8 -10 13 -14 10 -7 -4 6 -2 14 3
18 6 3 8 12 4 20 -3 8 0 15 6 15 6 0 11 4 11 10 0 5 -7 6 -17 3 -12 -5 -14 -3
-7 8 4 8 7 22 6 32 -4 20 27 23 48 5 12 -11 12 -10 2 3 -6 9 -9 19 -5 23 4 4
0 4 -9 1 -12 -5 -17 2 -22 30 -6 32 -9 35 -24 23 -15 -12 -16 -11 -3 5 13 16
13 20 0 28 -11 7 -11 9 4 9 9 0 17 -7 17 -15 0 -21 13 -19 28 5 8 14 9 19 1
18 -6 -2 -13 4 -14 13 -2 13 1 14 20 5 12 -6 20 -16 18 -23z m-162 -200 c12
-16 12 -17 -2 -6 -9 7 -20 9 -24 5 -5 -4 -5 -1 -1 6 9 16 11 15 27 -5z m6 -26
c12 5 15 2 10 -10 -6 -17 3 -22 33 -17 8 1 11 -2 7 -7 -13 -13 -65 -10 -60 3
2 7 0 15 -6 19 -6 3 -11 12 -10 18 0 9 2 9 5 0 3 -7 13 -9 21 -6z m-47 -17 c0
-5 -5 -10 -11 -10 -5 0 -7 5 -4 10 3 6 8 10 11 10 2 0 4 -4 4 -10z m125 -110
c17 0 16 -3 -5 -25 -12 -13 -28 -22 -33 -18 -6 3 -1 10 11 14 34 13 26 21 -15
16 -33 -5 -36 -4 -20 7 9 7 17 19 17 27 1 10 4 9 14 -3 7 -10 21 -18 31 -18z
m-96 -16 c10 7 23 -19 14 -28 -10 -9 -25 -7 -19 3 3 5 -1 14 -9 21 -8 7 -15
20 -14 29 0 10 3 8 10 -7 5 -13 13 -21 18 -18z m199 11 c-3 -3 -9 2 -12 12 -6
14 -5 15 5 6 7 -7 10 -15 7 -18z m-158 -65 c-6 -11 -7 -20 -2 -20 5 0 9 -7 9
-16 0 -15 -2 -15 -13 1 -9 13 -10 23 -3 36 5 11 12 19 15 19 2 0 0 -9 -6 -20z
m-37 -13 c3 -8 -1 -14 -9 -14 -15 0 -18 9 -7 20 9 9 10 9 16 -6z m92 3 c3 -5
1 -10 -4 -10 -6 0 -11 5 -11 10 0 6 2 10 4 10 3 0 8 -4 11 -10z m65 -22 c0
-12 -18 -19 -25 -8 -4 6 -11 7 -17 4 -6 -4 -8 -2 -4 4 7 12 46 12 46 0z m40 7
c0 -1 -10 -10 -22 -21 -14 -12 -18 -13 -10 -3 6 9 10 18 7 21 -3 2 2 5 10 5 8
0 15 -1 15 -2z m-24 -54 c-17 -7 -17 -8 -2 -23 14 -15 14 -19 1 -45 -10 -18
-15 -22 -15 -11 0 9 5 20 10 23 6 4 8 11 4 16 -3 5 -9 7 -13 4 -5 -2 -7 6 -6
18 3 28 2 27 23 26 15 0 15 -1 -2 -8z m-54 -67 c-9 -16 -10 -14 -9 8 1 15 6
23 11 18 4 -4 4 -16 -2 -26z"/>
<path d="M5646 7113 c-4 -9 -3 -20 2 -25 6 -6 12 -1 15 11 6 25 -8 38 -17 14z"/>
<path d="M7270 6540 c0 -5 5 -10 11 -10 5 0 7 5 4 10 -3 6 -8 10 -11 10 -2 0
-4 -4 -4 -10z"/>
<path d="M7321 6464 c0 -11 3 -14 6 -6 3 7 2 16 -1 19 -3 4 -6 -2 -5 -13z"/>
<path d="M7257 6427 c-3 -8 1 -14 9 -14 16 0 19 13 5 21 -5 3 -11 0 -14 -7z"/>
<path d="M6236 7442 c-3 -4 4 -9 15 -9 23 -2 25 3 4 10 -8 4 -16 3 -19 -1z"/>
<path d="M2656 7364 c-16 -11 -17 -16 -6 -29 7 -8 16 -12 22 -9 5 3 5 11 -2
19 -7 9 -7 15 -1 19 5 4 14 -1 19 -9 8 -15 10 -14 22 2 8 10 11 15 6 11 -5 -4
-16 -3 -25 1 -10 6 -23 4 -35 -5z"/>
<path d="M8363 7279 c-1 -10 3 -19 8 -19 6 0 8 4 5 9 -4 5 -1 11 6 13 8 3 7 6
-3 10 -10 4 -15 -1 -16 -13z"/>
<path d="M5589 7259 c-7 -4 -19 -5 -28 -2 -11 4 -10 0 4 -11 16 -14 16 -16 3
-12 -20 6 -45 -19 -28 -29 5 -3 10 1 10 10 0 12 4 14 19 5 17 -9 19 -7 16 11
-3 14 0 19 12 17 9 -2 18 -9 21 -17 3 -8 0 -11 -7 -7 -15 9 -14 -7 1 -22 17
-17 25 -15 31 8 3 11 1 18 -4 14 -9 -5 -13 8 -10 32 1 12 -22 14 -40 3z"/>
<path d="M8320 7255 c-7 -9 -10 -18 -7 -21 3 -3 10 4 17 15 13 25 8 27 -10 6z"/>
<path d="M8400 7250 c-9 -6 -10 -10 -3 -10 6 0 15 5 18 10 8 12 4 12 -15 0z"/>
<path d="M4515 7142 c-13 -9 -17 -32 -6 -32 5 0 11 9 14 20 6 22 6 22 -8 12z"/>
<path d="M4444 7128 c-4 -7 -4 -10 1 -6 4 4 15 2 24 -5 14 -11 14 -10 2 6 -16
20 -18 21 -27 5z"/>
<path d="M2664 7081 c1 -17 26 -28 26 -11 0 6 -4 9 -9 5 -5 -3 -11 0 -14 7 -2
9 -4 8 -3 -1z"/>
<path d="M5520 7060 c0 -5 5 -10 10 -10 6 0 10 5 10 10 0 6 -4 10 -10 10 -5 0
-10 -4 -10 -10z"/>
<path d="M2822 7020 c-7 -11 -8 -20 -3 -20 9 0 24 30 18 36 -1 2 -8 -6 -15
-16z"/>
<path d="M4092 7011 c-16 -10 10 -39 28 -32 9 3 15 12 15 20 0 15 -26 23 -43
12z m38 -7 c0 -8 -19 -13 -24 -6 -3 5 1 9 9 9 8 0 15 -2 15 -3z"/>
<path d="M4024 6980 c1 -23 26 -42 26 -20 0 6 5 8 10 5 6 -3 10 -1 10 5 0 7
-6 10 -12 7 -7 -2 -18 3 -24 11 -10 13 -11 12 -10 -8z"/>
<path d="M3117 6983 c-4 -3 -7 -11 -7 -17 0 -6 5 -5 12 2 6 6 9 14 7 17 -3 3
-9 2 -12 -2z"/>
<path d="M3640 6959 c0 -5 5 -7 10 -4 6 3 10 8 10 11 0 2 -4 4 -10 4 -5 0 -10
-5 -10 -11z"/>
<path d="M3602 6933 c2 -9 10 -19 18 -21 12 -4 13 -3 3 10 -7 8 -10 18 -6 21
3 4 1 7 -6 7 -7 0 -11 -8 -9 -17z"/>
<path d="M3700 6939 c0 -5 -4 -8 -8 -5 -5 3 -9 -1 -9 -7 0 -7 10 -13 21 -14
12 -1 16 1 9 4 -7 2 -9 11 -6 19 3 8 2 14 -1 14 -3 0 -6 -5 -6 -11z"/>
<path d="M3825 6942 c-10 -7 -18 -32 -10 -32 2 0 9 9 15 20 12 22 11 24 -5 12z"/>
<path d="M3425 6920 c3 -5 11 -10 16 -10 6 0 7 5 4 10 -3 6 -11 10 -16 10 -6
0 -7 -4 -4 -10z"/>
<path d="M3467 6923 c-10 -9 -9 -23 1 -23 5 0 9 7 9 15 0 17 -1 18 -10 8z"/>
<path d="M3784 6895 c3 -22 13 -27 19 -11 3 8 0 17 -8 19 -7 3 -12 0 -11 -8z"/>
<path d="M3596 6884 c-9 -24 -2 -26 12 -4 7 11 8 20 3 20 -5 0 -12 -7 -15 -16z"/>
<path d="M2533 6856 c0 -8 8 -11 20 -8 14 4 16 7 5 13 -19 12 -25 11 -25 -5z"/>
<path d="M3988 6759 c-20 -11 -24 -29 -7 -29 5 0 7 5 4 10 -6 9 8 14 28 11 5
-1 6 3 2 9 -7 12 -6 12 -27 -1z"/>
<path d="M2730 6750 c0 -5 7 -10 15 -10 8 0 15 5 15 10 0 6 -7 10 -15 10 -8 0
-15 -4 -15 -10z"/>
<path d="M3804 6745 c-8 -20 4 -35 24 -31 38 7 73 27 67 37 -5 7 -14 4 -29 -8
-26 -24 -52 -24 -48 0 4 21 -6 23 -14 2z"/>
<path d="M3035 6701 c-3 -6 -11 -8 -17 -5 -6 4 -8 2 -5 -3 11 -17 45 -23 43
-7 -3 20 -13 27 -21 15z"/>
<path d="M3536 6688 c3 -5 9 -7 12 -4 3 3 12 0 21 -6 13 -10 14 -10 4 2 -15
16 -46 23 -37 8z"/>
<path d="M3698 6673 c7 -3 16 -2 19 1 4 3 -2 6 -13 5 -11 0 -14 -3 -6 -6z"/>
<path d="M3318 6643 c7 -3 16 -2 19 1 4 3 -2 6 -13 5 -11 0 -14 -3 -6 -6z"/>
<path d="M2627 6634 c7 -3 10 -11 7 -19 -3 -7 -1 -16 4 -19 5 -3 10 6 10 19 0
17 -6 25 -17 24 -9 0 -11 -3 -4 -5z"/>
<path d="M3250 6630 c-9 -6 -10 -10 -3 -10 6 0 15 5 18 10 8 12 4 12 -15 0z"/>
<path d="M2668 6603 c7 -3 16 -2 19 1 4 3 -2 6 -13 5 -11 0 -14 -3 -6 -6z"/>
<path d="M2747 6589 c4 -13 8 -18 11 -10 2 7 -1 18 -6 23 -8 8 -9 4 -5 -13z"/>
<path d="M2780 6566 c0 -8 5 -18 10 -21 6 -3 10 1 10 9 0 10 6 13 18 10 14 -5
15 -4 2 5 -21 15 -40 14 -40 -3z"/>
<path d="M2958 6563 c6 -2 9 -10 6 -15 -4 -7 -2 -8 5 -4 13 9 5 26 -12 25 -9
0 -8 -2 1 -6z"/>
<path d="M3050 6490 c-8 -5 -19 -6 -25 -2 -5 3 -4 -2 4 -12 13 -15 16 -15 30
-2 17 18 12 29 -9 16z"/>
<path d="M4445 6479 c-4 -6 -5 -12 -2 -15 2 -3 7 2 10 11 7 17 1 20 -8 4z"/>
<path d="M4491 6474 c0 -11 3 -14 6 -6 3 7 2 16 -1 19 -3 4 -6 -2 -5 -13z"/>
<path d="M3270 6460 c0 -6 7 -13 15 -16 8 -4 13 -10 10 -14 -3 -5 -1 -11 5
-15 5 -3 10 -1 10 4 0 6 4 11 10 11 5 0 7 -8 3 -17 -3 -10 -3 -15 1 -11 4 3 8
12 10 20 1 7 5 18 9 24 5 8 -4 10 -29 7 -25 -3 -34 -1 -30 6 4 6 2 11 -3 11
-6 0 -11 -5 -11 -10z"/>
<path d="M4430 6438 c0 -4 7 -8 15 -8 8 0 15 4 15 8 0 5 -7 9 -15 9 -8 0 -15
-4 -15 -9z"/>
<path d="M3248 6413 c7 -3 16 -2 19 1 4 3 -2 6 -13 5 -11 0 -14 -3 -6 -6z"/>
<path d="M4571 6404 c0 -11 3 -14 6 -6 3 7 2 16 -1 19 -3 4 -6 -2 -5 -13z"/>
<path d="M3216 6402 c-3 -5 1 -9 9 -9 8 0 12 4 9 9 -3 4 -7 8 -9 8 -2 0 -6 -4
-9 -8z"/>
<path d="M4270 6400 c18 -12 30 -13 30 -2 0 4 -10 9 -22 9 -18 2 -20 0 -8 -7z"/>
<path d="M3263 6386 c-7 -8 -8 -18 -2 -27 5 -8 9 -12 10 -9 0 3 2 15 5 28 4
25 3 26 -13 8z"/>
<path d="M3204 6365 c3 -21 16 -31 16 -12 0 9 -4 18 -9 21 -5 4 -8 -1 -7 -9z"/>
<path d="M4436 6365 c-3 -8 -1 -15 4 -15 6 0 10 7 10 15 0 8 -2 15 -4 15 -2 0
-6 -7 -10 -15z"/>
<path d="M4206 6353 c-6 -14 -5 -15 5 -6 7 7 10 15 7 18 -3 3 -9 -2 -12 -12z"/>
<path d="M4167 6349 c7 -7 15 -10 18 -7 3 3 -2 9 -12 12 -14 6 -15 5 -6 -5z"/>
<path d="M3223 6319 c-18 -12 -33 -23 -33 -26 0 -2 5 -1 10 2 6 3 10 1 10 -4
0 -6 5 -11 11 -11 5 0 7 5 4 10 -3 6 -1 10 5 10 6 0 8 5 4 12 -5 8 -2 9 10 5
11 -5 15 -3 10 5 -5 8 -2 9 10 5 10 -4 15 -3 11 3 -9 14 -16 13 -52 -11z"/>
<path d="M3642 6294 c10 -10 20 -16 22 -13 3 3 -5 11 -17 18 -21 13 -21 12 -5
-5z"/>
<path d="M3245 6291 c-3 -5 -2 -12 3 -15 5 -3 9 1 9 9 0 17 -3 19 -12 6z"/>
<path d="M3101 6253 c6 -7 15 -13 20 -13 5 0 6 6 3 13 -3 8 -11 14 -19 14 -11
0 -12 -4 -4 -14z"/>
<path d="M3390 6260 c-8 -5 -12 -11 -10 -14 3 -2 14 2 24 10 22 15 10 19 -14
4z"/>
<path d="M3157 6196 c-4 -10 -1 -13 8 -9 8 3 12 9 9 14 -7 12 -11 11 -17 -5z"/>
<path d="M4780 5784 c-20 -37 -45 -70 -57 -74 -12 -5 -37 -38 -58 -78 -23 -45
-50 -79 -76 -98 -22 -16 -49 -37 -61 -46 -12 -10 -27 -18 -35 -18 -7 0 -13 -3
-13 -8 0 -4 -34 -27 -75 -51 -41 -25 -75 -49 -75 -53 0 -5 -4 -7 -9 -4 -5 3
-12 -1 -15 -9 -3 -8 -9 -14 -13 -13 -4 2 -19 -5 -33 -15 -13 -9 -20 -17 -15
-17 5 0 -18 -13 -51 -30 -34 -16 -67 -36 -74 -45 -7 -8 -18 -15 -26 -15 -7 0
-19 -9 -26 -19 -8 -11 -26 -23 -42 -27 -15 -3 -33 -15 -39 -25 -7 -11 -20 -19
-29 -19 -10 0 -18 -5 -18 -11 0 -5 -4 -7 -10 -4 -5 3 -10 -1 -10 -10 0 -9 -5
-13 -10 -10 -6 3 -17 0 -25 -7 -34 -31 -43 -36 -49 -31 -3 4 -6 1 -6 -5 0 -7
-7 -12 -15 -12 -8 0 -15 -4 -15 -9 0 -4 -22 -19 -50 -32 -27 -13 -50 -27 -50
-31 0 -4 -16 -15 -35 -24 -19 -9 -35 -24 -35 -33 0 -12 -2 -13 -9 -3 -7 11 -9
10 -15 -3 -3 -9 -10 -13 -16 -10 -9 5 -14 -7 -12 -26 1 -4 -8 -4 -20 -1 -14 3
-19 1 -14 -6 7 -11 -5 -16 -31 -13 -6 1 -20 -9 -30 -21 -10 -13 -36 -32 -58
-43 -48 -23 -99 -57 -103 -68 -2 -4 -20 -14 -40 -23 -20 -8 -39 -19 -42 -23
-3 -5 -26 -22 -52 -38 -26 -17 -44 -34 -40 -38 4 -5 2 -5 -4 -2 -11 6 -60 -24
-75 -46 -3 -5 -9 -8 -13 -8 -14 3 -86 -45 -86 -57 0 -7 -4 -10 -10 -7 -5 3
-18 2 -27 -4 -10 -5 -34 -12 -53 -15 -74 -11 -159 -34 -187 -50 -15 -9 -68
-25 -118 -35 -49 -10 -83 -21 -75 -24 8 -3 85 -20 170 -37 85 -18 156 -33 158
-35 2 -1 -12 -12 -30 -24 -18 -11 -29 -21 -25 -21 5 0 171 -29 370 -65 199
-36 515 -92 702 -126 187 -33 459 -82 603 -108 260 -47 264 -48 260 -26 -4 20
-2 21 51 14 30 -4 57 -7 58 -5 2 1 2 440 1 974 l-3 972 -35 -66z m-265 -1163
c3 -5 2 -12 -3 -15 -5 -3 -9 1 -9 9 0 17 3 19 12 6z m-988 -78 c-3 -10 -5 -2
-5 17 0 19 2 27 5 18 2 -10 2 -26 0 -35z m-197 -27 c0 -7 -40 -14 -44 -7 -3 4
6 8 20 9 13 1 24 0 24 -2z m207 -28 c-7 -4 -5 -10 8 -14 18 -7 18 -8 -1 -16
-13 -5 -7 -7 18 -4 30 3 39 0 43 -15 4 -10 3 -23 0 -29 -4 -7 2 -7 18 -1 14 6
28 7 32 3 4 -4 6 -1 3 7 -2 8 -10 17 -18 19 -7 3 -10 0 -6 -7 4 -6 2 -11 -3
-11 -6 0 -11 2 -11 4 0 2 -3 12 -7 22 -4 11 -3 15 5 10 6 -3 14 -1 18 5 5 9 0
10 -14 7 -12 -4 -25 -2 -28 3 -3 5 9 9 25 9 21 0 31 -5 31 -15 0 -8 5 -15 11
-15 12 0 59 -46 59 -57 0 -3 -9 -3 -20 0 -11 3 -20 0 -20 -5 0 -6 -5 -7 -12
-2 -19 13 -53 10 -50 -4 1 -7 -3 -12 -10 -12 -6 0 -8 -3 -5 -6 4 -4 14 -1 24
7 15 12 16 12 10 -3 -3 -10 -2 -20 2 -23 5 -2 11 3 14 14 3 12 12 17 28 16 24
-2 49 11 49 25 0 5 -13 22 -30 39 -16 18 -27 29 -23 26 3 -3 12 0 20 7 11 8
12 7 7 -6 -8 -21 5 -21 21 1 9 13 14 13 20 3 5 -8 4 -11 -2 -7 -6 4 -13 0 -17
-8 -6 -18 -5 -18 31 -4 19 7 24 12 14 18 -10 7 -10 9 2 14 11 4 15 0 12 -14
-2 -12 2 -19 11 -19 8 0 14 -9 14 -19 0 -23 23 -34 40 -18 10 9 11 9 4 -3 -5
-8 -9 -19 -9 -25 0 -5 -5 -10 -12 -10 -6 0 -14 -2 -17 -5 -10 -11 47 -10 60 1
7 6 23 8 35 4 16 -5 20 -3 16 6 -2 8 -10 13 -16 11 -7 -1 -10 2 -6 8 3 6 11 7
17 4 6 -4 14 0 19 7 7 11 9 10 9 -3 0 -10 5 -18 11 -18 5 0 8 -4 4 -9 -3 -5 0
-13 7 -17 9 -6 6 -10 -10 -14 -13 -3 -23 -9 -22 -14 1 -5 -4 -13 -12 -17 -10
-7 -8 -9 6 -9 13 0 16 5 12 16 -5 13 -2 15 11 9 10 -4 26 -7 35 -7 9 0 19 -6
22 -15 8 -20 1 -27 -16 -17 -22 14 -34 12 -34 -6 0 -19 38 -19 62 1 14 12 14
9 5 -40 -1 -2 -8 2 -16 9 -9 7 -15 8 -15 2 0 -6 -10 -7 -27 -3 -16 5 -27 13
-26 18 1 6 -11 9 -28 8 -36 -3 -76 28 -43 33 40 7 47 12 35 26 -6 7 -8 16 -4
19 3 4 1 7 -5 7 -6 0 -14 -10 -17 -21 -4 -12 -10 -17 -14 -12 -6 10 -42 14
-37 4 2 -3 -3 -19 -10 -36 -9 -20 -13 -24 -14 -12 0 11 -4 15 -12 11 -7 -5 -9
-2 -4 7 4 8 0 5 -8 -5 -15 -19 -22 -11 -16 19 1 6 -4 4 -11 -2 -15 -15 -33
-17 -25 -4 3 5 -1 11 -9 15 -8 3 -17 0 -21 -6 -4 -7 -3 -8 4 -4 7 4 12 2 12
-3 0 -16 -20 -13 -26 3 -3 8 -16 12 -35 10 -16 -2 -29 1 -29 6 0 6 -9 6 -25 0
-23 -9 -25 -8 -21 14 2 12 0 29 -5 37 -7 11 -9 11 -9 1 0 -20 -40 -68 -41 -51
-1 8 -1 17 0 21 0 3 -14 2 -32 -3 -39 -11 -37 -11 -37 1 0 6 3 9 8 9 27 -4 41
2 35 17 -5 14 -7 15 -15 1 -5 -10 -17 -14 -33 -11 -15 3 -25 0 -25 -8 0 -6 -6
-3 -14 7 -14 19 -96 30 -96 13 0 -4 -7 -8 -16 -8 -14 0 -14 2 0 15 9 9 22 15
30 13 8 -2 22 6 31 17 14 17 16 18 11 2 -3 -10 -2 -15 3 -12 5 3 13 0 16 -6 4
-5 14 -8 22 -5 11 5 14 2 9 -11 -6 -17 -5 -17 7 -1 8 10 30 18 50 20 21 1 36
7 33 13 -2 5 -8 9 -14 8 -6 -2 -14 6 -17 17 -4 11 -11 18 -16 15 -5 -3 -6 1
-3 9 7 18 24 11 24 -10 0 -14 19 -21 21 -6 0 4 2 15 4 24 2 12 -2 15 -13 11
-13 -4 -12 -2 2 9 15 12 23 13 32 4 8 -8 9 -13 1 -18z m193 28 c0 -2 -11 -6
-25 -8 -13 -3 -22 -1 -19 3 5 9 44 13 44 5z m160 0 c0 -3 -4 -8 -10 -11 -5 -3
-10 -1 -10 4 0 6 5 11 10 11 6 0 10 -2 10 -4z m-460 -56 c14 -8 29 -14 34 -15
20 0 17 -25 -4 -25 -12 0 -19 4 -15 9 3 5 1 12 -5 16 -5 3 -10 -2 -11 -12 0
-12 -4 -10 -10 9 -8 20 -16 25 -34 23 -14 -1 -22 2 -19 6 7 11 33 7 64 -11z
m546 -15 c-1 -20 4 -37 11 -40 7 -2 13 -9 13 -14 0 -13 -27 -21 -27 -8 -1 22
-8 42 -18 49 -6 5 -6 8 2 8 6 0 9 9 6 20 -3 11 -1 20 5 20 5 0 9 -16 8 -35z
m86 23 c-19 -19 -14 -25 20 -24 17 0 33 -5 35 -11 3 -7 0 -13 -7 -13 -6 0 -8
5 -5 10 3 6 1 10 -4 10 -6 0 -11 -4 -11 -10 0 -5 -8 -6 -17 -3 -16 6 -16 5 -5
-10 8 -9 17 -16 20 -15 22 2 30 -5 30 -27 0 -14 -5 -25 -10 -25 -6 0 -8 8 -5
19 3 14 0 17 -14 14 -15 -4 -17 -8 -8 -19 7 -9 8 -14 1 -14 -6 0 -13 6 -16 13
-3 8 -9 7 -20 -7 -12 -15 -18 -16 -30 -7 -11 9 -15 8 -20 -5 -4 -9 -9 -14 -13
-11 -3 4 1 17 10 30 17 27 20 90 4 80 -6 -3 -7 -1 -3 6 9 13 27 5 25 -12 -3
-28 2 -36 19 -30 11 4 10 0 -5 -11 -32 -24 -28 -36 7 -23 35 13 37 25 11 54
-18 19 -18 22 -3 37 9 9 18 16 21 16 3 0 0 -5 -7 -12z m424 0 c4 -7 3 -8 -4
-4 -8 5 -12 0 -12 -13 0 -29 3 -36 17 -35 6 1 9 -4 6 -12 -2 -7 -12 -10 -20
-7 -10 4 -14 2 -10 -4 4 -6 1 -14 -5 -16 -9 -4 -8 -6 2 -6 19 -1 21 -38 3 -38
-7 0 -13 7 -14 16 0 14 -1 14 -6 1 -3 -8 -11 -18 -17 -22 -6 -4 2 -8 18 -8 27
0 28 -2 23 -37 l-5 -38 11 38 c6 23 16 37 26 36 11 0 12 -2 3 -6 -10 -4 -9 -9
5 -20 10 -8 12 -12 6 -8 -8 4 -13 0 -13 -10 0 -9 -4 -13 -10 -10 -5 3 -10 1
-10 -4 0 -6 7 -11 16 -11 8 0 12 -5 9 -10 -4 -6 -11 -7 -17 -4 -7 4 -8 2 -4
-5 4 -6 12 -9 17 -6 5 4 9 1 9 -4 0 -19 29 -12 40 9 8 14 8 20 0 20 -6 0 -8 5
-4 12 4 6 3 8 -4 4 -6 -3 -9 -15 -7 -26 2 -12 -1 -17 -9 -14 -17 6 -16 34 0
59 10 13 14 15 14 5 0 -9 6 -6 16 8 13 19 18 21 32 10 12 -10 14 -10 8 0 -8
13 -5 15 16 7 14 -6 17 -112 4 -133 -3 -6 -3 -18 0 -27 5 -13 2 -15 -21 -9
-22 5 -26 4 -20 -6 5 -9 4 -11 -4 -6 -6 4 -9 11 -6 16 5 8 -14 10 -87 10 -20
0 -40 5 -43 10 -4 6 -17 7 -31 4 -14 -4 -24 -2 -24 4 0 6 -9 9 -21 7 -16 -3
-19 0 -15 12 5 13 4 14 -8 4 -21 -18 -39 -3 -32 25 4 14 2 24 -4 24 -10 0 -13
-11 -11 -40 0 -10 -1 -11 -5 -2 -3 6 -11 9 -17 6 -8 -5 -8 -2 1 7 13 14 17 33
4 25 -4 -2 -8 4 -8 15 0 10 7 19 14 19 8 0 12 -6 9 -14 -4 -10 -1 -13 8 -9 8
3 13 9 10 13 -3 5 7 7 22 5 l26 -3 -24 18 c-13 10 -28 16 -33 13 -5 -4 -6 -1
-2 6 5 7 14 10 22 7 8 -3 14 1 14 11 0 9 -3 13 -7 10 -3 -4 -11 1 -18 10 -8
11 -14 13 -19 5 -4 -7 -1 -12 6 -12 9 -1 8 -4 -3 -13 -9 -7 -19 -19 -22 -27
-4 -8 -5 2 -2 23 5 29 3 37 -10 37 -8 0 -15 -5 -15 -11 0 -5 6 -7 13 -4 6 4 1
-3 -12 -14 -20 -18 -22 -25 -12 -44 11 -22 11 -21 6 3 l-6 25 15 -24 c12 -22
12 -28 -1 -48 l-15 -23 -17 21 c-15 19 -18 20 -30 5 -7 -9 -18 -16 -24 -16 -7
0 -7 4 1 12 15 15 15 28 1 28 -5 0 -7 -5 -4 -10 3 -6 -1 -13 -9 -16 -9 -3 -13
-10 -10 -15 3 -5 0 -9 -6 -9 -6 0 -10 8 -8 17 3 20 -25 24 -56 10 -12 -6 -16
-5 -12 1 3 6 2 13 -4 17 -7 4 -7 12 0 26 10 18 7 23 -15 20 -5 -1 -1 6 9 14
25 19 42 19 26 0 -10 -12 -10 -15 4 -15 9 0 16 6 16 13 0 8 4 7 10 -3 7 -11 4
-16 -12 -20 -12 -3 -23 -11 -24 -18 -1 -7 0 -8 2 -3 3 6 12 7 20 4 7 -3 11
-10 8 -15 -4 -6 -1 -9 6 -6 7 2 15 15 17 28 2 13 12 30 23 37 11 8 20 20 20
26 0 7 -4 6 -10 -3 -8 -13 -10 -12 -10 3 0 11 8 17 24 17 19 0 23 4 19 21 -4
14 1 25 16 35 12 9 18 21 15 27 -5 9 -3 9 6 0 10 -9 10 -15 2 -26 -7 -8 -8
-18 -4 -22 4 -5 -1 -5 -10 -2 -19 7 -25 -8 -8 -18 6 -3 7 -17 4 -31 -5 -18 -2
-24 11 -24 13 0 15 3 7 13 -7 8 -7 18 -2 27 6 10 10 11 10 3 0 -7 7 -10 16 -6
15 5 15 7 0 15 -18 10 -22 28 -5 28 5 0 7 -4 4 -10 -3 -5 1 -10 10 -10 9 0 14
4 11 8 -2 4 5 9 17 9 16 2 18 0 8 -7 -20 -12 -24 -43 -4 -36 8 3 21 -1 29 -9
8 -8 21 -12 28 -9 8 3 17 1 21 -5 4 -7 -1 -8 -12 -4 -10 3 -15 3 -11 -2 4 -4
21 -9 38 -11 22 -3 30 1 30 12 0 8 5 12 10 9 14 -9 13 8 -2 23 -16 16 -30 15
-26 -2 3 -17 -1 -18 -42 -10 -36 8 -31 22 6 18 20 -2 24 0 15 9 -18 18 -13 27
17 27 36 0 45 9 29 28 -9 13 -9 14 1 8 7 -4 12 -2 12 4 0 6 5 8 11 4 6 -3 7
-9 3 -13 -14 -10 -15 -31 -1 -31 7 0 14 12 15 26 3 40 15 54 28 32z m41 6 c-3
-3 -12 -4 -19 -1 -8 3 -5 6 6 6 11 1 17 -2 13 -5z m-623 -20 c3 -8 2 -12 -4
-9 -6 3 -10 10 -10 16 0 14 7 11 14 -7z m266 -10 c0 -8 -4 -12 -10 -9 -5 3
-10 13 -10 21 0 8 5 12 10 9 6 -3 10 -13 10 -21z m218 13 c-1 -2 2 -10 9 -18
10 -12 8 -15 -12 -17 -13 -1 -27 3 -30 8 -3 6 -17 7 -31 4 -13 -3 -24 -2 -24
3 0 11 50 10 68 -1 11 -7 17 6 12 29 -1 6 1 7 5 3 4 -3 5 -8 3 -11z m223 -10
c-10 -9 -11 -8 -5 6 3 10 9 15 12 12 3 -3 0 -11 -7 -18z m-1201 -18 c0 -6 -4
-7 -10 -4 -5 3 -10 11 -10 16 0 6 5 7 10 4 6 -3 10 -11 10 -16z m427 6 c0 -8
-4 -15 -9 -15 -10 0 -11 14 -1 23 9 10 10 9 10 -8z m319 -18 c8 -4 14 -16 14
-25 0 -13 -5 -12 -20 8 -11 14 -19 32 -19 40 1 13 1 13 6 0 3 -8 12 -19 19
-23z m381 11 c-3 -8 -6 -5 -6 6 -1 11 2 17 5 13 3 -3 4 -12 1 -19z m53 18 c0
-3 -4 -8 -10 -11 -5 -3 -10 -1 -10 4 0 6 5 11 10 11 6 0 10 -2 10 -4z m-67
-28 c4 -14 10 -16 36 -8 22 6 30 5 28 -3 -1 -7 4 -11 11 -9 8 1 11 -2 7 -8 -3
-5 -13 -10 -21 -10 -8 0 -12 5 -9 10 3 6 1 10 -4 10 -6 0 -11 -5 -11 -11 0 -5
-4 -8 -9 -5 -5 4 -20 2 -33 -3 -19 -7 -16 -9 19 -9 24 0 47 -4 53 -7 14 -8 13
-35 -1 -35 -6 0 -9 7 -5 15 7 19 -39 21 -48 3 -5 -10 -7 -10 -12 0 -3 6 -10
12 -15 12 -5 0 -4 -8 2 -19 13 -19 39 -23 51 -6 5 6 8 6 8 -1 0 -11 -30 -41
-37 -36 -19 13 -46 47 -48 61 -1 9 4 26 12 38 13 19 12 22 -4 32 -16 9 -16 10
4 8 12 0 24 -9 26 -19z m92 2 c3 -5 1 -10 -4 -10 -6 0 -11 5 -11 10 0 6 2 10
4 10 3 0 8 -4 11 -10z m-725 -19 c0 -12 -20 -25 -27 -18 -7 7 6 27 18 27 5 0
9 -4 9 -9z m427 -13 c-3 -8 -6 -5 -6 6 -1 11 2 17 5 13 3 -3 4 -12 1 -19z m33
18 c0 -3 -4 -8 -10 -11 -5 -3 -10 -1 -10 4 0 6 5 11 10 11 6 0 10 -2 10 -4z
m273 -56 c-3 -11 -7 -20 -9 -20 -2 0 -4 9 -4 20 0 11 4 20 9 20 5 0 7 -9 4
-20z m-1043 6 c0 -2 -7 -9 -15 -16 -13 -11 -14 -10 -9 4 5 14 24 23 24 12z
m280 -24 c0 -5 -7 -17 -16 -28 -8 -10 -14 -14 -11 -9 2 6 7 18 10 28 7 17 17
23 17 9z m350 -106 c0 -2 -7 -6 -15 -10 -8 -3 -15 -1 -15 4 0 6 7 10 15 10 8
0 15 -2 15 -4z"/>
<path d="M3760 4442 c-8 -4 -16 -15 -18 -26 -2 -10 1 -15 7 -12 6 4 16 -2 23
-14 7 -11 16 -20 21 -20 4 0 5 5 2 10 -3 6 -2 10 4 10 6 0 8 7 5 15 -4 8 -12
15 -20 15 -8 0 -11 6 -8 15 7 16 6 17 -16 7z m30 -42 c0 -5 -2 -10 -4 -10 -3
0 -8 5 -11 10 -3 6 -1 10 4 10 6 0 11 -4 11 -10z"/>
<path d="M3540 4424 c-10 -12 -8 -14 14 -12 28 3 34 13 12 21 -8 3 -20 -1 -26
-9z"/>
<path d="M3733 4373 c4 -6 2 -13 -5 -15 -8 -3 -6 -6 4 -10 17 -7 19 15 3 29
-4 4 -5 3 -2 -4z"/>
<path d="M3769 4349 c-13 -8 -7 -11 17 -8 3 0 12 -8 20 -18 11 -14 13 -15 14
-3 0 21 -33 40 -51 29z"/>
<path d="M4416 4388 c3 -4 11 -5 19 -1 21 7 19 12 -4 10 -11 0 -18 -5 -15 -9z"/>
<path d="M4172 4348 c4 -8 -2 -20 -13 -27 -11 -6 -17 -16 -14 -22 4 -5 1 -8
-5 -7 -7 2 -14 -5 -15 -15 -3 -15 -1 -16 11 -6 8 6 21 8 31 4 38 -17 51 -15
46 5 -4 15 -9 17 -23 10 -9 -5 -20 -6 -24 -3 -10 10 -7 33 5 33 6 0 9 -7 5
-15 -4 -12 -2 -13 14 -2 11 6 16 13 10 15 -5 2 -10 10 -10 17 0 8 -5 17 -12
21 -7 5 -9 2 -6 -8z"/>
<path d="M4370 4299 c0 -5 5 -7 10 -4 6 3 10 8 10 11 0 2 -4 4 -10 4 -5 0 -10
-5 -10 -11z"/>
<path d="M4430 4294 c0 -9 -5 -12 -12 -8 -7 4 -8 3 -4 -5 6 -9 11 -9 22 0 16
13 18 29 4 29 -5 0 -10 -7 -10 -16z"/>
<path d="M4566 4292 c-3 -5 1 -9 9 -9 8 0 12 4 9 9 -3 4 -7 8 -9 8 -2 0 -6 -4
-9 -8z"/>
<path d="M4371 4254 c0 -11 3 -14 6 -6 3 7 2 16 -1 19 -3 4 -6 -2 -5 -13z"/>
<path d="M4327 4253 c-10 -9 -9 -23 1 -23 5 0 9 7 9 15 0 17 -1 18 -10 8z"/>
<path d="M4351 4244 c0 -11 3 -14 6 -6 3 7 2 16 -1 19 -3 4 -6 -2 -5 -13z"/>
<path d="M4416 4242 c-3 -5 1 -9 9 -9 8 0 12 4 9 9 -3 4 -7 8 -9 8 -2 0 -6 -4
-9 -8z"/>
<path d="M4573 4231 c0 -11 5 -18 9 -15 4 3 5 11 1 19 -7 21 -12 19 -10 -4z"/>
<path d="M4540 4201 c0 -6 -7 -8 -15 -5 -8 4 -15 2 -15 -4 0 -14 93 -9 98 6 2
6 -1 12 -8 12 -6 0 -8 -5 -4 -12 5 -8 2 -9 -9 -5 -10 4 -24 10 -32 13 -8 3
-15 1 -15 -5z"/>
<path d="M8862 5432 c7 -8 13 -21 14 -29 2 -9 8 -21 15 -27 9 -8 9 -6 0 12 -6
12 -9 22 -5 22 3 0 1 6 -5 13 -6 8 -9 16 -6 19 3 2 -2 5 -10 5 -12 0 -12 -3
-3 -15z"/>
<path d="M8907 5404 c-10 -11 3 -24 24 -24 23 0 25 15 3 24 -19 7 -19 7 -27 0z"/>
<path d="M7831 5325 c-22 -40 -41 -65 -51 -65 -20 0 -38 -20 -73 -82 -15 -26
-39 -55 -55 -66 -15 -11 -234 -144 -487 -297 -253 -152 -476 -287 -495 -299
-57 -38 -321 -201 -380 -236 -30 -18 -57 -35 -60 -39 -7 -9 -41 -29 -77 -45
-18 -8 -33 -20 -33 -25 0 -6 -6 -11 -14 -11 -8 0 -28 -12 -45 -26 -17 -14 -31
-23 -31 -19 0 4 -7 2 -15 -5 -8 -7 -13 -16 -10 -20 3 -4 -2 -11 -11 -14 -10
-4 -13 -2 -8 6 4 6 -4 3 -18 -8 -14 -10 -24 -22 -22 -25 2 -4 -4 -9 -14 -11
-16 -5 -29 -49 -14 -47 22 3 42 -2 42 -12 0 -5 -4 -8 -9 -5 -13 9 -33 -21 -28
-41 3 -13 5 -11 6 7 1 22 3 23 12 7 13 -23 29 -13 29 20 0 19 4 24 16 19 8 -3
12 -2 9 4 -3 6 -1 10 4 10 6 0 11 -4 11 -9 0 -4 11 -7 25 -6 14 2 23 -1 19 -6
-3 -5 -10 -7 -15 -4 -5 4 -9 1 -9 -6 0 -8 -4 -8 -13 -1 -15 13 -33 3 -32 -18
0 -8 -4 -18 -10 -22 -6 -5 -5 -8 3 -8 8 0 16 8 18 18 3 11 16 18 36 19 17 1
36 10 42 18 10 14 14 13 34 -9 12 -15 18 -26 13 -26 -6 0 -8 -12 -5 -26 3 -14
1 -24 -3 -21 -4 2 -17 1 -28 -4 -16 -6 -11 -8 18 -8 26 -1 36 3 31 10 -4 8 1
9 17 4 17 -4 20 -3 10 3 -7 5 -11 14 -7 20 3 6 0 13 -6 15 -9 4 -9 6 -1 6 6 1
18 -6 27 -14 17 -18 30 -20 20 -3 -5 7 -3 8 6 3 10 -6 9 -11 -5 -22 -16 -11
-17 -13 -3 -13 9 0 20 5 23 10 3 6 18 10 32 10 22 0 24 2 13 16 -8 8 -9 14 -4
13 5 -1 11 0 14 1 3 1 14 3 25 5 20 4 20 4 1 -11 -23 -16 -14 -19 14 -4 13 7
21 7 25 0 4 -6 10 -8 15 -5 5 3 21 0 37 -6 15 -6 37 -13 48 -15 11 -2 25 -11
32 -20 6 -8 17 -14 25 -13 23 4 88 -13 88 -23 0 -5 -4 -7 -9 -4 -5 4 -7 -3 -4
-14 3 -11 14 -20 24 -20 13 0 17 5 12 18 -5 15 -4 16 8 1 8 -9 25 -19 37 -22
21 -5 23 -3 18 16 -5 21 -5 21 9 3 13 -17 15 -18 15 -3 0 12 8 16 28 15 15 -1
30 -7 34 -12 4 -6 12 -5 22 3 9 8 16 9 16 3 0 -16 -31 -23 -46 -11 -12 9 -13
9 -9 -3 4 -10 19 -15 45 -14 24 0 34 4 27 9 -8 6 -5 7 6 3 10 -3 23 -6 28 -6
5 0 9 -8 9 -17 0 -16 -2 -16 -11 -3 -9 13 -10 13 -6 0 2 -8 12 -16 23 -16 10
-1 24 -3 30 -5 6 -2 21 7 33 21 l22 25 -11 -24 c-12 -23 -11 -23 19 -19 25 4
31 1 31 -14 0 -10 5 -18 11 -18 6 0 9 6 6 13 -3 8 3 13 18 13 13 0 21 -4 19
-8 -3 -5 -10 -6 -15 -3 -5 4 -9 -1 -9 -10 0 -12 6 -15 21 -10 14 5 25 2 30 -6
7 -11 9 -11 9 -1 0 7 4 11 9 8 5 -3 11 1 15 9 7 18 -5 20 -22 3 -8 -8 -12 -8
-12 -1 0 13 28 25 41 17 5 -3 7 -10 4 -15 -4 -5 3 -9 14 -9 15 0 19 -5 15 -17
-4 -11 -2 -14 3 -8 12 16 47 13 55 -5 5 -11 7 -9 7 8 1 19 6 23 29 20 15 -2
27 -9 27 -17 0 -8 8 -15 18 -17 13 -2 17 2 13 13 -6 13 -4 14 9 3 11 -9 13
-16 5 -24 -5 -5 -10 -15 -10 -20 0 -6 9 0 20 14 11 14 20 21 20 16 0 -5 7 -3
15 4 8 7 12 17 8 23 -3 6 -1 7 6 3 8 -5 7 -13 -4 -29 -20 -29 -19 -33 9 -33
18 0 22 4 18 21 -5 19 -4 19 20 -2 16 -15 28 -19 34 -13 9 9 14 -11 17 -68 0
-9 7 -8 25 4 15 10 21 11 17 3 -6 -9 -2 -11 12 -7 12 3 27 2 34 -3 8 -4 19 -3
26 3 10 8 12 7 7 -6 -3 -9 -2 -16 4 -16 6 0 18 -3 26 -6 12 -5 15 -2 10 10 -3
9 -1 16 4 16 6 0 9 -9 7 -20 -5 -24 4 -30 30 -19 14 5 16 8 4 8 -9 1 -16 8
-16 17 0 12 4 12 20 -4 15 -16 19 -37 22 -118 1 -55 -1 -107 -6 -116 -10 -18
-33 -19 -58 -4 -7 5 -16 5 -20 0 -11 -16 -41 -16 -41 1 0 21 -37 19 -43 -2 -4
-17 -5 -17 -6 0 -1 13 -10 17 -38 18 -21 1 -42 1 -46 0 -5 -1 -5 8 -2 20 6 19
4 21 -14 16 -13 -3 -19 -1 -15 5 4 6 -2 8 -16 3 -18 -6 -22 -4 -17 7 6 16 -27
18 -40 3 -5 -4 -2 -5 6 0 10 6 12 4 7 -4 -5 -7 -11 -10 -14 -7 -3 3 -11 1 -18
-5 -8 -7 -14 -7 -19 1 -3 5 -1 10 4 10 6 0 11 4 11 8 0 5 -7 9 -15 9 -8 0 -15
-4 -15 -8 0 -5 -7 -5 -17 -2 -12 5 -14 3 -8 -7 5 -9 4 -11 -4 -6 -6 4 -9 11
-6 16 12 20 -15 18 -41 -2 -19 -15 -24 -16 -15 -5 16 21 2 22 -24 3 -14 -10
-25 -11 -39 -4 -12 6 -16 6 -12 0 3 -5 -4 -12 -15 -15 -15 -4 -19 -2 -15 8 3
8 1 17 -4 20 -6 4 -10 0 -10 -8 0 -7 -7 -14 -15 -14 -8 0 -15 7 -15 16 0 10
-3 12 -8 6 -8 -12 -27 -13 -38 -2 -13 12 -42 8 -48 -8 -3 -8 -11 -15 -18 -14
-10 0 -10 2 0 6 6 2 12 11 12 19 0 10 -6 11 -26 4 -14 -6 -30 -8 -35 -5 -5 4
-6 -1 -3 -9 3 -9 2 -16 -4 -16 -18 0 -21 29 -4 39 9 6 12 11 5 11 -6 0 -15 -4
-18 -10 -4 -6 -15 -4 -30 6 -26 17 -45 12 -45 -12 0 -8 -4 -13 -9 -10 -5 4
-16 3 -25 0 -12 -5 -13 -9 -3 -19 7 -7 14 -12 17 -10 3 2 5 -18 6 -43 1 -45 2
-47 30 -45 16 1 39 4 51 8 17 5 25 1 38 -22 11 -20 14 -22 10 -6 -3 12 -1 24
4 28 7 4 8 -1 4 -11 -5 -14 -3 -16 12 -11 9 4 24 2 31 -4 7 -6 18 -8 23 -5 5
4 13 1 17 -5 4 -7 3 -9 -4 -5 -6 3 -13 2 -17 -4 -6 -9 27 -16 50 -10 6 2 35 2
65 1 30 -2 72 -3 93 -4 20 0 37 -4 37 -9 0 -5 -4 -6 -10 -3 -5 3 -10 2 -10 -2
0 -5 20 -8 45 -9 34 0 45 4 46 15 0 14 1 14 7 1 9 -19 38 -19 34 0 -3 11 1 10
16 -3 10 -9 29 -17 41 -17 19 0 20 -3 11 -21 -11 -19 -9 -20 24 -18 19 2 38 0
42 -4 4 -3 18 -4 30 -1 15 4 24 2 24 -6 0 -6 -5 -8 -12 -4 -7 5 -8 3 -3 -6 6
-10 11 -9 22 6 11 15 15 16 22 5 6 -10 10 -10 16 -2 5 9 13 8 30 -3 17 -12 26
-13 31 -4 4 7 3 8 -4 4 -7 -4 -12 -2 -12 3 0 6 7 11 15 11 8 0 15 -5 15 -11 0
-6 14 -24 31 -40 30 -28 32 -34 32 -107 1 -82 -14 -392 -19 -392 -2 0 -47 28
-101 63 -54 35 -132 83 -173 107 -365 210 -491 286 -577 346 -34 25 -70 48
-80 52 -40 16 -172 108 -172 120 -1 6 -8 13 -16 13 -26 2 -29 4 -85 37 -30 17
-72 48 -94 67 -21 19 -42 35 -47 35 -5 0 -9 7 -9 16 0 8 -5 12 -11 8 -10 -6
-71 50 -63 58 2 2 -6 5 -16 6 -44 4 -50 6 -50 15 0 5 -6 7 -14 4 -15 -6 -86
34 -231 127 -128 83 -179 119 -183 128 -2 5 -8 6 -13 2 -5 -3 -9 -1 -9 5 0 22
-104 33 -235 24 l-129 -8 116 -78 c85 -57 115 -83 111 -95 -3 -13 242 -172
1084 -704 743 -469 1089 -683 1091 -673 5 21 11 19 62 -15 25 -16 48 -30 53
-30 9 0 8 2899 -2 3022 l-6 87 -34 -64z m-1854 -1321 c-3 -3 -12 -4 -19 -1 -8
3 -5 6 6 6 11 1 17 -2 13 -5z m258 -64 c3 -5 2 -10 -4 -10 -5 0 -13 5 -16 10
-3 6 -2 10 4 10 5 0 13 -4 16 -10z m485 -70 c0 -5 -4 -10 -10 -10 -5 0 -10 5
-10 10 0 6 5 10 10 10 6 0 10 -4 10 -10z m176 -79 c0 -16 -4 -18 -18 -10 -19
10 -16 29 5 29 7 0 13 -9 13 -19z m93 15 c-2 -2 -15 -9 -29 -15 -24 -11 -24
-11 -6 3 16 13 49 24 35 12z m201 -50 c0 -7 -40 -14 -44 -7 -3 4 6 8 20 9 13
1 24 0 24 -2z m244 -49 c4 4 4 0 0 -10 -5 -14 -9 -15 -20 -6 -8 6 -14 16 -14
21 0 7 5 6 13 -1 8 -6 17 -8 21 -4z m-634 -258 c0 -5 4 -8 9 -5 5 3 11 -1 14
-9 4 -9 1 -12 -9 -8 -7 3 -14 0 -14 -6 0 -6 -5 -11 -11 -11 -8 0 -8 4 0 13 8
10 7 17 -1 25 -9 9 -9 12 0 12 7 0 12 -5 12 -11z m177 -41 c-3 -8 -6 -5 -6 6
-1 11 2 17 5 13 3 -3 4 -12 1 -19z m503 -64 c0 -2 -9 -4 -21 -4 -11 0 -18 4
-14 10 5 8 35 3 35 -6z m-463 -50 c-3 -3 -12 -4 -19 -1 -8 3 -5 6 6 6 11 1 17
-2 13 -5z m223 -34 c0 -5 -7 -7 -15 -4 -8 4 -15 8 -15 10 0 2 7 4 15 4 8 0 15
-4 15 -10z m425 -108 c-8 -8 -25 10 -19 20 4 6 9 5 15 -3 4 -7 6 -15 4 -17z"/>
<path d="M8063 5283 c-5 -16 -8 -396 -8 -845 0 -805 0 -817 20 -833 11 -9 14
-14 8 -10 -8 3 -13 0 -13 -8 0 -8 7 -18 16 -21 10 -4 13 -2 8 6 -5 7 -3 8 6 3
7 -4 16 -2 21 6 7 11 9 10 9 -3 0 -10 0 -21 -1 -24 0 -4 8 -12 19 -18 11 -6
30 -17 42 -24 19 -12 21 -12 15 0 -3 7 0 5 8 -5 16 -20 26 -12 22 16 -2 9 1
15 6 11 5 -3 9 -12 9 -19 0 -9 6 -12 15 -9 25 10 18 -34 -16 -92 -17 -30 -34
-52 -39 -49 -4 3 -13 -9 -20 -26 -11 -25 -18 -30 -37 -26 -15 3 -23 -1 -23 -9
0 -8 -7 -14 -15 -14 -8 0 -15 -4 -15 -10 0 -5 -7 -10 -15 -10 -8 0 -15 -3 -16
-7 -5 -59 -2 -93 8 -93 6 0 15 -5 19 -12 4 -7 3 -8 -4 -4 -14 9 -16 -9 -3 -33
7 -12 5 -41 -5 -87 -9 -38 -20 -103 -24 -144 -5 -41 -26 -142 -48 -223 -21
-82 -36 -145 -31 -140 4 4 77 134 162 288 85 154 320 579 522 945 376 680 538
980 533 986 -2 2 -26 -3 -53 -10 -44 -11 -54 -10 -80 5 -76 43 -674 389 -785
454 -69 40 -144 82 -167 94 l-43 21 -7 -27z"/>
<path d="M2570 4072 c0 -5 3 -12 8 -16 4 -4 7 -15 7 -24 0 -23 26 -82 36 -82
4 0 7 -14 7 -30 -1 -17 3 -34 7 -38 4 -4 5 3 2 16 -3 12 -2 22 1 22 4 0 8 20
8 45 1 25 -3 45 -8 45 -5 0 -6 5 -3 10 7 12 -20 42 -29 33 -3 -4 -6 1 -6 10 0
10 -7 17 -15 17 -8 0 -15 -4 -15 -8z m60 -92 c0 -5 -5 -10 -11 -10 -5 0 -7 5
-4 10 3 6 8 10 11 10 2 0 4 -4 4 -10z"/>
<path d="M5885 4021 c-3 -5 -1 -12 5 -16 5 -3 10 1 10 9 0 18 -6 21 -15 7z"/>
<path d="M5856 3992 c-3 -5 1 -9 9 -9 8 0 12 4 9 9 -3 4 -7 8 -9 8 -2 0 -6 -4
-9 -8z"/>
<path d="M5888 3978 c-7 -18 2 -39 13 -32 12 7 12 44 0 44 -5 0 -11 -6 -13
-12z"/>
<path d="M6082 3976 c8 -10 -23 -47 -34 -40 -4 3 -5 -2 -2 -10 8 -20 11 -20
41 4 14 11 20 20 14 20 -7 0 -10 4 -6 9 3 5 0 13 -7 17 -7 4 -10 4 -6 0z"/>
<path d="M5805 3960 c-3 -6 1 -7 9 -4 18 7 21 14 7 14 -6 0 -13 -4 -16 -10z"/>
<path d="M5845 3960 c-4 -6 -1 -9 7 -8 7 2 13 -4 12 -13 -1 -9 5 -16 12 -16 9
0 10 5 3 18 -12 24 -26 32 -34 19z"/>
<path d="M6089 3913 c-13 -16 -12 -17 4 -4 9 7 17 15 17 17 0 8 -8 3 -21 -13z"/>
<path d="M6025 3911 c-6 -5 -19 -11 -30 -14 -19 -4 -19 -5 1 -6 12 0 27 6 34
14 14 16 10 20 -5 6z"/>
<path d="M6496 3861 c-3 -5 8 -14 25 -20 23 -8 30 -8 26 2 -2 6 -8 12 -13 12
-5 0 -14 4 -21 8 -6 4 -14 3 -17 -2z"/>
<path d="M6711 3820 c0 -8 4 -24 9 -35 5 -13 9 -14 9 -5 0 8 -4 24 -9 35 -5
13 -9 14 -9 5z"/>
<path d="M4785 3795 c-16 -14 -44 -31 -61 -39 -53 -23 -89 -78 -91 -139 -1
-28 -3 -65 -4 -82 -1 -16 1 -81 5 -143 4 -63 9 -359 11 -659 2 -299 7 -590 10
-646 4 -57 1 -197 -6 -317 -8 -118 -12 -261 -11 -318 4 -129 -7 -152 -71 -152
-64 0 -150 47 -257 139 -52 45 -139 114 -195 154 -227 162 -546 411 -922 719
-139 114 -176 130 -205 90 -7 -10 -30 -30 -51 -44 l-38 -25 43 -39 c24 -21 50
-48 58 -61 21 -32 1704 -1372 1710 -1362 3 4 29 -10 58 -32 l52 -40 0 1511 c0
830 -1 1510 -2 1510 -2 0 -16 -11 -33 -25z m-161 -2561 c14 -37 -15 -40 -34
-3 -9 16 -7 19 9 19 10 0 22 -7 25 -16z"/>
<path d="M6670 3780 c18 -12 30 -13 30 -2 0 4 -10 9 -22 9 -18 2 -20 0 -8 -7z"/>
<path d="M6845 3749 c-3 -4 2 -6 10 -5 21 3 28 13 10 13 -9 0 -18 -4 -20 -8z"/>
<path d="M6930 3752 c0 -5 7 -9 15 -9 8 0 15 4 15 9 0 4 -7 8 -15 8 -8 0 -15
-4 -15 -8z"/>
<path d="M6898 3743 c7 -3 16 -2 19 1 4 3 -2 6 -13 5 -11 0 -14 -3 -6 -6z"/>
<path d="M7215 3720 c-3 -5 -1 -10 4 -10 6 0 11 5 11 10 0 6 -2 10 -4 10 -3 0
-8 -4 -11 -10z"/>
<path d="M6445 3639 c-6 -8 -4 -10 5 -4 10 6 12 4 6 -11 -6 -15 -5 -17 5 -6 9
9 10 15 2 23 -8 8 -13 7 -18 -2z"/>
<path d="M2709 3605 c-4 -29 -4 -41 4 -51 4 -7 7 -16 5 -20 -1 -5 1 -28 5 -51
7 -40 9 -43 40 -43 22 0 28 3 18 9 -7 5 -11 13 -8 18 3 5 0 21 -8 36 -7 14
-10 29 -7 33 4 5 -2 2 -12 -6 -11 -8 -17 -10 -13 -4 3 6 0 28 -8 50 -8 21 -15
35 -16 29z"/>
<path d="M7509 3588 c-12 -22 -11 -22 7 -8 10 8 20 15 22 16 2 1 -1 5 -7 8 -5
4 -15 -4 -22 -16z"/>
<path d="M6470 3590 c0 -5 7 -10 16 -10 8 0 12 5 9 10 -3 6 -10 10 -16 10 -5
0 -9 -4 -9 -10z"/>
<path d="M6515 3580 c-3 -5 -1 -10 4 -10 6 0 11 5 11 10 0 6 -2 10 -4 10 -3 0
-8 -4 -11 -10z"/>
<path d="M6554 3552 c-17 -11 -25 -52 -9 -46 7 3 16 0 20 -5 3 -6 11 -9 16 -6
5 4 6 -7 3 -23 -5 -27 -3 -29 20 -29 14 0 26 4 26 9 0 6 -9 8 -20 5 -24 -6
-27 8 -4 21 15 8 15 10 -1 15 -9 4 -14 11 -11 16 3 5 -2 8 -12 7 -12 -1 -16 5
-15 22 3 24 3 25 -13 14z"/>
<path d="M6630 3479 c0 -5 5 -7 10 -4 6 3 10 8 10 11 0 2 -4 4 -10 4 -5 0 -10
-5 -10 -11z"/>
<path d="M6715 3461 c-11 -5 -26 -6 -32 -4 -7 3 -13 1 -13 -5 0 -14 32 -20 55
-11 11 4 16 8 10 8 -5 1 -3 6 5 11 18 11 3 12 -25 1z"/>
<path d="M7240 3450 c0 -5 5 -10 11 -10 5 0 7 5 4 10 -3 6 -8 10 -11 10 -2 0
-4 -4 -4 -10z"/>
<path d="M6645 3440 c3 -5 8 -10 11 -10 2 0 4 5 4 10 0 6 -5 10 -11 10 -5 0
-7 -4 -4 -10z"/>
<path d="M7415 3430 c-3 -5 -1 -10 4 -10 6 0 11 5 11 10 0 6 -2 10 -4 10 -3 0
-8 -4 -11 -10z"/>
<path d="M2741 3421 c1 -15 18 -45 18 -34 1 6 8 18 15 26 13 13 12 15 -10 15
-13 0 -24 -3 -23 -7z"/>
<path d="M6575 3410 c-3 -6 1 -7 9 -4 18 7 21 14 7 14 -6 0 -13 -4 -16 -10z"/>
<path d="M6678 3413 c7 -3 16 -2 19 1 4 3 -2 6 -13 5 -11 0 -14 -3 -6 -6z"/>
<path d="M2770 3380 c0 -5 5 -10 11 -10 5 0 7 5 4 10 -3 6 -8 10 -11 10 -2 0
-4 -4 -4 -10z"/>
<path d="M6900 3279 c0 -5 5 -7 10 -4 6 3 10 8 10 11 0 2 -4 4 -10 4 -5 0 -10
-5 -10 -11z"/>
<path d="M7086 3253 c-6 -14 -5 -15 5 -6 7 7 10 15 7 18 -3 3 -9 -2 -12 -12z"/>
<path d="M7120 3250 c0 -5 5 -10 11 -10 5 0 7 5 4 10 -3 6 -8 10 -11 10 -2 0
-4 -4 -4 -10z"/>
<path d="M7550 3166 c0 -3 9 -10 20 -16 11 -6 20 -8 20 -6 0 3 -9 10 -20 16
-11 6 -20 8 -20 6z"/>
<path d="M7785 2135 c-5 -2 -59 -9 -120 -14 l-110 -10 -70 -73 c-38 -40 -126
-134 -195 -207 -124 -133 -258 -251 -286 -251 -8 0 -14 -4 -14 -9 0 -7 -84
-20 -180 -27 -19 -2 -68 -5 -109 -8 -40 -3 -79 -10 -86 -16 -7 -6 -33 -9 -59
-8 -32 1 -52 -4 -64 -15 -15 -16 -15 -17 6 -17 13 0 20 4 17 10 -9 14 8 13 23
-2 9 -9 12 -9 12 0 0 7 5 12 11 12 5 0 7 -4 4 -10 -4 -6 5 -10 20 -10 18 0 24
4 19 13 -5 9 -4 9 5 1 7 -6 31 -8 61 -4 27 3 47 3 44 -2 -3 -4 0 -8 5 -8 6 0
11 5 11 10 0 6 5 10 11 10 5 0 7 -4 4 -10 -3 -5 1 -10 9 -10 8 0 18 5 21 10 3
6 27 10 53 10 36 0 43 -3 32 -11 -11 -8 -6 -9 23 -7 50 5 49 -14 -5 -75 l-43
-47 -185 -1 c-118 -1 -190 -6 -199 -13 -11 -8 -13 -8 -7 2 8 13 -6 17 -18 5
-11 -12 -50 -10 -58 2 -5 7 -8 6 -8 -1 0 -8 -53 -12 -167 -13 -220 -4 -245 -5
-262 -15 -10 -6 -12 -5 -7 2 10 16 -7 15 -23 0 -11 -10 -13 -10 -7 0 5 7 1 12
-9 12 -9 0 -14 -4 -10 -9 3 -6 -3 -9 -14 -8 -11 0 -17 5 -15 9 8 12 -100 5
-108 -7 -5 -6 -8 -5 -8 3 0 6 -8 12 -18 12 -10 0 -24 -6 -31 -12 -11 -11 -12
-10 -6 2 8 13 6 13 -7 2 -12 -9 -18 -10 -23 -2 -4 6 -12 7 -18 2 -7 -4 -36 -7
-64 -6 -29 0 -53 -2 -53 -7 0 -5 -7 -5 -17 -2 -10 4 -14 2 -9 -5 4 -7 -1 -10
-14 -7 -20 4 -50 -18 -50 -37 0 -6 10 -8 26 -4 16 4 23 3 20 -3 -4 -6 4 -8 18
-5 14 2 31 -3 40 -12 12 -11 16 -12 16 -2 0 8 3 9 8 3 8 -11 82 -16 82 -6 0 3
11 7 25 7 14 1 23 -1 21 -5 -2 -3 15 -7 37 -9 31 -1 38 1 27 8 -13 8 -13 10 2
10 9 0 19 -6 21 -12 4 -10 6 -10 6 0 1 6 6 12 12 12 5 0 7 -5 4 -10 -3 -6 -1
-10 4 -10 6 0 11 5 11 10 0 6 8 10 18 10 14 0 15 -2 2 -10 -13 -8 -12 -10 3
-10 9 0 17 5 17 10 0 14 33 12 49 -3 8 -6 11 -7 8 -1 -3 6 0 11 8 11 8 0 12
-4 9 -9 -3 -4 6 -8 20 -8 13 0 26 6 29 13 3 10 9 10 26 0 11 -7 26 -13 33 -12
7 0 4 4 -7 9 -15 6 -8 9 27 9 26 1 50 -3 53 -9 3 -5 12 -10 18 -10 8 0 7 3 -2
9 -9 6 -2 10 22 13 29 3 34 1 25 -9 -7 -9 -7 -13 0 -13 6 0 13 4 16 8 5 8 48
12 160 16 23 0 41 -4 43 -11 6 -15 39 -17 48 -3 3 6 12 10 18 10 7 0 6 -4 -3
-10 -22 -14 5 -13 32 1 15 8 19 8 14 0 -4 -6 -1 -11 8 -11 8 0 16 5 18 11 3 8
11 8 27 -2 19 -11 25 -11 28 -1 3 6 9 12 14 12 6 0 7 -5 3 -11 -4 -7 1 -7 16
1 15 8 20 8 16 1 -4 -6 -2 -11 3 -11 6 0 11 5 11 10 0 15 56 12 69 -4 10 -11
5 -19 -22 -40 -35 -27 -74 -36 -61 -14 5 8 2 9 -12 4 -33 -13 -69 -14 -76 -2
-5 8 -8 7 -8 -3 0 -11 -3 -11 -17 0 -9 8 -14 9 -10 2 5 -9 -22 -11 -107 -10
-63 1 -112 -1 -110 -5 2 -4 0 -9 -5 -12 -5 -4 -12 -3 -15 2 -7 12 -127 7 -153
-6 -15 -9 -24 -9 -28 -1 -4 6 -14 7 -24 3 -25 -11 -121 -10 -121 1 0 7 -3 6
-8 0 -4 -7 -79 -10 -201 -10 -149 0 -198 -3 -208 -13 -9 -10 -13 -10 -13 -1 0
8 -3 9 -14 0 -7 -6 -24 -10 -36 -9 -34 4 -39 -26 -41 -258 l-2 -204 -43 -40
-44 -40 50 0 50 0 0 -45 0 -45 443 0 442 0 81 83 c75 75 1094 1196 1244 1366
36 41 89 101 118 133 44 49 60 71 50 67 -2 0 -7 -2 -13 -4z"/>
</g>
</svg>
