<svg width="390" height="126" viewBox="0 0 390 126" fill="none" xmlns="http://www.w3.org/2000/svg">
<g filter="url(#filter0_i_78_161)">
<path d="M-13.3653 39.9672C-33.0966 40.0308 -53.8747 50.9519 -61.7973 56.4045C-73.0222 66.5635 -64.0482 86.2922 -59.9127 90.6284C-55.7773 94.9645 -48.4127 99.7327 -32.6721 97.3906C-3.9458 91.1859 13.653 88.348 47.5323 92.9742C70.4252 96.1002 85.7923 102.966 117.376 94.4397C135.818 86.9325 176.004 76.8146 199.385 79.9896C223.606 83.2788 252.624 83.3203 265.902 80.9499C283.155 75.6392 323.569 67.309 347.203 76.4731C370.836 85.6373 401.282 84.6099 413.551 82.9507C416.096 68.2861 419.177 39.0085 411.143 39.2148C401.101 39.4727 403.262 41.616 387.975 35.0807C375.746 29.8525 353.83 26.5676 344.4 25.5786C330.779 24.5582 296.977 24.9637 270.742 34.7492C237.948 46.9812 239.92 45.6923 221.592 46.7015C203.697 47.6869 172.091 32.3126 150.49 30.9447C128.888 29.5768 111.927 46.8385 86.4146 51.4892C60.9023 56.1399 45.9775 50.47 37.9614 47.5671C29.9454 44.6643 11.2988 39.8878 -13.3653 39.9672Z" fill="#F1F0F0"/>
</g>
<path d="M10.849 63.0161C8.95562 63.2417 -14.4643 63.6306 -24.0424 66.2357L-21.7315 71.7266L10.702 67.4005C11.7639 67.4361 12.2793 66.2577 12.2821 65.1127C12.2848 63.992 11.7965 62.9032 10.849 63.0161Z" fill="#929292"/>
<path d="M129.567 61.9394C127.674 62.165 104.254 62.5539 94.6758 65.159L96.9868 70.6499L129.42 66.3238C130.482 66.3594 130.998 65.181 131 64.036C131.003 62.9153 130.515 61.8266 129.567 61.9394Z" fill="#929292"/>
<path d="M218.23 58.5514C216.323 58.5877 192.981 56.6481 183.191 58.2888L184.945 63.982L217.648 62.8994C218.701 63.0403 219.331 61.919 219.447 60.7799C219.562 59.665 219.184 58.5332 218.23 58.5514Z" fill="#929292"/>
<defs>
<filter id="filter0_i_78_161" x="-67.2354" y="25.1969" width="483.553" height="74.5489" filterUnits="userSpaceOnUse" color-interpolation-filters="sRGB">
<feFlood flood-opacity="0" result="BackgroundImageFix"/>
<feBlend mode="normal" in="SourceGraphic" in2="BackgroundImageFix" result="shape"/>
<feColorMatrix in="SourceAlpha" type="matrix" values="0 0 0 0 0 0 0 0 0 0 0 0 0 0 0 0 0 0 127 0" result="hardAlpha"/>
<feOffset dy="1.18913"/>
<feGaussianBlur stdDeviation="2.02151"/>
<feComposite in2="hardAlpha" operator="arithmetic" k2="-1" k3="1"/>
<feColorMatrix type="matrix" values="0 0 0 0 0 0 0 0 0 0 0 0 0 0 0 0 0 0 0.4 0"/>
<feBlend mode="normal" in2="shape" result="effect1_innerShadow_78_161"/>
</filter>
</defs>
</svg>
