<svg width="394" height="268" viewBox="0 0 394 268" fill="none" xmlns="http://www.w3.org/2000/svg">
<path d="M42 40C30.5268 40 9.21951 26.6667 0 20V268H393C393.167 187 393.4 25.3 393 26.5C392.6 27.7 380.833 37 375 41.5C368.333 46.1667 352.5 53.1 342.5 43.5C330 31.5 331 29 320 17.5C311.2 8.3 293 5 285 4.5C274.2 4.1 268.5 6.5 264 10C260.833 13 251.7 20.6 240.5 27C230.5 33.5 216.5 35.8333 210.5 35.5C206.167 35.5 195.1 33.7 185.5 26.5C173.5 17.5 175 14 164.5 7.5C154 1 147.5 1.5 143.5 1C139.5 0.5 130 3 120.5 7.5C112.9 11.1 94.6667 22.6667 86.5 28C71.3 37.2 60.5 40 42 40Z" fill="#9030CC"/>
</svg>
