<svg width="390" height="126" viewBox="0 0 390 126" fill="none" xmlns="http://www.w3.org/2000/svg">
<g filter="url(#filter0_i_78_161)">
<path d="M-13.3653 39.9672C-33.0966 40.0308 -53.8747 50.9519 -61.7973 56.4045C-73.0222 66.5635 -64.0482 86.2922 -59.9127 90.6284C-55.7773 94.9645 -48.4127 99.7327 -32.6721 97.3906C-3.9458 91.1859 13.653 88.348 47.5323 92.9742C70.4252 96.1002 85.7923 102.966 117.376 94.4397C135.818 86.9325 176.004 76.8146 199.385 79.9896C223.606 83.2788 252.624 83.3203 265.902 80.9499C283.155 75.6392 323.569 67.309 347.203 76.4731C370.836 85.6373 401.282 84.6099 413.551 82.9507C416.096 68.2861 419.177 39.0085 411.143 39.2148C401.101 39.4727 403.262 41.616 387.975 35.0807C375.746 29.8525 353.83 26.5676 344.4 25.5786C330.779 24.5582 296.977 24.9637 270.742 34.7492C237.948 46.9812 239.92 45.6923 221.592 46.7015C203.697 47.6869 172.091 32.3126 150.49 30.9447C128.888 29.5768 111.927 46.8385 86.4146 51.4892C60.9023 56.1399 45.9775 50.47 37.9614 47.5671C29.9454 44.6643 11.2988 39.8878 -13.3653 39.9672Z" fill="#F1F0F0"/>
</g>
<path d="M10.849 63.0161C8.95562 63.2417 -14.4643 63.6306 -24.0424 66.2357L-21.7315 71.7266L10.702 67.4005C11.7639 67.4361 12.2793 66.2577 12.2821 65.1127C12.2848 63.992 11.7965 62.9032 10.849 63.0161Z" fill="#929292"/>
<path d="M129.567 61.9394C127.674 62.165 104.254 62.5539 94.6758 65.159L96.9868 70.6499L129.42 66.3238C130.482 66.3594 130.998 65.181 131 64.036C131.003 62.9153 130.515 61.8266 129.567 61.9394Z" fill="#929292"/>
<path d="M218.23 58.5514C216.323 58.5877 192.981 56.6481 183.191 58.2888L184.945 63.982L217.648 62.8994C218.701 63.0403 219.331 61.919 219.447 60.7799C219.562 59.665 219.184 58.5332 218.23 58.5514Z" fill="#929292"/>
<path d="M35.6821 62.7072C37.7825 62.5574 39.4115 62.8178 40.5692 63.4881C41.734 64.1502 42.3659 65.1762 42.465 66.5662C42.5134 67.2457 42.4739 67.8345 42.3464 68.3326C42.2261 68.8223 42.0352 69.2473 41.7737 69.6074C41.5194 69.9593 41.2033 70.2612 40.8254 70.5133C40.4547 70.757 40.047 70.9723 39.6025 71.1592C39.9251 71.2216 40.258 71.4268 40.601 71.7749C40.9517 72.1225 41.3127 72.5586 41.6838 73.0832C42.0544 73.6 42.4332 74.1784 42.8203 74.8183C43.2074 75.4582 43.5951 76.1058 43.9833 76.7611C44.3792 77.4159 44.7738 78.0514 45.167 78.6675C45.5679 79.2832 45.9599 79.8296 46.3432 80.3067C46.7342 80.7833 47.1181 81.1596 47.4947 81.4354C47.8791 81.7107 48.2489 81.8357 48.6042 81.8104C48.7586 81.7994 48.907 81.7578 49.0493 81.6855C49.1993 81.6127 49.3146 81.5424 49.3952 81.4746L49.6706 81.909C49.5222 82.005 49.3396 82.1111 49.1229 82.2275C48.9066 82.3515 48.6512 82.4706 48.3567 82.5848C48.0621 82.6989 47.7278 82.8003 47.3539 82.8891C46.9882 82.985 46.5775 83.0492 46.1219 83.0817C45.3728 83.135 44.6823 82.9747 44.0503 82.6006C43.4188 82.2343 42.8601 81.692 42.3743 80.9738C41.8791 80.233 41.3888 79.453 40.9036 78.6338C40.4183 77.8146 39.9331 76.9955 39.4478 76.1763C38.9703 75.3566 38.4902 74.5565 38.0077 73.7759C37.5329 72.9948 37.0579 72.2642 36.5825 71.584L36.6413 71.1025C37.1052 71.1859 37.4971 71.1308 37.817 70.9372C38.1447 70.7431 38.4032 70.4492 38.5924 70.0554C38.7811 69.6539 38.9058 69.1715 38.9666 68.6084C39.0351 68.0447 39.0462 67.4385 39 66.7899C38.9669 66.3265 38.8859 65.8977 38.7569 65.5033C38.6274 65.1012 38.4592 64.7561 38.2524 64.4682C38.0528 64.1719 37.8195 63.948 37.5525 63.7962C37.2851 63.6368 36.993 63.5684 36.6764 63.5909C36.4293 63.6085 36.2274 63.6617 36.0708 63.7505C35.9213 63.831 35.8043 63.9325 35.7199 64.0549C35.6349 64.1696 35.5778 64.294 35.5486 64.428C35.5265 64.5538 35.5196 64.6746 35.5278 64.7904L36.507 78.5281C36.5494 79.1227 36.4219 79.5664 36.1246 79.8592C35.8349 80.1515 35.3697 80.3205 34.7287 80.3662C34.0801 80.4124 33.5917 80.3114 33.2635 80.0631C32.9354 79.8149 32.7501 79.3935 32.7077 78.7989L31.7203 64.9454C31.69 64.5207 31.3815 64.3292 30.7946 64.3711C30.3699 64.4013 29.9421 64.4978 29.5113 64.6604C29.0877 64.8148 28.7062 65.0166 28.367 65.2659C28.0349 65.5069 27.7679 65.7898 27.566 66.1146C27.3635 66.4318 27.2749 66.7679 27.3002 67.1232C27.3178 67.3703 27.3628 67.565 27.435 67.7073C27.5149 67.8491 27.6001 67.9555 27.6906 68.0267C27.7805 68.0901 27.8687 68.1304 27.9553 68.1475C28.0491 68.1564 28.1153 68.1594 28.1539 68.1567C28.347 68.1429 28.5031 68.1007 28.6222 68.0301C28.7408 67.9518 28.8478 67.8744 28.9433 67.7977C29.0381 67.7133 29.1258 67.6372 29.2064 67.5694C29.2941 67.4933 29.3959 67.4511 29.5117 67.4428C29.6044 67.4362 29.7025 67.4525 29.8062 67.4917C29.9171 67.5226 30.0183 67.5814 30.1099 67.668C30.2091 67.754 30.2951 67.8721 30.3679 68.0221C30.4402 68.1644 30.484 68.3437 30.4994 68.5599C30.5214 68.8688 30.4786 69.1396 30.371 69.3724C30.2712 69.6046 30.1302 69.8048 29.9482 69.973C29.7733 70.1329 29.5651 70.2603 29.3235 70.3551C29.089 70.4417 28.8521 70.4935 28.6127 70.5106C28.2421 70.537 27.9017 70.4991 27.5918 70.3971C27.289 70.2867 27.0254 70.127 26.8009 69.9179C26.5764 69.7088 26.3994 69.4575 26.2698 69.1641C26.1403 68.8706 26.0634 68.554 26.0392 68.2142C25.9935 67.5733 26.073 67.0011 26.2777 66.4975C26.4819 65.9862 26.7875 65.5376 27.1946 65.1515C27.6095 64.7649 28.1136 64.4341 28.7072 64.1589C29.3002 63.8761 29.9624 63.6387 30.6938 63.4469C31.4252 63.255 32.2098 63.1021 33.0477 62.9881C33.8927 62.8657 34.7708 62.7721 35.6821 62.7072ZM45.9571 73.4189C45.885 72.4073 45.9687 71.5127 46.2082 70.735C46.4471 69.9496 46.7917 69.2847 47.2418 68.7404C47.6997 68.1955 48.2439 67.7725 48.8744 67.4714C49.5049 67.1704 50.1754 66.9945 50.8858 66.9439C51.5962 66.8933 52.2843 66.9645 52.95 67.1577C53.6152 67.3431 54.2084 67.6617 54.7295 68.1135C55.2584 68.5648 55.6963 69.1545 56.0431 69.8826C56.3894 70.603 56.5989 71.4729 56.6715 72.4922C56.7436 73.5038 56.6607 74.41 56.4229 75.2109C56.185 76.0117 55.838 76.6962 55.3818 77.2642C54.9333 77.8317 54.3946 78.2776 53.7657 78.6018C53.1363 78.9183 52.4664 79.1019 51.756 79.1526C51.0456 79.2032 50.3569 79.1242 49.6901 78.9156C49.0227 78.6993 48.4238 78.3539 47.8932 77.8795C47.3704 77.4045 46.935 76.7952 46.5871 76.0517C46.2392 75.3081 46.0292 74.4305 45.9571 73.4189ZM53.0725 72.7953C53.0284 72.1776 52.9629 71.5846 52.8758 71.0165C52.7959 70.4401 52.6782 69.9323 52.5228 69.4932C52.3673 69.0542 52.1644 68.7116 51.914 68.4656C51.6631 68.2118 51.3484 68.0984 50.97 68.1254C50.5916 68.1523 50.2968 68.3169 50.0855 68.6192C49.8736 68.9137 49.7225 69.297 49.6319 69.7691C49.5408 70.2336 49.4969 70.7606 49.5001 71.3502C49.5034 71.9398 49.527 72.5435 49.571 73.1613C49.615 73.7791 49.6776 74.3839 49.7585 74.9757C49.839 75.5599 49.9575 76.0792 50.1141 76.5337C50.2707 76.9882 50.475 77.3501 50.727 77.6193C50.9785 77.8808 51.2934 77.998 51.6718 77.9711C52.0502 77.9441 52.3447 77.7756 52.5555 77.4657C52.7662 77.1557 52.9163 76.757 53.0057 76.2694C53.0952 75.7818 53.1377 75.2355 53.1334 74.6304C53.1368 74.0248 53.1165 73.4131 53.0725 72.7953ZM64.0682 72.0582C64.0544 71.8651 63.9822 71.7228 63.8515 71.6312C63.7208 71.5396 63.5589 71.5007 63.3658 71.5145C63.0956 71.5337 62.8413 71.614 62.603 71.7551C62.3724 71.8957 62.173 72.0923 62.0047 72.3449C61.8364 72.5975 61.7109 72.9053 61.6281 73.2682C61.5448 73.6234 61.5196 74.0327 61.5526 74.496C61.5846 74.9439 61.6419 75.3124 61.7246 75.6014C61.815 75.8899 61.9206 76.1191 62.0413 76.289C62.1693 76.4506 62.3091 76.5609 62.4608 76.62C62.6124 76.679 62.7694 76.7028 62.9315 76.6912C63.1323 76.6769 63.3179 76.6132 63.4884 76.5002C63.6583 76.3794 63.8031 76.2333 63.9228 76.0617C64.0425 75.8902 64.1338 75.7013 64.1967 75.495C64.2596 75.2888 64.2839 75.0852 64.2696 74.8845L64.0682 72.0582ZM61.8649 67.116C61.6023 67.1347 61.3613 67.1829 61.1417 67.2607C60.9222 67.3384 60.7346 67.4294 60.5791 67.5336C60.4235 67.6378 60.3035 67.7512 60.2191 67.8736C60.1342 67.9883 60.0953 68.0959 60.1024 68.1963C60.1107 68.3121 60.1746 68.3929 60.2943 68.4387C60.4212 68.4762 60.5604 68.5245 60.7121 68.5836C60.8632 68.6349 61.0011 68.7182 61.1258 68.8335C61.2576 68.9405 61.3323 69.1176 61.3499 69.3647C61.3615 69.5269 61.3374 69.6799 61.2778 69.8239C61.2254 69.9595 61.1451 70.0856 61.037 70.2019C60.9361 70.31 60.8106 70.4005 60.6605 70.4732C60.5177 70.5378 60.3651 70.5758 60.203 70.5874C59.7705 70.6182 59.4087 70.4965 59.1175 70.2223C58.8341 69.9476 58.675 69.567 58.6403 69.0805C58.6068 68.6094 58.7017 68.1991 58.9251 67.8494C59.148 67.492 59.4487 67.1912 59.8271 66.9469C60.2132 66.7021 60.6537 66.5116 61.1485 66.3754C61.6427 66.2315 62.1408 66.1417 62.6427 66.1059C63.2451 66.063 63.825 66.0876 64.3827 66.1798C64.9403 66.272 65.4378 66.4461 65.8751 66.7021C66.3202 66.9576 66.682 67.2965 66.9605 67.7191C67.2467 68.1411 67.4121 68.6648 67.4567 69.2903L67.9231 75.8348C67.9281 75.9043 67.9374 75.9813 67.9512 76.0657C67.965 76.1501 67.9898 76.2259 68.0256 76.2932C68.0615 76.3605 68.1119 76.4151 68.177 76.457C68.2421 76.499 68.3326 76.5158 68.4484 76.5075C68.5874 76.4976 68.7112 76.4384 68.8199 76.3297C68.9357 76.2128 69.0361 76.097 69.1211 75.9823L69.428 76.2049C69.3238 76.3753 69.1974 76.5628 69.049 76.7674C68.9006 76.972 68.7166 77.1675 68.4971 77.3539C68.2775 77.5403 68.0174 77.7025 67.7168 77.8403C67.4162 77.9782 67.0689 78.0611 66.6751 78.0892C66.1886 78.1239 65.746 78.0118 65.3472 77.7531C64.9479 77.4866 64.6689 77.0563 64.5102 76.4623C64.2867 76.8119 64.0478 77.1084 63.7935 77.3516C63.5469 77.5942 63.2896 77.795 63.0215 77.9538C62.7534 78.1126 62.4787 78.2331 62.1974 78.3152C61.9238 78.3968 61.6442 78.4478 61.3584 78.4681C60.9878 78.4946 60.6246 78.4622 60.2688 78.3712C59.9131 78.2801 59.5874 78.1209 59.2918 77.8936C59.0033 77.6581 58.7599 77.3456 58.5614 76.9561C58.3706 76.5661 58.2545 76.0816 58.2133 75.5024C58.1632 74.7997 58.2612 74.2145 58.5072 73.7468C58.7533 73.2791 59.0896 72.8787 59.516 72.5456C59.9496 72.2043 60.4444 71.9051 61.0004 71.6482C61.5641 71.3907 62.1387 71.1207 62.7239 70.8384C63.1591 70.6289 63.4648 70.3432 63.6408 69.9814C63.8239 69.6113 63.9023 69.241 63.8759 68.8703C63.8352 68.2989 63.6328 67.8554 63.2688 67.5398C62.912 67.216 62.444 67.0747 61.8649 67.116ZM77.0786 70.8398C77.0726 70.7548 77.0605 70.585 77.0423 70.3301C77.0236 70.0676 76.9947 69.7708 76.9556 69.4399C76.9159 69.1012 76.8633 68.744 76.7977 68.3684C76.7321 67.9928 76.6453 67.6458 76.5372 67.3276C76.3348 67.1014 76.1112 66.9039 75.8663 66.7351C75.6286 66.558 75.3322 66.4821 74.977 66.5074C74.3746 66.5503 73.9587 66.9758 73.7291 67.7838C73.5072 68.5913 73.4552 69.8213 73.573 71.4738C73.6247 72.1997 73.703 72.8616 73.8077 73.4595C73.9201 74.0569 74.0574 74.5671 74.2195 74.9902C74.3893 75.4127 74.587 75.7363 74.8125 75.9608C75.0458 76.1848 75.3092 76.2863 75.6026 76.2654C76.8381 76.1773 77.3301 74.3688 77.0786 70.8398ZM76.5764 65.7531C76.3746 64.9913 76.1188 64.2878 75.8089 63.6424C75.4984 62.9893 75.1406 62.4327 74.7352 61.9726C74.3376 61.512 73.8934 61.1595 73.4025 60.915C72.9194 60.6701 72.4075 60.5668 71.867 60.6054C71.5581 60.6274 71.279 60.6861 71.0297 60.7815C70.7881 60.8763 70.5784 60.9844 70.4008 61.1057C70.2226 61.2193 70.0754 61.3307 69.959 61.4399C69.8497 61.5408 69.7697 61.6164 69.719 61.6665L69.3889 61.2826C69.5572 61.03 69.7652 60.7901 70.0129 60.5629C70.2683 60.3351 70.5491 60.1366 70.8552 59.9673C71.1614 59.798 71.4852 59.6585 71.8266 59.5488C72.1758 59.4386 72.5241 59.371 72.8716 59.3463C74.0145 59.2648 75.0362 59.4442 75.9369 59.8845C76.837 60.3171 77.6091 60.9684 78.2532 61.8383C78.8973 62.7082 79.412 63.7775 79.7974 65.0462C80.1827 66.3149 80.4316 67.7369 80.5438 69.3122C80.6346 70.5863 80.5832 71.7154 80.3894 72.6994C80.2034 73.6828 79.8944 74.5198 79.4624 75.2103C79.0299 75.893 78.4818 76.425 77.8182 76.806C77.1618 77.1788 76.405 77.3957 75.5478 77.4568C74.9532 77.4992 74.3396 77.4381 73.707 77.2737C73.0815 77.1009 72.5008 76.793 71.9647 76.3501C71.4363 75.9065 70.9864 75.3099 70.6147 74.5603C70.2425 73.8029 70.0162 72.8605 69.9359 71.7331C69.8665 70.7601 69.94 69.8856 70.1564 69.1095C70.3804 68.333 70.7057 67.6695 71.1321 67.1191C71.558 66.5609 72.0664 66.125 72.6571 65.8112C73.2474 65.4898 73.8823 65.3048 74.5618 65.2564C74.8244 65.2377 75.0615 65.244 75.2733 65.2755C75.4846 65.2993 75.6696 65.3365 75.8285 65.3873C75.9873 65.4381 76.1274 65.4979 76.2487 65.5669C76.3695 65.6281 76.4787 65.6902 76.5764 65.7531Z" fill="black"/>
<path d="M151.435 72.0193C150.791 72.1032 150.297 72.0309 149.955 71.8022C149.613 71.5734 149.404 71.1635 149.327 70.5724L147.423 55.9479C147.18 56.0029 146.879 56.089 146.519 56.206C146.166 56.3144 145.798 56.456 145.415 56.6308C145.032 56.8056 144.652 57.0073 144.276 57.2358C143.899 57.4567 143.568 57.7028 143.283 57.9741C142.997 58.2377 142.773 58.5245 142.611 58.8345C142.448 59.1446 142.389 59.4723 142.434 59.8178C142.466 60.0634 142.522 60.2552 142.603 60.3931C142.691 60.5299 142.782 60.6312 142.876 60.697C142.97 60.7551 143.06 60.7902 143.148 60.8022C143.242 60.8056 143.308 60.8048 143.347 60.7998C143.539 60.7748 143.692 60.7236 143.807 60.6462C143.921 60.5611 144.023 60.4775 144.114 60.3954C144.203 60.3057 144.287 60.2246 144.363 60.1522C144.446 60.0711 144.545 60.023 144.66 60.008C144.753 59.996 144.852 60.0066 144.957 60.0397C145.07 60.064 145.174 60.1168 145.271 60.1979C145.375 60.2781 145.468 60.3909 145.549 60.5364C145.629 60.6743 145.684 60.8507 145.712 61.0657C145.752 61.3727 145.725 61.6456 145.631 61.8842C145.545 62.1218 145.416 62.3299 145.244 62.5084C145.078 62.6783 144.878 62.8176 144.642 62.9263C144.413 63.0264 144.18 63.0919 143.942 63.1229C143.573 63.1709 143.231 63.153 142.916 63.0691C142.607 62.9766 142.335 62.8325 142.099 62.6369C141.862 62.4412 141.671 62.2007 141.524 61.9153C141.378 61.6299 141.283 61.3183 141.239 60.9805C141.122 60.0823 141.267 59.275 141.673 58.5584C142.086 57.8333 142.694 57.1998 143.498 56.6579C144.301 56.1084 145.261 55.6555 146.378 55.2993C147.495 54.9431 148.706 54.68 150.011 54.5101C150.633 54.4292 151.24 54.3579 151.833 54.2963C152.425 54.227 152.965 54.1724 153.451 54.1324C153.946 54.0915 154.371 54.0634 154.729 54.0481C155.086 54.0329 155.347 54.0339 155.514 54.0513C155.672 54.0697 155.802 54.1113 155.905 54.1761C156.006 54.2332 156.085 54.3048 156.143 54.3909C156.201 54.477 156.245 54.5728 156.274 54.6783C156.303 54.7761 156.324 54.8788 156.338 54.9862C156.349 55.0707 156.35 55.172 156.342 55.2901C156.333 55.4006 156.312 55.5087 156.279 55.6145C156.246 55.7203 156.2 55.8123 156.139 55.8904C156.079 55.9685 155.999 56.014 155.9 56.027C155.838 56.035 155.769 56.0166 155.693 55.9719C155.625 55.9261 155.528 55.8724 155.403 55.8106C155.278 55.7488 155.109 55.681 154.896 55.6072C154.691 55.5324 154.422 55.4738 154.089 55.4313C153.763 55.3878 153.362 55.362 152.884 55.3539C152.415 55.3448 151.848 55.3717 151.185 55.4346L153.092 70.0822C153.169 70.6733 153.072 71.1232 152.799 71.4318C152.527 71.7405 152.073 71.9363 151.435 72.0193ZM155.745 65.275C155.614 64.2693 155.646 63.3713 155.839 62.581C156.032 61.783 156.337 61.0992 156.755 60.5296C157.18 59.9589 157.699 59.5049 158.311 59.1676C158.923 58.8304 159.582 58.6157 160.288 58.5238C160.994 58.4318 161.686 58.4629 162.361 58.6169C163.036 58.7632 163.647 59.0467 164.194 59.4674C164.748 59.8871 165.219 60.4503 165.608 61.157C165.996 61.856 166.256 62.7121 166.387 63.7255C166.518 64.7312 166.488 65.6407 166.298 66.454C166.107 67.2674 165.8 67.9709 165.378 68.5646C164.963 69.1572 164.452 69.6337 163.843 69.9941C163.233 70.3467 162.575 70.569 161.868 70.661C161.162 70.7529 160.47 70.7142 159.792 70.5448C159.113 70.3678 158.495 70.0579 157.938 69.6152C157.388 69.1715 156.918 68.5886 156.528 67.8666C156.137 67.1445 155.876 66.2807 155.745 65.275ZM162.812 64.2378C162.732 63.6237 162.632 63.0355 162.512 62.4734C162.399 61.9027 162.252 61.4027 162.071 60.9734C161.89 60.5441 161.668 60.214 161.403 59.9829C161.138 59.7442 160.817 59.6494 160.441 59.6983C160.065 59.7473 159.78 59.9288 159.587 60.2428C159.393 60.5492 159.264 60.9407 159.201 61.4173C159.137 61.8862 159.124 62.4149 159.162 63.0033C159.199 63.5918 159.258 64.1931 159.338 64.8072C159.418 65.4214 159.516 66.0215 159.631 66.6077C159.745 67.1861 159.894 67.6976 160.077 68.1423C160.259 68.5869 160.485 68.9362 160.752 69.1903C161.018 69.4367 161.339 69.5354 161.715 69.4864C162.092 69.4374 162.376 69.2521 162.568 68.9304C162.761 68.6087 162.887 68.2018 162.948 67.7099C163.009 67.2179 163.02 66.67 162.98 66.0662C162.948 65.4614 162.892 64.852 162.812 64.2378Z" fill="black"/>
<path d="M242.714 69.2779C242.78 69.8704 242.67 70.3188 242.384 70.623C242.106 70.9265 241.648 71.1136 241.009 71.1843C240.363 71.2559 239.871 71.1741 239.533 70.9389C239.196 70.7037 238.994 70.2899 238.929 69.6974L237.399 55.8933C237.352 55.4701 237.036 55.2909 236.451 55.3557C236.028 55.4026 235.605 55.5157 235.18 55.6951C234.763 55.866 234.39 56.0826 234.061 56.345C233.738 56.5988 233.483 56.8919 233.294 57.2245C233.104 57.5493 233.028 57.8887 233.068 58.2426C233.095 58.4888 233.147 58.6816 233.225 58.821C233.311 58.9595 233.4 59.0626 233.493 59.1302C233.585 59.19 233.675 59.2268 233.762 59.2405C233.856 59.2457 233.923 59.2461 233.961 59.2419C234.154 59.2205 234.308 59.1723 234.424 59.0971C234.54 59.0142 234.643 58.9326 234.736 58.8522C234.827 58.7642 234.912 58.6847 234.99 58.6138C235.074 58.5343 235.175 58.4882 235.29 58.4754C235.382 58.4652 235.481 58.4776 235.586 58.5127C235.698 58.5392 235.802 58.5939 235.896 58.6769C235.999 58.759 236.09 58.8736 236.168 59.0207C236.246 59.16 236.297 59.3375 236.321 59.5529C236.355 59.8607 236.323 60.133 236.224 60.3698C236.134 60.6057 236.001 60.8113 235.825 60.9865C235.657 61.1531 235.454 61.2886 235.216 61.3928C234.985 61.4885 234.75 61.5495 234.512 61.576C234.143 61.6169 233.801 61.5924 233.487 61.5026C233.18 61.4042 232.911 61.2549 232.678 61.0548C232.446 60.8547 232.259 60.6105 232.118 60.3224C231.977 60.0342 231.888 59.7209 231.85 59.3823C231.78 58.7436 231.837 58.1687 232.021 57.6575C232.205 57.1386 232.493 56.6783 232.885 56.2766C233.284 55.8741 233.775 55.5237 234.357 55.2255C234.939 54.9196 235.591 54.6565 236.314 54.4362C237.038 54.2158 237.816 54.0322 238.649 53.8854C239.488 53.7301 240.362 53.6021 241.27 53.5015C243.471 53.2576 245.183 53.4963 246.408 54.2173C247.632 54.9307 248.332 56.0761 248.507 57.6535C248.592 58.4229 248.563 59.1154 248.421 59.7309C248.287 60.3456 248.07 60.8875 247.772 61.3568C247.48 61.8175 247.126 62.2073 246.71 62.526C246.292 62.8371 245.852 63.0768 245.387 63.2451C244.923 63.4133 244.447 63.5128 243.96 63.5434C243.48 63.5732 243.024 63.5342 242.592 63.4263L242.698 62.9121C243.295 63.0251 243.769 62.9804 244.12 62.7779C244.479 62.5668 244.738 62.2382 244.899 61.792C245.068 61.3449 245.155 60.7939 245.16 60.139C245.173 59.4833 245.136 58.7669 245.05 57.9897C244.986 57.4049 244.865 56.8808 244.689 56.4174C244.512 55.9463 244.297 55.5534 244.045 55.2387C243.799 54.9231 243.524 54.6888 243.219 54.5357C242.921 54.374 242.614 54.3107 242.298 54.3456C242.052 54.3729 241.852 54.434 241.699 54.5288C241.553 54.6151 241.44 54.7211 241.361 54.8467C241.288 54.9639 241.24 55.0899 241.216 55.225C241.198 55.3515 241.192 55.4729 241.197 55.5892L242.714 69.2779ZM254.174 59.8763C254.417 59.3976 254.684 58.9591 254.975 58.5608C255.096 58.3915 255.229 58.2249 255.375 58.0608C255.52 57.8967 255.671 57.7475 255.828 57.6133C255.992 57.4783 256.162 57.3659 256.339 57.2762C256.516 57.1865 256.697 57.1314 256.882 57.111C257.274 57.0675 257.595 57.1526 257.845 57.3665C258.094 57.5726 258.242 57.8872 258.288 58.3104C258.317 58.572 258.322 58.8285 258.304 59.0799C258.292 59.3227 258.243 59.624 258.158 59.9839L257.835 60.0197C257.763 59.7863 257.633 59.602 257.447 59.4669C257.26 59.3241 257.004 59.2706 256.681 59.3064C256.443 59.3328 256.213 59.405 255.993 59.5229C255.771 59.6331 255.556 59.766 255.347 59.9215C255.146 60.0762 254.954 60.2416 254.771 60.4176C254.596 60.5928 254.435 60.7586 254.289 60.915L255.119 68.4057C255.13 68.5058 255.128 68.6268 255.113 68.7687C255.097 68.9106 255.035 69.0499 254.925 69.1867C254.824 69.3226 254.658 69.4461 254.429 69.5571C254.208 69.675 253.894 69.7566 253.486 69.8018C253.078 69.847 252.75 69.8328 252.5 69.7592C252.259 69.6924 252.07 69.6005 251.932 69.4833C251.794 69.3661 251.703 69.24 251.656 69.1049C251.61 68.9698 251.583 68.8599 251.573 68.7753L250.586 59.8649C250.561 59.6418 250.486 59.4554 250.36 59.3058C250.242 59.1476 250.059 59.0821 249.813 59.1094C249.682 59.1239 249.573 59.1593 249.486 59.2157C249.399 59.2721 249.306 59.3486 249.207 59.4452L248.933 59.1835C249.094 59.0177 249.274 58.8536 249.474 58.6912C249.681 58.5203 249.906 58.3669 250.148 58.231C250.39 58.0952 250.653 57.9764 250.938 57.8748C251.223 57.7731 251.527 57.7044 251.85 57.6686C252.181 57.6319 252.467 57.647 252.708 57.7137C252.956 57.7719 253.161 57.866 253.323 57.996C253.492 58.1175 253.629 58.262 253.733 58.4296C253.838 58.5972 253.919 58.7712 253.978 58.9516C254.044 59.1235 254.09 59.2936 254.116 59.462C254.142 59.6228 254.161 59.7609 254.174 59.8763ZM265.245 62.2597C265.224 62.0673 265.146 61.928 265.012 61.8416C264.878 61.7552 264.715 61.7227 264.522 61.744C264.253 61.7738 264.002 61.8639 263.77 62.0143C263.545 62.1639 263.353 62.3681 263.195 62.6271C263.037 62.8861 262.923 63.1986 262.855 63.5645C262.785 63.9227 262.776 64.3326 262.827 64.7943C262.877 65.2406 262.949 65.6065 263.043 65.8921C263.144 66.1768 263.259 66.4017 263.386 66.5667C263.52 66.7232 263.664 66.828 263.818 66.881C263.972 66.9341 264.13 66.9516 264.291 66.9337C264.491 66.9116 264.674 66.8407 264.84 66.721C265.005 66.5937 265.144 66.442 265.257 66.2659C265.37 66.0898 265.454 65.8975 265.509 65.6889C265.563 65.4803 265.58 65.276 265.558 65.0759L265.245 62.2597ZM262.85 57.4077C262.589 57.4367 262.35 57.4943 262.133 57.5806C261.917 57.6669 261.733 57.7652 261.582 57.8754C261.43 57.9856 261.315 58.1036 261.235 58.2292C261.155 58.3472 261.12 58.4562 261.131 58.5562C261.144 58.6716 261.211 58.7499 261.333 58.7909C261.461 58.8235 261.602 58.8663 261.756 58.9193C261.909 58.9647 262.05 59.0425 262.179 59.1528C262.315 59.2546 262.396 59.4286 262.424 59.6748C262.442 59.8364 262.424 59.9903 262.37 60.1365C262.323 60.2741 262.247 60.4032 262.144 60.5237C262.047 60.6357 261.925 60.731 261.778 60.8096C261.638 60.8796 261.487 60.9236 261.326 60.9415C260.895 60.9893 260.528 60.8819 260.227 60.6193C259.933 60.3559 259.759 59.9818 259.705 59.4971C259.653 59.0277 259.732 58.6139 259.941 58.2558C260.15 57.8899 260.439 57.5775 260.807 57.3186C261.184 57.0588 261.616 56.8512 262.105 56.6958C262.594 56.5326 263.088 56.4233 263.588 56.3679C264.188 56.3014 264.769 56.3033 265.329 56.3736C265.89 56.4438 266.394 56.5983 266.841 56.8369C267.296 57.0748 267.671 57.3993 267.965 57.8106C268.268 58.2211 268.454 58.7379 268.523 59.3612L269.245 65.8824C269.253 65.9516 269.266 66.0282 269.283 66.1119C269.3 66.1957 269.327 66.2705 269.366 66.3364C269.404 66.4022 269.457 66.4548 269.524 66.4942C269.59 66.5335 269.681 66.5468 269.797 66.534C269.935 66.5187 270.057 66.4546 270.161 66.3417C270.272 66.2204 270.368 66.1007 270.448 65.9828L270.764 66.1932C270.666 66.3675 270.547 66.5599 270.407 66.7701C270.267 66.9804 270.091 67.183 269.879 67.3778C269.666 67.5727 269.413 67.7449 269.118 67.8944C268.823 68.0439 268.479 68.1404 268.087 68.1839C267.602 68.2376 267.155 68.143 266.747 67.9001C266.337 67.6495 266.042 67.2305 265.86 66.6431C265.65 67.0013 265.423 67.3068 265.178 67.5598C264.942 67.8119 264.692 68.0226 264.431 68.1918C264.169 68.361 263.899 68.4922 263.621 68.5853C263.351 68.6775 263.074 68.7394 262.789 68.771C262.42 68.8119 262.056 68.7938 261.696 68.7168C261.337 68.6397 261.006 68.4934 260.701 68.2779C260.404 68.0538 260.148 67.7511 259.935 67.3697C259.729 66.9875 259.594 66.5079 259.53 65.9308C259.452 65.2306 259.527 64.642 259.755 64.165C259.983 63.688 260.303 63.2747 260.716 62.9252C261.136 62.5671 261.618 62.2488 262.164 61.9702C262.717 61.6909 263.281 61.3986 263.854 61.0936C264.281 60.8672 264.575 60.5697 264.737 60.2013C264.906 59.8243 264.969 59.4512 264.928 59.0818C264.865 58.5124 264.646 58.0772 264.27 57.7762C263.9 57.4666 263.427 57.3438 262.85 57.4077ZM282.231 65.4015C282.242 65.5015 282.24 65.6225 282.225 65.7644C282.209 65.9063 282.147 66.0457 282.037 66.1824C281.935 66.3183 281.77 66.4418 281.541 66.5529C281.313 66.6717 280.994 66.7536 280.587 66.7988C280.179 66.844 279.85 66.8298 279.601 66.7562C279.359 66.6895 279.17 66.5975 279.033 66.4803C278.903 66.3623 278.815 66.2358 278.768 66.1007C278.722 65.9656 278.695 65.8557 278.685 65.7711L277.781 57.6109C277.769 57.5032 277.742 57.3972 277.699 57.2929C277.655 57.1809 277.598 57.0821 277.526 56.9966C277.454 56.9111 277.369 56.8465 277.271 56.8029C277.172 56.7516 277.061 56.7327 276.937 56.7464C276.73 56.7694 276.533 56.8535 276.346 56.9988C276.159 57.1364 275.985 57.2919 275.825 57.4654C275.673 57.6381 275.54 57.8086 275.426 57.977C275.32 58.1445 275.245 58.2698 275.199 58.3527L276.056 66.0858C276.067 66.1858 276.065 66.3068 276.05 66.4487C276.034 66.5906 275.972 66.7299 275.862 66.8667C275.761 67.0026 275.595 67.1261 275.366 67.2371C275.145 67.355 274.831 67.4366 274.423 67.4818C274.015 67.527 273.687 67.5128 273.437 67.4392C273.196 67.3724 273.007 67.2805 272.869 67.1633C272.732 67.0461 272.64 66.92 272.594 66.7849C272.547 66.6498 272.52 66.5399 272.51 66.4553L271.523 57.5449C271.498 57.3218 271.423 57.1354 271.297 56.9858C271.179 56.8276 270.996 56.7621 270.75 56.7894C270.619 56.8039 270.51 56.8393 270.423 56.8957C270.336 56.9521 270.243 57.0286 270.144 57.1252L269.87 56.8635C270.031 56.6977 270.211 56.5336 270.411 56.3712C270.618 56.2003 270.843 56.0469 271.085 55.911C271.327 55.7752 271.59 55.6564 271.875 55.5548C272.16 55.4531 272.464 55.3844 272.787 55.3486C273.287 55.2932 273.685 55.3347 273.981 55.4733C274.276 55.6042 274.501 55.7778 274.658 55.9942C274.814 56.2105 274.918 56.4444 274.969 56.6958C275.027 56.9386 275.065 57.1446 275.084 57.3139C275.401 56.866 275.749 56.4575 276.128 56.0882C276.282 55.931 276.452 55.7759 276.638 55.6229C276.831 55.4691 277.03 55.3302 277.234 55.2063C277.438 55.0747 277.651 54.9653 277.875 54.8782C278.099 54.7911 278.327 54.7347 278.558 54.7091C279.004 54.6597 279.394 54.6983 279.727 54.8249C280.061 54.9515 280.336 55.1196 280.554 55.3291C280.771 55.5309 280.936 55.7541 281.049 55.9987C281.169 56.2347 281.239 56.445 281.259 56.6297C281.583 56.1809 281.931 55.7724 282.303 55.404C282.457 55.2468 282.627 55.0916 282.813 54.9387C282.998 54.7857 283.193 54.6472 283.397 54.5233C283.609 54.3909 283.822 54.2815 284.039 54.1952C284.263 54.1081 284.49 54.0517 284.721 54.0262C285.167 53.9767 285.558 54.0191 285.892 54.1535C286.225 54.2801 286.503 54.4674 286.725 54.7154C286.947 54.9634 287.12 55.252 287.242 55.5812C287.372 55.9095 287.455 56.243 287.493 56.5815L288.285 63.726C288.292 63.7952 288.305 63.8717 288.322 63.9555C288.338 64.0316 288.366 64.1064 288.405 64.18C288.443 64.2458 288.496 64.2984 288.563 64.3377C288.637 64.3762 288.728 64.3895 288.836 64.3776C288.982 64.3614 289.107 64.2969 289.212 64.1841C289.315 64.0635 289.411 63.9439 289.499 63.8251L289.803 64.0368C289.713 64.2103 289.591 64.4069 289.436 64.6265C289.28 64.8385 289.089 65.0466 288.862 65.2509C288.643 65.4543 288.379 65.6316 288.068 65.7829C287.767 65.9409 287.416 66.0421 287.016 66.0865C286.677 66.124 286.376 66.1106 286.111 66.0464C285.856 65.9891 285.631 65.8971 285.438 65.7705C285.252 65.6354 285.105 65.4725 284.999 65.2818C284.891 65.0834 284.824 64.8688 284.799 64.638L283.944 56.928C283.932 56.8203 283.905 56.7142 283.862 56.6099C283.819 56.4979 283.761 56.3992 283.689 56.3136C283.625 56.2273 283.544 56.1623 283.446 56.1186C283.347 56.0673 283.235 56.0485 283.112 56.0621C282.905 56.0851 282.704 56.1697 282.51 56.3159C282.322 56.4534 282.149 56.609 281.989 56.7825C281.837 56.9551 281.707 57.1252 281.601 57.2928C281.495 57.4603 281.42 57.5855 281.374 57.6684L282.231 65.4015ZM296.085 58.8424C296.064 58.65 295.986 58.5106 295.852 58.4243C295.718 58.3379 295.555 58.3053 295.362 58.3266C295.093 58.3565 294.842 58.4466 294.61 58.597C294.385 58.7465 294.193 58.9508 294.035 59.2098C293.877 59.4688 293.763 59.7813 293.695 60.1471C293.625 60.5053 293.616 60.9153 293.667 61.3769C293.717 61.8232 293.789 62.1892 293.883 62.4747C293.984 62.7595 294.099 62.9843 294.226 63.1494C294.36 63.3059 294.504 63.4106 294.658 63.4637C294.812 63.5167 294.97 63.5343 295.131 63.5164C295.331 63.4942 295.514 63.4233 295.68 63.3037C295.845 63.1764 295.984 63.0247 296.097 62.8486C296.21 62.6725 296.294 62.4802 296.349 62.2716C296.403 62.063 296.42 61.8587 296.398 61.6586L296.085 58.8424ZM293.69 53.9904C293.429 54.0194 293.19 54.077 292.973 54.1633C292.757 54.2496 292.573 54.3478 292.422 54.4581C292.27 54.5683 292.155 54.6863 292.075 54.8119C291.995 54.9299 291.96 55.0389 291.971 55.1389C291.984 55.2543 292.051 55.3325 292.173 55.3736C292.301 55.4061 292.442 55.4489 292.596 55.502C292.749 55.5473 292.89 55.6252 293.019 55.7355C293.155 55.8373 293.236 56.0113 293.264 56.2575C293.282 56.4191 293.264 56.573 293.21 56.7192C293.163 56.8568 293.087 56.9859 292.984 57.1064C292.887 57.2183 292.765 57.3136 292.618 57.3922C292.478 57.4623 292.327 57.5063 292.166 57.5242C291.735 57.5719 291.368 57.4645 291.067 57.202C290.773 56.9386 290.599 56.5645 290.545 56.0797C290.493 55.6104 290.572 55.1966 290.781 54.8384C290.99 54.4726 291.279 54.1602 291.647 53.9013C292.024 53.6415 292.456 53.4339 292.945 53.2784C293.433 53.1153 293.928 53.006 294.428 52.9506C295.028 52.8841 295.608 52.886 296.169 52.9562C296.73 53.0265 297.234 53.181 297.681 53.4196C298.136 53.6574 298.511 53.982 298.805 54.3933C299.108 54.8037 299.294 55.3206 299.363 55.9439L300.085 62.4651C300.093 62.5343 300.105 62.6108 300.123 62.6946C300.14 62.7784 300.167 62.8532 300.206 62.9191C300.244 62.9849 300.297 63.0375 300.364 63.0768C300.43 63.1162 300.521 63.1295 300.637 63.1167C300.775 63.1013 300.897 63.0372 301.001 62.9244C301.112 62.8031 301.208 62.6834 301.288 62.5654L301.604 62.7758C301.506 62.9502 301.387 63.1425 301.247 63.3528C301.107 63.5631 300.931 63.7657 300.719 63.9605C300.506 64.1554 300.253 64.3276 299.958 64.4771C299.663 64.6266 299.319 64.7231 298.927 64.7666C298.442 64.8203 297.995 64.7257 297.587 64.4828C297.177 64.2322 296.882 63.8132 296.7 63.2258C296.49 63.5839 296.263 63.8895 296.018 64.1425C295.782 64.3946 295.532 64.6053 295.271 64.7745C295.009 64.9437 294.739 65.0748 294.461 65.1679C294.191 65.2602 293.914 65.3221 293.629 65.3536C293.26 65.3946 292.895 65.3765 292.536 65.2994C292.177 65.2224 291.846 65.0761 291.541 64.8606C291.244 64.6365 290.988 64.3338 290.775 63.9524C290.569 63.5702 290.434 63.0905 290.37 62.5134C290.292 61.8132 290.367 61.2246 290.595 60.7477C290.823 60.2707 291.143 59.8574 291.556 59.5079C291.976 59.1498 292.458 58.8315 293.004 58.5529C293.557 58.2735 294.121 57.9813 294.694 57.6763C295.121 57.4498 295.415 57.1524 295.577 56.784C295.746 56.407 295.809 56.0339 295.768 55.6645C295.705 55.0951 295.486 54.6599 295.11 54.3588C294.74 54.0493 294.267 53.9264 293.69 53.9904ZM309.477 57.5922C309.369 56.6227 309.237 55.8545 309.081 55.2876C308.932 54.7122 308.767 54.2826 308.588 53.9987C308.407 53.7071 308.224 53.5249 308.036 53.4522C307.848 53.3718 307.662 53.3418 307.477 53.3623C307.254 53.387 307.061 53.4707 306.898 53.6135C306.741 53.7476 306.606 53.8989 306.492 54.0673C306.386 54.2348 306.296 54.4007 306.22 54.5648C306.153 54.7281 306.092 54.8516 306.039 54.9353L306.894 62.6453C306.905 62.7454 306.903 62.8702 306.888 63.0198C306.873 63.1617 306.811 63.3049 306.702 63.4493C306.601 63.5852 306.435 63.7087 306.206 63.8198C305.985 63.9377 305.671 64.0193 305.263 64.0645C304.855 64.1097 304.527 64.0954 304.277 64.0218C304.036 63.9551 303.847 63.8631 303.709 63.746C303.572 63.6288 303.48 63.5027 303.434 63.3676C303.387 63.2325 303.36 63.1226 303.35 63.038L302.363 54.1276C302.338 53.9045 302.263 53.7181 302.137 53.5684C302.019 53.4102 301.836 53.3448 301.59 53.3721C301.459 53.3866 301.35 53.422 301.263 53.4784C301.176 53.5348 301.083 53.6113 300.984 53.7079L300.71 53.4462C300.871 53.2804 301.051 53.1163 301.251 52.9539C301.458 52.783 301.683 52.6296 301.925 52.4937C302.167 52.3579 302.43 52.2391 302.715 52.1375C303 52.0358 303.304 51.9671 303.627 51.9313C304.127 51.8758 304.525 51.9174 304.821 52.056C305.116 52.1869 305.341 52.3605 305.498 52.5769C305.654 52.7932 305.758 53.0271 305.809 53.2784C305.867 53.5212 305.905 53.7273 305.924 53.8966C306.164 53.4572 306.446 53.0559 306.772 52.6927C306.903 52.538 307.05 52.3854 307.212 52.235C307.382 52.0837 307.562 51.947 307.751 51.8248C307.947 51.694 308.153 51.5855 308.369 51.4992C308.593 51.4121 308.824 51.3553 309.063 51.3289C309.586 51.2709 310.059 51.3198 310.481 51.4755C310.911 51.6304 311.291 51.9271 311.62 52.3658C311.949 52.8045 312.229 53.4043 312.462 54.1653C312.693 54.9185 312.872 55.8684 312.999 57.0149C313.123 58.1306 313.131 59.1112 313.022 59.9567C312.913 60.8022 312.729 61.5314 312.47 62.1443C312.21 62.7572 311.897 63.2671 311.529 63.6739C311.162 64.0885 310.783 64.4226 310.39 64.6764C309.998 64.9302 309.613 65.1169 309.237 65.2365C308.869 65.3629 308.547 65.4453 308.271 65.4837L308.092 65.0245C308.317 64.9451 308.519 64.837 308.699 64.7003C308.886 64.5627 309.048 64.3734 309.185 64.1323C309.322 63.8913 309.433 63.5946 309.519 63.2424C309.603 62.8825 309.659 62.4401 309.687 61.9152C309.722 61.3894 309.72 60.7743 309.681 60.0698C309.649 59.3568 309.581 58.5309 309.477 57.5922ZM320.577 56.1285C320.556 55.9361 320.478 55.7967 320.344 55.7103C320.21 55.624 320.047 55.5914 319.854 55.6127C319.585 55.6426 319.334 55.7327 319.101 55.8831C318.877 56.0326 318.685 56.2369 318.527 56.4959C318.369 56.7549 318.255 57.0673 318.187 57.4332C318.117 57.7914 318.108 58.2014 318.159 58.663C318.209 59.1093 318.281 59.4753 318.374 59.7608C318.476 60.0455 318.591 60.2704 318.718 60.4355C318.852 60.592 318.996 60.6967 319.15 60.7498C319.304 60.8028 319.462 60.8204 319.623 60.8025C319.823 60.7803 320.006 60.7094 320.172 60.5898C320.337 60.4625 320.476 60.3107 320.589 60.1347C320.702 59.9586 320.786 59.7663 320.841 59.5577C320.895 59.3491 320.912 59.1448 320.889 58.9447L320.577 56.1285ZM318.182 51.2765C317.92 51.3055 317.681 51.3631 317.465 51.4494C317.249 51.5357 317.065 51.6339 316.914 51.7442C316.762 51.8544 316.647 51.9723 316.567 52.098C316.487 52.216 316.452 52.3249 316.463 52.425C316.476 52.5404 316.543 52.6186 316.665 52.6597C316.793 52.6922 316.934 52.735 317.088 52.7881C317.241 52.8334 317.382 52.9113 317.511 53.0216C317.647 53.1234 317.728 53.2974 317.756 53.5436C317.774 53.7052 317.756 53.8591 317.702 54.0053C317.655 54.1429 317.579 54.272 317.476 54.3925C317.379 54.5044 317.257 54.5997 317.11 54.6783C316.97 54.7484 316.819 54.7924 316.658 54.8103C316.227 54.858 315.86 54.7506 315.559 54.4881C315.265 54.2247 315.091 53.8506 315.037 53.3658C314.985 52.8965 315.064 52.4827 315.273 52.1245C315.482 51.7587 315.771 51.4463 316.139 51.1874C316.515 50.9276 316.948 50.72 317.437 50.5645C317.925 50.4014 318.42 50.2921 318.92 50.2367C319.52 50.1702 320.1 50.172 320.661 50.2423C321.222 50.3126 321.726 50.4671 322.173 50.7057C322.628 50.9435 323.003 51.2681 323.297 51.6794C323.6 52.0898 323.786 52.6067 323.855 53.23L324.577 59.7511C324.585 59.8204 324.597 59.8969 324.615 59.9807C324.632 60.0645 324.659 60.1393 324.698 60.2051C324.736 60.271 324.789 60.3236 324.855 60.3629C324.922 60.4023 325.013 60.4156 325.129 60.4028C325.267 60.3874 325.389 60.3233 325.493 60.2105C325.604 60.0891 325.7 59.9695 325.78 59.8515L326.096 60.0619C325.998 60.2363 325.879 60.4286 325.739 60.6389C325.599 60.8492 325.423 61.0517 325.21 61.2466C324.998 61.4415 324.745 61.6137 324.45 61.7632C324.155 61.9127 323.811 62.0092 323.419 62.0527C322.934 62.1064 322.487 62.0118 322.079 61.7689C321.669 61.5183 321.374 61.0993 321.192 60.5119C320.982 60.87 320.755 61.1756 320.51 61.4286C320.274 61.6807 320.024 61.8914 319.763 62.0606C319.501 62.2298 319.231 62.3609 318.953 62.454C318.683 62.5463 318.406 62.6082 318.121 62.6397C317.752 62.6806 317.387 62.6626 317.028 62.5855C316.669 62.5085 316.338 62.3622 316.033 62.1467C315.736 61.9226 315.48 61.6199 315.267 61.2385C315.061 60.8563 314.926 60.3766 314.862 59.7995C314.784 59.0993 314.859 58.5107 315.087 58.0337C315.314 57.5568 315.635 57.1435 316.048 56.794C316.468 56.4359 316.95 56.1176 317.496 55.839C318.049 55.5596 318.613 55.2674 319.186 54.9624C319.613 54.7359 319.907 54.4385 320.069 54.0701C320.237 53.6931 320.301 53.3199 320.26 52.9506C320.197 52.3812 319.978 51.946 319.602 51.6449C319.232 51.3353 318.759 51.2125 318.182 51.2765Z" fill="black"/>
<defs>
<filter id="filter0_i_78_161" x="-67.2354" y="25.1969" width="483.553" height="74.5489" filterUnits="userSpaceOnUse" color-interpolation-filters="sRGB">
<feFlood flood-opacity="0" result="BackgroundImageFix"/>
<feBlend mode="normal" in="SourceGraphic" in2="BackgroundImageFix" result="shape"/>
<feColorMatrix in="SourceAlpha" type="matrix" values="0 0 0 0 0 0 0 0 0 0 0 0 0 0 0 0 0 0 127 0" result="hardAlpha"/>
<feOffset dy="1.18913"/>
<feGaussianBlur stdDeviation="2.02151"/>
<feComposite in2="hardAlpha" operator="arithmetic" k2="-1" k3="1"/>
<feColorMatrix type="matrix" values="0 0 0 0 0 0 0 0 0 0 0 0 0 0 0 0 0 0 0.4 0"/>
<feBlend mode="normal" in2="shape" result="effect1_innerShadow_78_161"/>
</filter>
</defs>
</svg>
