<svg width="1512" height="436" viewBox="0 0 1512 436" fill="none" xmlns="http://www.w3.org/2000/svg">
<g filter="url(#filter0_i_74_135)">
<path d="M78.7661 136.26C12.3939 135.97 -57.7762 172.175 -84.5647 190.314C-122.582 224.199 -92.899 290.79 -79.0992 305.481C-65.2994 320.173 -40.6487 336.399 12.358 328.923C109.144 308.785 168.413 299.688 282.256 316.114C359.181 327.213 410.697 350.699 517.154 322.826C579.377 298.045 714.812 265.036 793.377 276.313C874.766 287.995 972.373 288.875 1017.1 281.241C1075.27 263.817 1211.42 236.828 1290.68 268.257C1369.95 299.686 1472.38 297.007 1513.7 291.739C1522.63 242.476 1533.74 144.073 1506.71 144.562C1472.93 145.173 1480.14 152.438 1428.89 130.065C1387.89 112.167 1314.25 100.558 1282.56 96.9906C1236.76 93.2105 1123.05 93.7119 1034.56 125.958C923.936 166.266 930.601 161.981 868.925 164.908C808.706 167.766 702.785 115.244 630.159 110.092C557.533 104.939 500.038 162.57 414.104 177.563C328.169 192.555 278.111 173.102 251.221 163.133C224.331 153.164 161.731 136.622 78.7661 136.26Z" fill="#F1F0F0"/>
</g>
<path d="M159.629 214.408C153.254 215.118 74.4665 215.828 42.1818 224.347L49.815 242.875L159.022 229.151C162.594 229.298 164.357 225.348 164.396 221.496C164.434 217.727 162.819 214.052 159.629 214.408Z" fill="#929292"/>
<path d="M558.99 213.815C552.616 214.526 473.828 215.236 441.543 223.755L449.176 242.283L558.384 228.559C561.955 228.706 563.719 224.756 563.757 220.904C563.795 217.135 562.18 213.46 558.99 213.815Z" fill="#929292"/>
<path d="M1421.98 203.032C1415.66 201.942 1339.78 180.713 1306.4 179.917L1308.58 199.838L1417.3 217.026C1420.69 218.16 1423.48 214.856 1424.59 211.167C1425.67 207.556 1425.14 203.578 1421.98 203.032Z" fill="#929292"/>
<path d="M857.313 204.682C850.899 204.756 772.431 197.635 739.459 202.904L745.214 222.1L855.245 219.293C858.784 219.793 860.931 216.038 861.352 212.209C861.764 208.462 860.523 204.645 857.313 204.682Z" fill="#929292"/>
<path d="M242.995 211.276C250.064 210.826 255.537 211.743 259.413 214.027C263.315 216.284 265.414 219.752 265.712 224.43C265.858 226.717 265.71 228.696 265.268 230.368C264.851 232.013 264.198 233.437 263.309 234.642C262.445 235.819 261.374 236.827 260.096 237.665C258.843 238.475 257.466 239.189 255.966 239.806C257.05 240.024 258.164 240.723 259.309 241.903C260.48 243.081 261.683 244.557 262.918 246.331C264.151 248.079 265.411 250.034 266.697 252.197C267.982 254.359 269.27 256.547 270.559 258.761C271.874 260.974 273.185 263.122 274.492 265.204C275.825 267.285 277.13 269.133 278.407 270.748C279.71 272.361 280.991 273.636 282.251 274.574C283.537 275.51 284.778 275.94 285.973 275.864C286.493 275.83 286.993 275.694 287.474 275.455C287.98 275.214 288.37 274.98 288.643 274.754L289.558 276.222C289.057 276.541 288.44 276.894 287.708 277.28C286.977 277.692 286.115 278.086 285.121 278.462C284.127 278.838 283 279.171 281.74 279.46C280.508 279.773 279.125 279.979 277.591 280.076C275.07 280.237 272.752 279.68 270.635 278.406C268.52 277.157 266.655 275.319 265.039 272.891C263.392 270.386 261.763 267.75 260.152 264.982C258.541 262.214 256.929 259.446 255.318 256.678C253.732 253.909 252.138 251.205 250.535 248.567C248.958 245.928 247.379 243.458 245.797 241.158L246.007 239.54C247.565 239.832 248.885 239.657 249.966 239.014C251.073 238.369 251.95 237.387 252.597 236.068C253.242 234.722 253.674 233.102 253.892 231.21C254.137 229.315 254.19 227.277 254.051 225.094C253.952 223.534 253.69 222.09 253.266 220.76C252.841 219.404 252.284 218.239 251.596 217.265C250.932 216.263 250.153 215.504 249.259 214.987C248.363 214.444 247.382 214.206 246.317 214.274C245.485 214.327 244.805 214.501 244.275 214.795C243.771 215.062 243.375 215.401 243.088 215.81C242.799 216.194 242.604 216.611 242.502 217.061C242.424 217.483 242.398 217.89 242.423 218.279L245.366 264.514C245.493 266.515 245.053 268.004 244.045 268.982C243.064 269.958 241.494 270.514 239.337 270.652C237.154 270.791 235.514 270.438 234.416 269.595C233.319 268.751 232.706 267.329 232.579 265.328L229.611 218.704C229.52 217.274 228.487 216.622 226.512 216.748C225.083 216.839 223.641 217.153 222.188 217.689C220.759 218.197 219.471 218.866 218.323 219.696C217.2 220.498 216.295 221.443 215.607 222.531C214.918 223.592 214.612 224.721 214.688 225.916C214.741 226.748 214.887 227.404 215.126 227.884C215.392 228.363 215.675 228.724 215.978 228.965C216.279 229.181 216.574 229.319 216.865 229.379C217.18 229.411 217.403 229.423 217.533 229.414C218.183 229.373 218.709 229.235 219.111 229.001C219.512 228.74 219.874 228.482 220.197 228.227C220.519 227.946 220.816 227.692 221.088 227.466C221.385 227.212 221.729 227.073 222.118 227.048C222.43 227.028 222.76 227.085 223.108 227.22C223.48 227.327 223.819 227.527 224.125 227.82C224.456 228.113 224.743 228.512 224.984 229.018C225.223 229.499 225.366 230.103 225.412 230.831C225.478 231.87 225.328 232.78 224.96 233.56C224.618 234.339 224.139 235.009 223.522 235.57C222.93 236.103 222.226 236.526 221.411 236.839C220.62 237.124 219.822 237.293 219.016 237.344C217.769 237.423 216.625 237.287 215.585 236.936C214.569 236.557 213.687 236.013 212.937 235.304C212.187 234.595 211.598 233.745 211.17 232.755C210.741 231.765 210.491 230.698 210.418 229.554C210.281 227.397 210.563 225.474 211.264 223.786C211.964 222.071 213.004 220.57 214.383 219.281C215.788 217.992 217.493 216.892 219.496 215.981C221.498 215.045 223.731 214.263 226.197 213.637C228.662 213.01 231.305 212.516 234.126 212.153C236.972 211.764 239.928 211.471 242.995 211.276ZM277.283 247.569C277.067 244.165 277.371 241.158 278.197 238.548C279.02 235.912 280.196 233.684 281.724 231.865C283.279 230.044 285.12 228.635 287.248 227.638C289.377 226.642 291.637 226.067 294.028 225.915C296.419 225.763 298.731 226.02 300.966 226.687C303.198 227.328 305.185 228.414 306.927 229.948C308.695 231.479 310.152 233.474 311.3 235.932C312.447 238.364 313.129 241.295 313.348 244.726C313.564 248.13 313.262 251.176 312.442 253.864C311.621 256.552 310.437 258.845 308.887 260.745C307.364 262.642 305.541 264.128 303.417 265.203C301.292 266.251 299.034 266.852 296.643 267.004C294.252 267.156 291.938 266.873 289.7 266.154C287.461 265.409 285.455 264.232 283.682 262.623C281.936 261.012 280.487 258.951 279.336 256.441C278.184 253.931 277.5 250.974 277.283 247.569ZM301.234 245.653C301.101 243.574 300.896 241.578 300.618 239.665C300.363 237.724 299.981 236.013 299.469 234.532C298.957 233.051 298.283 231.894 297.447 231.06C296.61 230.2 295.554 229.81 294.281 229.891C293.007 229.972 292.011 230.519 291.293 231.53C290.573 232.515 290.054 233.801 289.738 235.386C289.42 236.946 289.258 238.718 289.254 240.701C289.25 242.685 289.314 244.716 289.446 246.795C289.579 248.874 289.774 250.91 290.031 252.903C290.287 254.87 290.672 256.62 291.187 258.153C291.702 259.686 292.38 260.908 293.221 261.82C294.06 262.706 295.117 263.109 296.39 263.027C297.663 262.946 298.659 262.387 299.375 261.35C300.092 260.313 300.607 258.975 300.92 257.338C301.234 255.7 301.391 253.863 301.392 251.828C301.419 249.791 301.366 247.733 301.234 245.653ZM338.239 243.454C338.198 242.805 337.958 242.324 337.521 242.013C337.084 241.701 336.54 241.566 335.89 241.608C334.981 241.666 334.123 241.929 333.318 242.398C332.539 242.865 331.863 243.521 331.291 244.366C330.718 245.212 330.288 246.244 330 247.462C329.711 248.655 329.616 250.031 329.715 251.59C329.811 253.098 329.994 254.339 330.265 255.313C330.562 256.286 330.911 257.059 331.313 257.634C331.739 258.181 332.207 258.556 332.716 258.758C333.224 258.961 333.751 259.044 334.297 259.01C334.973 258.967 335.599 258.757 336.175 258.381C336.75 257.979 337.241 257.492 337.648 256.918C338.055 256.344 338.367 255.711 338.584 255.018C338.8 254.326 338.887 253.642 338.844 252.966L338.239 243.454ZM330.954 226.774C330.07 226.83 329.258 226.986 328.518 227.242C327.777 227.498 327.144 227.8 326.618 228.146C326.092 228.493 325.686 228.871 325.399 229.281C325.11 229.664 324.976 230.025 324.998 230.363C325.023 230.753 325.236 231.026 325.637 231.183C326.063 231.313 326.53 231.479 327.039 231.681C327.546 231.858 328.007 232.141 328.424 232.532C328.864 232.896 329.111 233.493 329.164 234.325C329.199 234.871 329.114 235.385 328.91 235.868C328.73 236.323 328.457 236.745 328.09 237.133C327.748 237.494 327.324 237.795 326.817 238.036C326.335 238.25 325.821 238.374 325.275 238.408C323.82 238.501 322.606 238.083 321.633 237.153C320.687 236.222 320.161 234.937 320.057 233.3C319.956 231.715 320.286 230.337 321.047 229.166C321.805 227.97 322.824 226.965 324.104 226.153C325.409 225.34 326.895 224.71 328.563 224.265C330.229 223.793 331.907 223.504 333.596 223.396C335.623 223.267 337.573 223.365 339.447 223.689C341.32 224.014 342.989 224.612 344.454 225.484C345.944 226.355 347.153 227.504 348.078 228.933C349.03 230.36 349.573 232.126 349.707 234.231L351.109 256.256C351.124 256.49 351.154 256.749 351.198 257.034C351.242 257.318 351.324 257.574 351.443 257.801C351.561 258.028 351.73 258.213 351.948 258.356C352.165 258.499 352.469 258.558 352.859 258.533C353.327 258.503 353.745 258.307 354.113 257.944C354.506 257.554 354.847 257.167 355.135 256.783L356.162 257.54C355.807 258.11 355.377 258.738 354.873 259.422C354.368 260.107 353.745 260.76 353.001 261.381C352.258 262.002 351.379 262.541 350.364 262.997C349.349 263.453 348.179 263.723 346.854 263.808C345.217 263.912 343.731 263.524 342.396 262.643C341.06 261.737 340.132 260.282 339.613 258.28C338.853 259.45 338.042 260.441 337.18 261.253C336.344 262.063 335.474 262.732 334.568 263.259C333.662 263.786 332.735 264.185 331.786 264.454C330.864 264.721 329.922 264.885 328.96 264.947C327.713 265.026 326.492 264.908 325.298 264.593C324.103 264.277 323.012 263.734 322.023 262.961C321.059 262.162 320.248 261.104 319.591 259.789C318.959 258.473 318.581 256.84 318.457 254.89C318.306 252.525 318.651 250.56 319.49 248.993C320.33 247.426 321.471 246.087 322.914 244.978C324.381 243.841 326.053 242.847 327.93 241.997C329.833 241.145 331.772 240.252 333.748 239.317C335.218 238.624 336.253 237.67 336.854 236.458C337.48 235.218 337.753 233.974 337.673 232.727C337.551 230.803 336.882 229.306 335.665 228.236C334.473 227.137 332.903 226.65 330.954 226.774ZM382.033 239.688C382.015 239.402 381.979 238.831 381.924 237.973C381.868 237.089 381.778 236.09 381.655 234.976C381.53 233.836 381.363 232.633 381.152 231.368C380.941 230.103 380.657 228.934 380.302 227.86C379.627 227.094 378.88 226.424 378.06 225.85C377.265 225.248 376.27 224.986 375.075 225.062C373.047 225.191 371.637 226.611 370.845 229.323C370.078 232.034 369.871 236.17 370.225 241.732C370.381 244.174 370.627 246.403 370.964 248.417C371.327 250.429 371.776 252.149 372.31 253.576C372.871 255.002 373.527 256.095 374.28 256.856C375.059 257.615 375.943 257.964 376.93 257.901C381.088 257.636 382.789 251.565 382.033 239.688ZM380.474 222.565C379.815 219.998 378.972 217.625 377.946 215.446C376.919 213.241 375.729 211.36 374.377 209.802C373.052 208.242 371.566 207.045 369.921 206.21C368.302 205.374 366.583 205.014 364.764 205.13C363.725 205.196 362.784 205.386 361.943 205.7C361.128 206.013 360.42 206.372 359.82 206.775C359.217 207.153 358.719 207.524 358.325 207.888C357.955 208.225 357.684 208.477 357.512 208.644L356.411 207.344C356.984 206.499 357.69 205.697 358.529 204.939C359.393 204.18 360.343 203.519 361.377 202.957C362.411 202.396 363.504 201.935 364.655 201.575C365.833 201.213 367.006 200.994 368.175 200.92C372.022 200.675 375.454 201.305 378.473 202.809C381.489 204.287 384.07 206.497 386.214 209.44C388.358 212.382 390.063 215.992 391.326 220.27C392.59 224.547 393.391 229.336 393.728 234.638C394.001 238.926 393.799 242.723 393.123 246.028C392.472 249.331 391.411 252.138 389.94 254.45C388.468 256.736 386.611 258.511 384.369 259.776C382.151 261.013 379.6 261.723 376.715 261.907C374.714 262.034 372.652 261.813 370.528 261.244C368.429 260.647 366.483 259.596 364.691 258.093C362.925 256.587 361.427 254.569 360.196 252.038C358.963 249.481 358.226 246.305 357.984 242.511C357.776 239.236 358.046 236.296 358.793 233.692C359.567 231.085 360.678 228.862 362.126 227.021C363.573 225.154 365.294 223.701 367.289 222.661C369.283 221.594 371.423 220.989 373.71 220.843C374.594 220.787 375.391 220.814 376.103 220.925C376.813 221.011 377.434 221.141 377.967 221.316C378.5 221.49 378.97 221.695 379.377 221.93C379.781 222.14 380.147 222.351 380.474 222.565Z" fill="black"/>
<path d="M631.961 245.568C629.79 245.834 628.132 245.578 626.987 244.8C625.842 244.022 625.148 242.638 624.904 240.648L618.873 191.406C618.055 191.585 617.04 191.867 615.828 192.251C614.638 192.607 613.397 193.074 612.103 193.652C610.81 194.23 609.527 194.899 608.256 195.658C606.982 196.391 605.862 197.211 604.897 198.116C603.929 198.995 603.168 199.954 602.613 200.993C602.058 202.032 601.852 203.133 601.994 204.296C602.095 205.123 602.28 205.77 602.547 206.235C602.839 206.698 603.144 207.041 603.46 207.265C603.773 207.463 604.076 207.583 604.37 207.626C604.686 207.639 604.909 207.638 605.038 207.622C605.685 207.543 606.202 207.375 606.59 207.118C606.975 206.834 607.321 206.556 607.629 206.282C607.933 205.982 608.215 205.712 608.474 205.47C608.756 205.199 609.09 205.04 609.478 204.993C609.788 204.955 610.121 204.993 610.476 205.107C610.854 205.192 611.204 205.372 611.526 205.647C611.874 205.919 612.183 206.301 612.453 206.793C612.72 207.259 612.898 207.853 612.987 208.577C613.113 209.611 613.016 210.528 612.694 211.329C612.398 212.126 611.959 212.822 611.376 213.418C610.816 213.985 610.138 214.449 609.342 214.809C608.57 215.14 607.783 215.354 606.981 215.452C605.741 215.604 604.591 215.535 603.532 215.245C602.496 214.926 601.583 214.434 600.793 213.77C600.004 213.106 599.366 212.292 598.881 211.328C598.395 210.365 598.083 209.314 597.944 208.177C597.573 205.152 598.081 202.44 599.466 200.041C600.874 197.612 602.936 195.496 605.654 193.694C608.369 191.866 611.609 190.367 615.375 189.198C619.141 188.028 623.221 187.174 627.615 186.636C629.709 186.38 631.754 186.155 633.751 185.963C635.744 185.745 637.56 185.575 639.198 185.453C640.862 185.328 642.295 185.245 643.496 185.202C644.698 185.16 645.578 185.17 646.137 185.233C646.67 185.299 647.107 185.442 647.449 185.663C647.787 185.857 648.053 186.1 648.246 186.391C648.439 186.683 648.584 187.006 648.68 187.362C648.773 187.691 648.841 188.037 648.886 188.399C648.921 188.683 648.923 189.024 648.893 189.421C648.86 189.793 648.786 190.156 648.672 190.511C648.558 190.866 648.399 191.174 648.195 191.435C647.991 191.696 647.721 191.847 647.385 191.889C647.178 191.914 646.947 191.85 646.692 191.698C646.464 191.542 646.139 191.359 645.72 191.148C645.301 190.937 644.734 190.705 644.021 190.451C643.334 190.194 642.43 189.99 641.309 189.839C640.215 189.684 638.865 189.587 637.26 189.548C635.68 189.505 633.774 189.581 631.542 189.776L637.583 239.095C637.826 241.085 637.487 242.596 636.564 243.627C635.641 244.658 634.106 245.305 631.961 245.568ZM646.63 222.992C646.215 219.606 646.343 216.586 647.015 213.933C647.684 211.254 648.728 208.961 650.148 207.056C651.593 205.147 653.349 203.633 655.416 202.514C657.483 201.395 659.705 200.69 662.083 200.399C664.461 200.108 666.785 200.23 669.055 200.765C671.321 201.275 673.368 202.244 675.196 203.673C677.05 205.099 678.621 207.005 679.91 209.392C681.197 211.753 682.049 214.64 682.467 218.052C682.881 221.438 682.758 224.497 682.095 227.228C681.433 229.959 680.383 232.317 678.948 234.303C677.538 236.286 675.804 237.876 673.747 239.073C671.686 240.243 669.467 240.974 667.089 241.265C664.711 241.557 662.384 241.409 660.108 240.822C657.829 240.209 655.758 239.151 653.895 237.647C652.058 236.141 650.491 234.168 649.195 231.73C647.9 229.291 647.044 226.378 646.63 222.992ZM670.427 219.684C670.174 217.616 669.853 215.635 669.463 213.741C669.097 211.819 668.615 210.133 668.017 208.684C667.42 207.236 666.68 206.12 665.797 205.336C664.911 204.526 663.834 204.199 662.568 204.354C661.301 204.509 660.339 205.112 659.68 206.164C659.019 207.189 658.576 208.503 658.353 210.104C658.126 211.68 658.068 213.458 658.18 215.438C658.291 217.419 658.473 219.443 658.727 221.511C658.98 223.578 659.293 225.6 659.666 227.574C660.036 229.523 660.523 231.247 661.126 232.748C661.73 234.248 662.478 235.429 663.371 236.29C664.26 237.126 665.338 237.466 666.605 237.311C667.871 237.156 668.832 236.539 669.487 235.462C670.142 234.385 670.578 233.02 670.796 231.366C671.013 229.713 671.063 227.87 670.945 225.838C670.853 223.803 670.681 221.752 670.427 219.684Z" fill="black"/>
<path d="M939.119 238.671C939.325 240.665 938.943 242.171 937.975 243.187C937.032 244.2 935.486 244.818 933.336 245.04C931.16 245.264 929.507 244.976 928.377 244.177C927.247 243.377 926.58 241.98 926.374 239.985L921.581 193.513C921.434 192.088 920.376 191.477 918.408 191.68C916.983 191.827 915.555 192.197 914.124 192.79C912.716 193.354 911.455 194.073 910.341 194.947C909.25 195.792 908.382 196.772 907.738 197.886C907.091 198.973 906.829 200.113 906.952 201.305C907.037 202.134 907.209 202.784 907.467 203.254C907.751 203.722 908.049 204.071 908.36 204.301C908.669 204.505 908.97 204.631 909.263 204.679C909.579 204.699 909.802 204.702 909.932 204.689C910.579 204.622 911.1 204.464 911.493 204.214C911.883 203.938 912.235 203.666 912.548 203.398C912.858 203.104 913.144 202.839 913.408 202.602C913.695 202.337 914.033 202.184 914.421 202.144C914.732 202.112 915.064 202.157 915.417 202.277C915.793 202.369 916.139 202.556 916.456 202.838C916.799 203.117 917.101 203.504 917.361 204.001C917.619 204.472 917.786 205.07 917.861 205.795C917.968 206.831 917.852 207.746 917.515 208.54C917.204 209.332 916.752 210.02 916.158 210.605C915.587 211.161 914.9 211.611 914.098 211.956C913.319 212.272 912.528 212.471 911.725 212.554C910.481 212.682 909.333 212.591 908.28 212.281C907.25 211.942 906.347 211.433 905.57 210.754C904.793 210.075 904.171 209.249 903.705 208.276C903.238 207.303 902.945 206.247 902.828 205.107C902.606 202.957 902.813 201.025 903.447 199.31C904.079 197.569 905.059 196.028 906.387 194.687C907.741 193.343 909.401 192.177 911.367 191.189C913.331 190.175 915.532 189.306 917.971 188.584C920.409 187.861 923.031 187.263 925.836 186.791C928.664 186.29 931.606 185.881 934.663 185.566C942.072 184.802 947.827 185.648 951.929 188.105C956.028 190.536 958.351 194.407 958.899 199.717C959.166 202.307 959.053 204.636 958.559 206.703C958.091 208.767 957.349 210.584 956.333 212.155C955.34 213.698 954.14 214.999 952.731 216.061C951.319 217.097 949.83 217.892 948.264 218.446C946.698 219 945.095 219.323 943.455 219.413C941.841 219.501 940.308 219.358 938.856 218.984L939.227 217.257C941.232 217.653 942.827 217.514 944.015 216.842C945.225 216.141 946.107 215.043 946.659 213.546C947.238 212.046 947.544 210.195 947.579 207.992C947.639 205.787 947.535 203.376 947.265 200.76C947.062 198.791 946.67 197.025 946.09 195.462C945.507 193.873 944.795 192.545 943.952 191.48C943.135 190.413 942.215 189.618 941.192 189.095C940.193 188.543 939.162 188.322 938.1 188.432C937.271 188.517 936.598 188.718 936.081 189.033C935.587 189.319 935.204 189.673 934.934 190.094C934.686 190.486 934.52 190.909 934.436 191.362C934.375 191.787 934.352 192.196 934.366 192.587L939.119 238.671ZM977.906 207.339C978.736 205.735 979.644 204.266 980.633 202.934C981.046 202.368 981.499 201.811 981.992 201.262C982.485 200.714 982.997 200.216 983.526 199.769C984.082 199.319 984.659 198.945 985.256 198.648C985.854 198.351 986.464 198.17 987.085 198.106C988.407 197.97 989.484 198.264 990.318 198.99C991.15 199.69 991.639 200.752 991.786 202.176C991.877 203.057 991.887 203.92 991.817 204.765C991.77 205.581 991.6 206.594 991.306 207.802L990.218 207.914C989.979 207.127 989.549 206.504 988.925 206.045C988.299 205.56 987.442 205.373 986.354 205.486C985.551 205.568 984.777 205.805 984.032 206.196C983.284 206.561 982.558 207.003 981.852 207.521C981.172 208.036 980.522 208.587 979.902 209.175C979.308 209.76 978.763 210.313 978.267 210.836L980.868 236.053C980.902 236.39 980.892 236.797 980.836 237.274C980.781 237.751 980.567 238.218 980.196 238.675C979.85 239.13 979.29 239.541 978.516 239.909C977.771 240.3 976.712 240.566 975.339 240.708C973.966 240.849 972.861 240.793 972.023 240.539C971.214 240.308 970.58 239.994 970.12 239.597C969.66 239.199 969.354 238.772 969.202 238.317C969.051 237.861 968.96 237.491 968.931 237.206L965.837 207.209C965.759 206.458 965.511 205.829 965.093 205.322C964.697 204.787 964.085 204.562 963.256 204.648C962.816 204.693 962.448 204.81 962.153 204.997C961.858 205.184 961.544 205.439 961.211 205.762L960.295 204.874C960.84 204.321 961.451 203.774 962.128 203.232C962.829 202.663 963.588 202.153 964.405 201.702C965.222 201.251 966.111 200.858 967.072 200.523C968.032 200.189 969.056 199.965 970.144 199.853C971.258 199.738 972.22 199.796 973.029 200.027C973.861 200.229 974.549 200.551 975.092 200.992C975.658 201.405 976.114 201.895 976.461 202.461C976.807 203.028 977.077 203.615 977.271 204.223C977.488 204.803 977.638 205.377 977.723 205.944C977.805 206.485 977.866 206.95 977.906 207.339ZM1015.09 215.638C1015.02 214.991 1014.76 214.52 1014.31 214.226C1013.86 213.932 1013.31 213.818 1012.67 213.885C1011.76 213.979 1010.91 214.275 1010.13 214.775C1009.37 215.273 1008.72 215.955 1008.18 216.822C1007.64 217.689 1007.25 218.737 1007.01 219.966C1006.77 221.169 1006.73 222.548 1006.89 224.102C1007.04 225.605 1007.28 226.837 1007.58 227.8C1007.92 228.761 1008.3 229.52 1008.72 230.078C1009.17 230.608 1009.65 230.964 1010.17 231.147C1010.68 231.329 1011.21 231.392 1011.76 231.336C1012.43 231.267 1013.05 231.033 1013.61 230.635C1014.17 230.21 1014.64 229.704 1015.02 229.114C1015.41 228.525 1015.69 227.88 1015.88 227.18C1016.07 226.48 1016.13 225.793 1016.06 225.119L1015.09 215.638ZM1007.15 199.256C1006.27 199.347 1005.47 199.535 1004.74 199.82C1004.01 200.104 1003.39 200.43 1002.87 200.797C1002.36 201.164 1001.97 201.558 1001.7 201.979C1001.43 202.373 1001.31 202.739 1001.34 203.076C1001.38 203.464 1001.61 203.729 1002.01 203.871C1002.44 203.983 1002.92 204.131 1003.43 204.313C1003.95 204.47 1004.42 204.735 1004.85 205.109C1005.31 205.455 1005.58 206.043 1005.66 206.872C1005.72 207.416 1005.65 207.933 1005.47 208.423C1005.31 208.885 1005.05 209.317 1004.7 209.72C1004.37 210.094 1003.96 210.411 1003.46 210.672C1002.99 210.904 1002.48 211.048 1001.93 211.104C1000.48 211.254 999.255 210.883 998.247 209.992C997.264 209.099 996.689 207.836 996.521 206.204C996.358 204.624 996.633 203.234 997.347 202.035C998.059 200.81 999.038 199.766 1000.28 198.905C1001.56 198.04 1003.02 197.353 1004.67 196.843C1006.31 196.306 1007.98 195.951 1009.66 195.778C1011.68 195.569 1013.63 195.59 1015.52 195.841C1017.4 196.092 1019.09 196.624 1020.59 197.438C1022.12 198.25 1023.37 199.351 1024.35 200.742C1025.36 202.131 1025.97 203.874 1026.18 205.972L1028.45 227.926C1028.47 228.159 1028.51 228.417 1028.57 228.699C1028.62 228.981 1028.71 229.234 1028.84 229.456C1028.97 229.679 1029.15 229.857 1029.37 229.991C1029.59 230.125 1029.9 230.172 1030.29 230.132C1030.75 230.084 1031.16 229.871 1031.52 229.495C1031.89 229.089 1032.22 228.689 1032.49 228.294L1033.55 229.01C1033.22 229.594 1032.81 230.238 1032.33 230.942C1031.86 231.646 1031.26 232.322 1030.54 232.972C1029.82 233.623 1028.96 234.195 1027.97 234.691C1026.97 235.186 1025.81 235.502 1024.49 235.638C1022.86 235.807 1021.36 235.477 1019.99 234.649C1018.62 233.796 1017.64 232.379 1017.04 230.398C1016.33 231.598 1015.56 232.62 1014.73 233.465C1013.92 234.307 1013.08 235.009 1012.19 235.571C1011.31 236.134 1010.4 236.568 1009.46 236.874C1008.55 237.178 1007.62 237.379 1006.66 237.478C1005.41 237.606 1004.19 237.536 1002.98 237.267C1001.78 236.999 1000.67 236.499 999.648 235.766C998.653 235.004 997.802 233.98 997.093 232.691C996.41 231.401 995.968 229.784 995.768 227.841C995.525 225.484 995.792 223.506 996.569 221.907C997.347 220.308 998.435 218.926 999.833 217.761C1001.25 216.567 1002.89 215.509 1004.73 214.586C1006.6 213.66 1008.5 212.692 1010.44 211.68C1011.88 210.93 1012.88 209.937 1013.43 208.701C1014.01 207.438 1014.23 206.184 1014.1 204.941C1013.9 203.024 1013.18 201.554 1011.92 200.532C1010.68 199.481 1009.1 199.056 1007.15 199.256ZM1072.14 226.64C1072.18 226.977 1072.17 227.384 1072.11 227.861C1072.05 228.337 1071.84 228.805 1071.47 229.262C1071.12 229.716 1070.56 230.127 1069.79 230.495C1069.02 230.889 1067.95 231.157 1066.57 231.298C1065.2 231.44 1064.1 231.384 1063.26 231.13C1062.45 230.899 1061.81 230.585 1061.35 230.187C1060.92 229.787 1060.63 229.359 1060.48 228.903C1060.32 228.448 1060.23 228.077 1060.2 227.793L1057.37 200.321C1057.33 199.958 1057.24 199.601 1057.1 199.249C1056.96 198.871 1056.77 198.538 1056.53 198.248C1056.29 197.959 1056.01 197.739 1055.68 197.59C1055.34 197.415 1054.97 197.349 1054.56 197.391C1053.86 197.463 1053.19 197.741 1052.56 198.225C1051.93 198.683 1051.34 199.202 1050.8 199.782C1050.28 200.359 1049.83 200.929 1049.44 201.492C1049.08 202.053 1048.82 202.472 1048.67 202.75L1051.35 228.784C1051.39 229.121 1051.38 229.528 1051.32 230.005C1051.27 230.481 1051.05 230.949 1050.68 231.406C1050.34 231.86 1049.78 232.271 1049 232.639C1048.26 233.03 1047.2 233.297 1045.82 233.438C1044.45 233.58 1043.35 233.524 1042.51 233.27C1041.7 233.039 1041.07 232.725 1040.61 232.327C1040.15 231.93 1039.84 231.503 1039.69 231.047C1039.54 230.592 1039.45 230.221 1039.42 229.936L1036.32 199.939C1036.24 199.188 1036 198.559 1035.58 198.053C1035.18 197.517 1034.57 197.293 1033.74 197.378C1033.3 197.424 1032.93 197.54 1032.64 197.727C1032.34 197.915 1032.03 198.17 1031.7 198.492L1030.78 197.605C1031.33 197.051 1031.94 196.504 1032.61 195.963C1033.31 195.393 1034.07 194.883 1034.89 194.432C1035.71 193.981 1036.6 193.589 1037.56 193.254C1038.52 192.919 1039.54 192.696 1040.63 192.584C1042.31 192.41 1043.65 192.56 1044.64 193.034C1045.63 193.482 1046.39 194.071 1046.91 194.803C1047.43 195.535 1047.77 196.324 1047.94 197.171C1048.12 197.989 1048.25 198.683 1048.31 199.253C1049.38 197.755 1050.56 196.389 1051.85 195.157C1052.37 194.632 1052.95 194.114 1053.58 193.605C1054.23 193.092 1054.9 192.63 1055.59 192.219C1056.28 191.781 1057 191.419 1057.76 191.131C1058.51 190.844 1059.28 190.66 1060.06 190.58C1061.56 190.425 1062.87 190.565 1063.99 190.999C1065.11 191.434 1066.03 192.006 1066.76 192.716C1067.48 193.401 1068.03 194.156 1068.4 194.981C1068.8 195.778 1069.03 196.487 1069.1 197.109C1070.2 195.608 1071.38 194.243 1072.64 193.013C1073.16 192.488 1073.74 191.97 1074.36 191.461C1074.99 190.951 1075.65 190.49 1076.34 190.079C1077.06 189.638 1077.78 189.276 1078.51 188.991C1079.26 188.704 1080.03 188.52 1080.81 188.44C1082.31 188.285 1083.62 188.438 1084.74 188.898C1085.86 189.333 1086.79 189.97 1087.53 190.81C1088.27 191.649 1088.84 192.625 1089.25 193.735C1089.67 194.843 1089.95 195.966 1090.07 197.106L1092.55 221.158C1092.57 221.391 1092.61 221.649 1092.66 221.931C1092.72 222.188 1092.81 222.44 1092.94 222.689C1093.07 222.911 1093.24 223.089 1093.47 223.223C1093.71 223.355 1094.02 223.402 1094.38 223.364C1094.88 223.313 1095.3 223.1 1095.65 222.723C1096 222.32 1096.33 221.92 1096.63 221.523L1097.65 222.242C1097.34 222.824 1096.92 223.482 1096.4 224.217C1095.87 224.926 1095.22 225.621 1094.45 226.303C1093.71 226.981 1092.81 227.571 1091.77 228.072C1090.75 228.596 1089.56 228.927 1088.22 229.066C1087.08 229.184 1086.06 229.131 1085.18 228.908C1084.32 228.709 1083.57 228.394 1082.92 227.963C1082.3 227.504 1081.81 226.952 1081.45 226.308C1081.1 225.638 1080.88 224.914 1080.8 224.137L1078.12 198.181C1078.08 197.818 1077.99 197.461 1077.85 197.109C1077.71 196.731 1077.52 196.398 1077.28 196.108C1077.06 195.816 1076.79 195.595 1076.46 195.446C1076.13 195.271 1075.76 195.205 1075.34 195.247C1074.64 195.319 1073.97 195.599 1073.31 196.085C1072.68 196.543 1072.09 197.062 1071.55 197.642C1071.03 198.219 1070.59 198.787 1070.23 199.348C1069.87 199.909 1069.61 200.328 1069.46 200.606L1072.14 226.64ZM1118.91 204.93C1118.84 204.283 1118.59 203.812 1118.14 203.518C1117.69 203.224 1117.14 203.11 1116.49 203.177C1115.59 203.271 1114.74 203.567 1113.95 204.067C1113.19 204.565 1112.54 205.247 1112 206.114C1111.46 206.981 1111.08 208.029 1110.84 209.258C1110.59 210.461 1110.55 211.84 1110.71 213.394C1110.87 214.897 1111.1 216.129 1111.41 217.092C1111.74 218.053 1112.12 218.812 1112.55 219.37C1112.99 219.9 1113.48 220.256 1113.99 220.439C1114.51 220.621 1115.04 220.684 1115.58 220.628C1116.26 220.559 1116.87 220.325 1117.43 219.927C1117.99 219.503 1118.46 218.996 1118.85 218.406C1119.23 217.817 1119.52 217.172 1119.71 216.472C1119.9 215.772 1119.96 215.085 1119.89 214.411L1118.91 204.93ZM1110.98 188.548C1110.1 188.639 1109.29 188.827 1108.56 189.112C1107.83 189.397 1107.21 189.722 1106.7 190.089C1106.19 190.456 1105.8 190.85 1105.52 191.271C1105.25 191.665 1105.13 192.031 1105.17 192.368C1105.21 192.756 1105.43 193.021 1105.84 193.163C1106.27 193.275 1106.74 193.423 1107.26 193.605C1107.77 193.762 1108.24 194.027 1108.68 194.402C1109.13 194.747 1109.4 195.335 1109.49 196.164C1109.54 196.708 1109.48 197.225 1109.29 197.715C1109.13 198.177 1108.87 198.609 1108.52 199.012C1108.19 199.386 1107.78 199.703 1107.29 199.964C1106.81 200.196 1106.3 200.34 1105.76 200.396C1104.31 200.546 1103.08 200.175 1102.07 199.284C1101.09 198.391 1100.51 197.128 1100.35 195.496C1100.18 193.916 1100.46 192.526 1101.17 191.327C1101.88 190.102 1102.86 189.058 1104.11 188.197C1105.38 187.332 1106.84 186.645 1108.49 186.135C1110.14 185.598 1111.8 185.243 1113.49 185.07C1115.51 184.861 1117.46 184.882 1119.34 185.133C1121.23 185.384 1122.92 185.916 1124.42 186.73C1125.94 187.542 1127.19 188.643 1128.17 190.034C1129.18 191.423 1129.79 193.166 1130.01 195.264L1132.27 217.218C1132.3 217.451 1132.34 217.709 1132.39 217.991C1132.45 218.274 1132.54 218.526 1132.67 218.748C1132.79 218.971 1132.97 219.149 1133.19 219.283C1133.42 219.417 1133.72 219.464 1134.11 219.424C1134.58 219.376 1134.99 219.164 1135.34 218.787C1135.72 218.381 1136.04 217.981 1136.32 217.587L1137.37 218.302C1137.04 218.886 1136.64 219.53 1136.16 220.234C1135.68 220.938 1135.08 221.615 1134.36 222.265C1133.65 222.915 1132.79 223.487 1131.79 223.983C1130.8 224.478 1129.64 224.794 1128.32 224.93C1126.69 225.099 1125.18 224.769 1123.82 223.941C1122.45 223.088 1121.46 221.671 1120.87 219.691C1120.15 220.89 1119.38 221.912 1118.55 222.757C1117.75 223.599 1116.9 224.301 1116.02 224.864C1115.13 225.426 1114.22 225.86 1113.29 226.166C1112.38 226.47 1111.44 226.671 1110.48 226.77C1109.24 226.898 1108.01 226.828 1106.81 226.56C1105.6 226.291 1104.49 225.791 1103.47 225.058C1102.48 224.297 1101.63 223.272 1100.92 221.984C1100.23 220.693 1099.79 219.076 1099.59 217.133C1099.35 214.776 1099.62 212.798 1100.39 211.199C1101.17 209.6 1102.26 208.219 1103.66 207.053C1105.08 205.86 1106.71 204.801 1108.55 203.878C1110.42 202.952 1112.32 201.984 1114.26 200.972C1115.7 200.222 1116.7 199.229 1117.25 197.994C1117.83 196.73 1118.05 195.476 1117.93 194.233C1117.73 192.316 1117 190.846 1115.74 189.824C1114.51 188.773 1112.92 188.348 1110.98 188.548ZM1163.99 201.067C1163.65 197.803 1163.23 195.216 1162.71 193.305C1162.23 191.366 1161.68 189.916 1161.09 188.957C1160.49 187.971 1159.88 187.354 1159.25 187.104C1158.62 186.829 1157.99 186.723 1157.37 186.788C1156.62 186.865 1155.97 187.142 1155.41 187.618C1154.88 188.065 1154.43 188.57 1154.04 189.134C1153.68 189.695 1153.37 190.25 1153.11 190.8C1152.88 191.348 1152.67 191.762 1152.49 192.042L1155.17 217.998C1155.2 218.335 1155.2 218.755 1155.14 219.258C1155.09 219.735 1154.87 220.215 1154.51 220.698C1154.16 221.152 1153.6 221.564 1152.83 221.931C1152.08 222.322 1151.02 222.589 1149.65 222.73C1148.28 222.872 1147.17 222.816 1146.33 222.562C1145.52 222.331 1144.89 222.017 1144.43 221.619C1143.97 221.222 1143.66 220.795 1143.51 220.339C1143.36 219.884 1143.27 219.514 1143.24 219.229L1140.15 189.231C1140.07 188.48 1139.82 187.851 1139.4 187.345C1139.01 186.81 1138.39 186.585 1137.57 186.67C1137.13 186.716 1136.76 186.832 1136.46 187.02C1136.17 187.207 1135.85 187.462 1135.52 187.784L1134.6 186.897C1135.15 186.343 1135.76 185.796 1136.44 185.255C1137.14 184.685 1137.9 184.175 1138.71 183.724C1139.53 183.273 1140.42 182.881 1141.38 182.546C1142.34 182.211 1143.37 181.988 1144.45 181.876C1146.14 181.702 1147.48 181.852 1148.47 182.326C1149.46 182.774 1150.21 183.363 1150.73 184.095C1151.25 184.827 1151.59 185.616 1151.76 186.463C1151.95 187.281 1152.07 187.975 1152.13 188.545C1152.95 187.073 1153.91 185.731 1155.01 184.517C1155.46 184 1155.96 183.491 1156.51 182.989C1157.08 182.484 1157.69 182.029 1158.33 181.623C1158.99 181.188 1159.69 180.828 1160.42 180.544C1161.17 180.256 1161.95 180.071 1162.76 179.988C1164.52 179.807 1166.11 179.983 1167.52 180.518C1168.96 181.05 1170.23 182.058 1171.33 183.542C1172.42 185.025 1173.35 187.05 1174.12 189.616C1174.87 192.155 1175.45 195.355 1175.85 199.215C1176.24 202.971 1176.24 206.27 1175.85 209.111C1175.46 211.952 1174.83 214.4 1173.94 216.455C1173.05 218.51 1171.98 220.217 1170.74 221.576C1169.49 222.961 1168.21 224.076 1166.88 224.92C1165.55 225.763 1164.25 226.381 1162.99 226.774C1161.75 227.19 1160.66 227.459 1159.73 227.581L1159.14 226.032C1159.9 225.77 1160.58 225.412 1161.19 224.957C1161.82 224.499 1162.37 223.866 1162.84 223.059C1163.3 222.251 1163.69 221.256 1163.98 220.074C1164.28 218.865 1164.48 217.379 1164.58 215.614C1164.72 213.846 1164.72 211.777 1164.61 209.406C1164.52 207.007 1164.31 204.227 1163.99 201.067ZM1201.36 196.427C1201.3 195.779 1201.04 195.308 1200.59 195.014C1200.14 194.72 1199.59 194.607 1198.94 194.673C1198.04 194.767 1197.19 195.064 1196.41 195.564C1195.65 196.061 1195 196.743 1194.46 197.61C1193.92 198.477 1193.53 199.525 1193.29 200.754C1193.05 201.958 1193.01 203.336 1193.17 204.89C1193.32 206.393 1193.55 207.626 1193.86 208.589C1194.2 209.549 1194.58 210.308 1195 210.867C1195.45 211.397 1195.93 211.753 1196.44 211.935C1196.96 212.117 1197.49 212.181 1198.04 212.124C1198.71 212.055 1199.33 211.821 1199.89 211.423C1200.45 210.999 1200.92 210.492 1201.3 209.903C1201.69 209.313 1201.97 208.668 1202.16 207.968C1202.35 207.268 1202.41 206.581 1202.34 205.908L1201.36 196.427ZM1193.43 180.045C1192.55 180.136 1191.74 180.323 1191.01 180.608C1190.28 180.893 1189.66 181.219 1189.15 181.586C1188.64 181.952 1188.25 182.346 1187.98 182.767C1187.7 183.162 1187.59 183.527 1187.62 183.864C1187.66 184.253 1187.88 184.518 1188.29 184.659C1188.72 184.772 1189.19 184.919 1189.71 185.101C1190.22 185.258 1190.7 185.523 1191.13 185.898C1191.58 186.244 1191.85 186.831 1191.94 187.66C1191.99 188.204 1191.93 188.721 1191.75 189.211C1191.58 189.673 1191.33 190.105 1190.98 190.508C1190.65 190.882 1190.24 191.2 1189.74 191.46C1189.27 191.692 1188.76 191.836 1188.21 191.893C1186.76 192.042 1185.53 191.672 1184.52 190.781C1183.54 189.887 1182.97 188.624 1182.8 186.992C1182.64 185.412 1182.91 184.023 1183.62 182.823C1184.34 181.598 1185.32 180.554 1186.56 179.693C1187.83 178.829 1189.29 178.141 1190.94 177.631C1192.59 177.095 1194.25 176.74 1195.94 176.566C1197.96 176.358 1199.91 176.379 1201.8 176.629C1203.68 176.88 1205.37 177.413 1206.87 178.227C1208.39 179.038 1209.65 180.14 1210.63 181.531C1211.63 182.919 1212.25 184.662 1212.46 186.76L1214.73 208.714C1214.75 208.947 1214.79 209.205 1214.85 209.487C1214.9 209.77 1214.99 210.022 1215.12 210.245C1215.25 210.467 1215.42 210.645 1215.65 210.779C1215.87 210.913 1216.18 210.96 1216.56 210.92C1217.03 210.872 1217.44 210.66 1217.79 210.283C1218.17 209.878 1218.5 209.477 1218.77 209.083L1219.83 209.799C1219.49 210.383 1219.09 211.026 1218.61 211.73C1218.13 212.434 1217.54 213.111 1216.82 213.761C1216.1 214.411 1215.24 214.984 1214.25 215.479C1213.25 215.974 1212.09 216.29 1210.77 216.427C1209.14 216.595 1207.64 216.265 1206.27 215.438C1204.9 214.584 1203.92 213.167 1203.32 211.187C1202.6 212.386 1201.83 213.408 1201 214.253C1200.2 215.095 1199.36 215.797 1198.47 216.36C1197.59 216.922 1196.68 217.356 1195.74 217.663C1194.83 217.966 1193.89 218.167 1192.94 218.266C1191.69 218.394 1190.47 218.324 1189.26 218.056C1188.06 217.787 1186.94 217.287 1185.93 216.554C1184.93 215.793 1184.08 214.768 1183.37 213.48C1182.69 212.189 1182.25 210.572 1182.05 208.629C1181.8 206.272 1182.07 204.294 1182.85 202.695C1183.62 201.097 1184.71 199.715 1186.11 198.55C1187.53 197.356 1189.16 196.297 1191.01 195.374C1192.87 194.449 1194.78 193.48 1196.71 192.469C1198.16 191.718 1199.15 190.725 1199.71 189.49C1200.28 188.226 1200.51 186.972 1200.38 185.729C1200.18 183.812 1199.45 182.343 1198.2 181.32C1196.96 180.27 1195.37 179.844 1193.43 180.045Z" fill="black"/>
<defs>
<filter id="filter0_i_74_135" x="-103.201" y="95.387" width="1626.93" height="244.566" filterUnits="userSpaceOnUse" color-interpolation-filters="sRGB">
<feFlood flood-opacity="0" result="BackgroundImageFix"/>
<feBlend mode="normal" in="SourceGraphic" in2="BackgroundImageFix" result="shape"/>
<feColorMatrix in="SourceAlpha" type="matrix" values="0 0 0 0 0 0 0 0 0 0 0 0 0 0 0 0 0 0 127 0" result="hardAlpha"/>
<feOffset dy="4"/>
<feGaussianBlur stdDeviation="6.8"/>
<feComposite in2="hardAlpha" operator="arithmetic" k2="-1" k3="1"/>
<feColorMatrix type="matrix" values="0 0 0 0 0 0 0 0 0 0 0 0 0 0 0 0 0 0 0.4 0"/>
<feBlend mode="normal" in2="shape" result="effect1_innerShadow_74_135"/>
</filter>
</defs>
</svg>
